<svg width="220" height="220" viewBox="0 0 220 220" fill="none" xmlns="http://www.w3.org/2000/svg">
<g filter="url(#filter0_b_1854_421)">
<rect width="220" height="220" fill="#FF8CFF"/>
</g>
<g clip-path="url(#clip0_1854_421)">
<path d="M153.067 157.046L153.037 156.859C153.03 156.811 153.007 156.707 152.992 156.652C152.923 156.403 152.84 156.217 152.749 156.051C152.711 155.989 152.673 155.982 152.627 156.016C152.605 155.968 152.59 155.94 152.59 155.94C152.59 155.933 152.582 155.933 152.582 155.927C152.59 155.878 152.597 155.823 152.597 155.781C152.552 154.869 152.241 153.978 151.694 153.743C151.429 153.633 151.11 153.736 150.845 154.061C150.579 154.379 150.382 154.856 150.253 155.346C150.003 156.3 149.934 157.315 149.942 158.234C149.95 159.16 150.025 160.023 150.132 160.804C150.207 161.35 150.314 161.896 150.488 162.379C150.663 162.863 150.928 163.25 151.216 163.367C151.254 163.381 151.285 163.395 151.323 163.402L151.376 163.416H151.399H151.436C151.482 163.416 151.573 163.409 151.641 163.381C151.778 163.333 151.914 163.243 152.036 163.112C152.279 162.856 152.483 162.469 152.643 162.034C152.969 161.163 153.113 160.03 153.151 159.029C153.174 158.51 153.166 157.972 153.121 157.44C153.105 157.308 153.09 157.177 153.067 157.046Z" fill="black"/>
<path d="M159.169 166.725L159.139 166.538C159.131 166.49 159.108 166.386 159.093 166.331C159.025 166.082 158.941 165.896 158.85 165.73C158.812 165.668 158.775 165.661 158.729 165.696C158.706 165.654 158.691 165.62 158.691 165.62C158.691 165.613 158.691 165.613 158.684 165.606C158.691 165.557 158.699 165.502 158.699 165.461C158.653 164.549 158.342 163.657 157.796 163.423C157.53 163.312 157.212 163.416 156.946 163.74C156.681 164.058 156.484 164.535 156.355 165.025C156.104 165.979 156.036 166.994 156.044 167.913C156.051 168.839 156.127 169.703 156.233 170.483C156.309 171.029 156.415 171.575 156.59 172.059C156.764 172.542 157.03 172.929 157.318 173.047C157.356 173.06 157.386 173.074 157.424 173.081L157.477 173.095H157.5H157.538C157.584 173.095 157.675 173.081 157.743 173.06C157.879 173.012 158.016 172.922 158.137 172.791C158.38 172.535 158.585 172.148 158.744 171.713C159.07 170.843 159.215 169.71 159.252 168.708C159.275 168.19 159.268 167.651 159.222 167.119C159.207 166.988 159.192 166.856 159.169 166.725Z" fill="black"/>
<path d="M164.63 154.386L164.6 154.199C164.592 154.151 164.569 154.047 164.554 153.992C164.486 153.743 164.402 153.557 164.311 153.391C164.273 153.329 164.235 153.322 164.19 153.356C164.167 153.308 164.152 153.28 164.152 153.28C164.152 153.28 164.152 153.273 164.144 153.267C164.152 153.218 164.16 153.163 164.16 153.121C164.114 152.209 163.803 151.318 163.257 151.083C162.991 150.966 162.673 151.076 162.407 151.394C162.142 151.712 161.944 152.189 161.815 152.679C161.565 153.633 161.497 154.648 161.504 155.567C161.512 156.493 161.588 157.357 161.694 158.137C161.77 158.683 161.876 159.229 162.051 159.712C162.225 160.196 162.491 160.583 162.779 160.7C162.817 160.714 162.847 160.728 162.885 160.735L162.938 160.749H162.961H162.999C163.044 160.749 163.136 160.735 163.204 160.714C163.34 160.666 163.477 160.576 163.598 160.445C163.841 160.189 164.046 159.802 164.205 159.367C164.531 158.497 164.675 157.37 164.713 156.362C164.736 155.844 164.729 155.305 164.676 154.773C164.668 154.648 164.653 154.517 164.63 154.386Z" fill="black"/>
<path d="M157.667 141.404C157.402 141.293 157.083 141.397 156.817 141.722C156.552 142.04 156.355 142.516 156.226 143.007C155.975 143.96 155.907 144.976 155.915 145.895C155.922 146.821 155.998 147.684 156.104 148.465C156.18 149.011 156.286 149.556 156.461 150.04C156.635 150.524 156.901 150.911 157.189 151.028C157.227 151.042 157.257 151.056 157.295 151.063L157.348 151.076H157.371H157.409C157.455 151.076 157.546 151.069 157.614 151.042C157.75 150.993 157.887 150.904 158.008 150.772C158.251 150.517 158.456 150.13 158.615 149.695C158.942 148.824 159.086 147.691 159.124 146.689C159.146 146.164 159.139 145.632 159.093 145.1C159.078 144.969 159.063 144.838 159.04 144.706L159.01 144.52C159.002 144.472 158.979 144.368 158.964 144.32C158.896 144.071 158.813 143.884 158.722 143.718C158.684 143.656 158.646 143.649 158.6 143.684C158.577 143.636 158.562 143.608 158.562 143.608C158.562 143.608 158.555 143.601 158.555 143.594C158.57 143.546 158.57 143.497 158.57 143.449C158.524 142.53 158.213 141.639 157.667 141.404Z" fill="black"/>
<path d="M170.935 142.392L170.904 142.206C170.897 142.157 170.874 142.054 170.859 141.998C170.791 141.75 170.707 141.563 170.616 141.397C170.578 141.335 170.54 141.328 170.495 141.363C170.472 141.321 170.457 141.287 170.457 141.287C170.457 141.28 170.449 141.28 170.449 141.273C170.457 141.224 170.464 141.169 170.464 141.128C170.419 140.216 170.108 139.325 169.562 139.09C169.296 138.979 168.977 139.083 168.712 139.401C168.446 139.718 168.249 140.195 168.12 140.686C167.87 141.639 167.802 142.655 167.809 143.573C167.817 144.499 167.893 145.363 167.999 146.144C168.075 146.689 168.181 147.235 168.355 147.719C168.53 148.202 168.795 148.589 169.084 148.707C169.122 148.721 169.152 148.734 169.19 148.741L169.243 148.755H169.266H169.304C169.349 148.755 169.44 148.741 169.508 148.721C169.645 148.672 169.782 148.582 169.903 148.451C170.146 148.196 170.351 147.809 170.51 147.373C170.836 146.503 170.98 145.37 171.018 144.368C171.041 143.85 171.033 143.311 170.988 142.779C170.973 142.655 170.957 142.523 170.935 142.392Z" fill="black"/>
<path d="M129.893 97.9958C131.987 97.1322 134.559 96.2686 137.502 95.6123C140.446 94.9559 143.753 94.4999 147.251 94.3756C148.123 94.348 148.988 94.3341 149.837 94.348L150.467 94.3618L151.089 94.3825C151.506 94.4032 151.916 94.424 152.326 94.4585C153.972 94.5759 155.565 94.7625 157.067 94.9836C160.086 95.4257 162.764 95.9992 164.949 96.6348C167.134 97.2635 168.803 97.9751 169.903 98.5554C171.003 99.1358 171.557 99.5572 171.724 99.4467C171.799 99.3914 171.762 99.2049 171.579 98.9078C171.397 98.6107 171.071 98.21 170.578 97.7678C170.085 97.3188 169.417 96.8351 168.59 96.3515C167.764 95.8679 166.785 95.3912 165.67 94.9421C163.439 94.0371 160.67 93.2425 157.545 92.6553C155.982 92.3582 154.321 92.1164 152.576 91.9506C152.136 91.9091 151.696 91.8746 151.248 91.847C151.028 91.8331 150.801 91.8193 150.573 91.8124L149.891 91.7917C148.988 91.771 148.062 91.7779 147.137 91.8124C143.427 91.9437 139.907 92.4964 136.819 93.3324C133.724 94.1614 131.062 95.2668 128.968 96.3861C126.866 97.5122 125.334 98.6383 124.355 99.495C123.384 100.352 122.952 100.925 123.081 101.056C123.21 101.195 123.877 100.884 125.015 100.296C126.161 99.7023 127.792 98.8525 129.893 97.9958Z" fill="black"/>
<path d="M47.1482 50.5807C48.4833 46.3318 49.5151 43.741 49.1509 43.5821C48.8095 43.4301 47.1178 45.7929 45.2592 49.9935C44.3337 52.0869 43.3702 54.6293 42.4675 57.4965C41.5723 60.3636 40.7378 63.5486 40.0323 66.9201C38.6137 73.6631 37.9537 79.8604 37.7944 84.358C37.7109 86.6103 37.764 88.4342 37.8854 89.6916C38.0068 90.9559 38.204 91.6468 38.4013 91.6468C38.7957 91.6399 39.122 88.904 39.7895 84.51C40.4495 80.1091 41.4206 74.0431 42.8164 67.4037C43.5144 64.0875 44.2578 60.9371 45.0013 58.0976C45.7371 55.2511 46.4806 52.7087 47.1482 50.5807Z" fill="black"/>
<path d="M169.993 54.1318C170.736 56.9782 171.48 60.1217 172.178 63.4449C173.574 70.0843 174.537 76.1502 175.205 80.5511C175.88 84.9521 176.206 87.6879 176.593 87.6879C176.782 87.6879 176.98 86.9971 177.101 85.7328C177.23 84.4684 177.276 82.6445 177.192 80.3991C177.033 75.9015 176.373 69.7043 174.954 62.9613C174.249 59.5898 173.414 56.3979 172.519 53.5376C171.624 50.6705 170.66 48.128 169.727 46.0346C167.869 41.8341 166.169 39.4712 165.836 39.6232C165.471 39.7821 166.503 42.373 167.838 46.6219C168.498 48.7429 169.249 51.2853 169.993 54.1318Z" fill="black"/>
<path d="M131.568 147.436L131.537 147.249C131.53 147.201 131.507 147.097 131.492 147.049C131.424 146.8 131.333 146.613 131.249 146.448C131.211 146.385 131.173 146.379 131.128 146.413C131.105 146.365 131.097 146.337 131.097 146.337C131.097 146.337 131.09 146.33 131.09 146.323C131.097 146.275 131.105 146.227 131.105 146.178C131.059 145.266 130.748 144.375 130.202 144.14C129.937 144.03 129.618 144.133 129.353 144.458C129.087 144.776 128.89 145.252 128.761 145.743C128.51 146.696 128.442 147.712 128.45 148.631C128.457 149.557 128.533 150.42 128.632 151.201C128.708 151.747 128.814 152.292 128.988 152.776C129.163 153.26 129.428 153.647 129.717 153.764C129.755 153.778 129.785 153.792 129.823 153.799L129.876 153.812H129.899H129.937C129.982 153.812 130.073 153.799 130.141 153.778C130.278 153.73 130.415 153.64 130.536 153.508C130.779 153.253 130.984 152.866 131.143 152.431C131.469 151.56 131.613 150.427 131.651 149.425C131.674 148.9 131.674 148.368 131.621 147.836C131.606 147.698 131.59 147.567 131.568 147.436Z" fill="black"/>
<path d="M145.23 143.401C144.964 143.29 144.645 143.394 144.38 143.712C144.114 144.029 143.917 144.506 143.788 144.997C143.538 145.95 143.47 146.966 143.477 147.885C143.485 148.81 143.561 149.674 143.659 150.455C143.735 151 143.841 151.546 144.016 152.03C144.19 152.513 144.456 152.9 144.744 153.018C144.782 153.032 144.812 153.045 144.85 153.052L144.903 153.066H144.926H144.964C145.01 153.066 145.101 153.052 145.169 153.032C145.305 152.983 145.442 152.893 145.563 152.762C145.806 152.507 146.011 152.12 146.17 151.684C146.496 150.814 146.641 149.681 146.678 148.679C146.701 148.161 146.694 147.622 146.648 147.09C146.633 146.959 146.618 146.827 146.595 146.696L146.565 146.51C146.557 146.461 146.534 146.358 146.519 146.302C146.451 146.054 146.36 145.867 146.276 145.701C146.238 145.639 146.201 145.632 146.155 145.66C146.132 145.618 146.125 145.584 146.125 145.584C146.125 145.584 146.117 145.577 146.117 145.57C146.125 145.522 146.132 145.466 146.132 145.425C146.087 144.52 145.768 143.629 145.23 143.401Z" fill="black"/>
<path d="M146.724 168.666L146.694 168.48C146.686 168.431 146.663 168.328 146.648 168.272C146.58 168.024 146.489 167.837 146.405 167.671C146.367 167.609 146.329 167.602 146.284 167.637C146.261 167.588 146.254 167.561 146.254 167.561C146.254 167.554 146.246 167.554 146.246 167.547C146.254 167.499 146.261 167.443 146.261 167.402C146.216 166.49 145.905 165.599 145.358 165.364C145.093 165.253 144.774 165.357 144.509 165.675C144.243 165.993 144.046 166.476 143.917 166.96C143.667 167.913 143.598 168.929 143.606 169.848C143.614 170.773 143.689 171.637 143.788 172.418C143.864 172.964 143.97 173.509 144.145 173.993C144.319 174.477 144.585 174.863 144.873 174.981C144.911 174.995 144.941 175.009 144.979 175.015L145.032 175.029H145.055H145.093C145.138 175.029 145.229 175.015 145.298 174.995C145.434 174.946 145.571 174.857 145.692 174.725C145.935 174.47 146.14 174.083 146.299 173.648C146.625 172.777 146.769 171.651 146.807 170.642C146.83 170.124 146.83 169.585 146.777 169.053C146.762 168.929 146.747 168.798 146.724 168.666Z" fill="black"/>
<path d="M139.384 158.994L139.354 158.807C139.346 158.759 139.323 158.655 139.308 158.607C139.24 158.358 139.149 158.172 139.065 158.006C139.028 157.944 138.99 157.937 138.944 157.971C138.921 157.923 138.914 157.895 138.914 157.895C138.914 157.889 138.906 157.889 138.906 157.882C138.914 157.833 138.921 157.785 138.921 157.737C138.876 156.825 138.565 155.933 138.019 155.698C137.753 155.588 137.434 155.692 137.169 156.016C136.903 156.327 136.706 156.811 136.577 157.301C136.327 158.255 136.259 159.27 136.266 160.189C136.274 161.115 136.35 161.979 136.448 162.759C136.524 163.305 136.63 163.851 136.805 164.334C136.979 164.818 137.245 165.205 137.533 165.322C137.571 165.336 137.601 165.35 137.639 165.357L137.692 165.371H137.715H137.753C137.799 165.371 137.89 165.357 137.958 165.336C138.094 165.288 138.231 165.198 138.352 165.067C138.595 164.811 138.8 164.424 138.959 163.989C139.285 163.119 139.43 161.985 139.468 160.984C139.49 160.459 139.49 159.927 139.437 159.395C139.422 159.256 139.407 159.125 139.384 158.994Z" fill="black"/>
<path d="M97.3241 150.634C97.18 149.722 96.9524 148.728 96.5579 147.816C96.3531 147.353 96.08 146.904 95.7689 146.627C95.4579 146.344 95.1241 146.282 94.8814 146.427C94.3807 146.724 94.2062 147.65 94.3124 148.562C94.32 148.61 94.3352 148.658 94.3503 148.707C94.3503 148.714 94.3503 148.714 94.3427 148.721C94.3427 148.721 94.3352 148.755 94.32 148.797C94.2669 148.776 94.2289 148.783 94.2062 148.852C94.1455 149.032 94.0848 149.225 94.062 149.481C94.0545 149.536 94.0469 149.64 94.0469 149.688V149.874C94.0469 150.006 94.0469 150.137 94.0545 150.268C94.0848 150.8 94.1683 151.332 94.2745 151.85C94.4717 152.838 94.7903 153.937 95.2531 154.759C95.4807 155.173 95.7462 155.526 96.0269 155.747C96.171 155.857 96.3152 155.933 96.4593 155.961C96.5276 155.975 96.6186 155.975 96.6641 155.968L96.702 155.961L96.7248 155.954L96.7779 155.933C96.8083 155.92 96.8462 155.906 96.8765 155.885C97.142 155.733 97.3469 155.312 97.4379 154.814C97.5365 154.31 97.5593 153.757 97.5441 153.211C97.5289 152.417 97.4683 151.553 97.3241 150.634Z" fill="black"/>
<path d="M82.5558 154.441C82.5331 153.653 82.4724 152.797 82.3358 151.878C82.1917 150.966 81.9641 149.971 81.5696 149.059C81.3648 148.596 81.0917 148.147 80.7807 147.871C80.4696 147.587 80.1358 147.525 79.8931 147.67C79.3924 147.974 79.2255 148.893 79.3241 149.805C79.3317 149.847 79.3469 149.902 79.362 149.95C79.362 149.957 79.362 149.957 79.362 149.964C79.362 149.964 79.3545 149.999 79.3393 150.04C79.2938 150.019 79.2482 150.026 79.2255 150.095C79.1648 150.268 79.1041 150.468 79.0814 150.724C79.0738 150.779 79.0662 150.883 79.0662 150.931L79.0586 151.118C79.0586 151.249 79.0662 151.38 79.0738 151.512C79.1041 152.044 79.1876 152.576 79.2938 153.087C79.491 154.075 79.8096 155.173 80.2724 155.995C80.5 156.41 80.7655 156.762 81.0462 156.983C81.1903 157.094 81.3345 157.17 81.4786 157.198C81.5469 157.211 81.6379 157.211 81.6834 157.204L81.7214 157.198L81.7441 157.191L81.7972 157.17C81.8276 157.156 81.8655 157.142 81.8958 157.122C82.1614 156.97 82.3662 156.548 82.4572 156.051C82.5558 155.546 82.571 154.987 82.5558 154.441Z" fill="black"/>
<path d="M77.5702 162.967C77.4261 162.055 77.1985 161.06 76.804 160.148C76.5992 159.685 76.3261 159.236 76.015 158.96C75.704 158.676 75.3702 158.614 75.1275 158.759C74.6268 159.056 74.4523 159.982 74.5585 160.894C74.5661 160.942 74.5812 160.991 74.5964 161.039C74.5964 161.046 74.5964 161.046 74.5888 161.053C74.5888 161.053 74.5812 161.081 74.5661 161.129C74.513 161.108 74.475 161.115 74.4523 161.184C74.3916 161.364 74.3309 161.557 74.3081 161.813C74.3006 161.868 74.293 161.972 74.293 162.02V162.207C74.293 162.338 74.293 162.469 74.3006 162.6C74.3309 163.132 74.4143 163.664 74.5206 164.183C74.7178 165.171 75.0364 166.269 75.4992 167.091C75.7268 167.506 75.9923 167.858 76.273 168.079C76.4171 168.19 76.5612 168.266 76.7054 168.293C76.7737 168.307 76.8647 168.307 76.9102 168.3L76.9481 168.293L76.9709 168.286L77.024 168.266C77.0543 168.252 77.0923 168.238 77.1226 168.217C77.3881 168.065 77.593 167.644 77.684 167.146C77.7826 166.642 77.8054 166.089 77.7902 165.544C77.775 164.742 77.7143 163.886 77.5702 162.967Z" fill="black"/>
<path d="M73.0702 173.344C72.9261 172.432 72.6985 171.437 72.304 170.525C72.0992 170.062 71.8261 169.613 71.515 169.336C71.204 169.053 70.8702 168.991 70.6275 169.136C70.1268 169.433 69.9599 170.359 70.0585 171.271C70.0661 171.312 70.0812 171.368 70.0964 171.416C70.0964 171.423 70.0964 171.423 70.0888 171.43C70.0888 171.43 70.0812 171.457 70.0661 171.506C70.013 171.485 69.975 171.492 69.9523 171.561C69.8916 171.741 69.8309 171.934 69.8081 172.19C69.8006 172.245 69.793 172.349 69.793 172.397V172.584C69.793 172.715 69.793 172.846 69.8006 172.977C69.8309 173.509 69.9143 174.041 70.0206 174.553C70.2178 175.541 70.5364 176.639 70.9992 177.461C71.2268 177.876 71.4923 178.228 71.773 178.449C71.9171 178.56 72.0612 178.636 72.2054 178.663C72.2737 178.677 72.3647 178.677 72.4102 178.67L72.4481 178.663L72.4709 178.656L72.524 178.636C72.5543 178.622 72.5923 178.608 72.6226 178.587C72.8881 178.435 73.093 178.014 73.184 177.517C73.2826 177.012 73.3054 176.459 73.2902 175.914C73.2675 175.126 73.2068 174.262 73.0702 173.344Z" fill="black"/>
<path d="M85.6874 173.634C85.5433 172.722 85.3157 171.727 84.9212 170.815C84.7164 170.352 84.4433 169.903 84.1322 169.627C83.8212 169.343 83.4874 169.281 83.2446 169.426C82.744 169.723 82.5771 170.649 82.6757 171.561C82.6833 171.603 82.6984 171.658 82.7136 171.706C82.7136 171.713 82.7136 171.713 82.706 171.72C82.706 171.72 82.6984 171.748 82.6833 171.796C82.6302 171.775 82.5922 171.782 82.5695 171.851C82.5088 172.024 82.4481 172.224 82.4253 172.48C82.4177 172.535 82.4102 172.639 82.4102 172.687V172.874C82.4102 173.005 82.4102 173.136 82.4177 173.268C82.4481 173.8 82.5315 174.332 82.6377 174.843C82.835 175.831 83.1536 176.929 83.6164 177.751C83.844 178.166 84.1095 178.518 84.3902 178.739C84.5343 178.85 84.6784 178.926 84.8226 178.954C84.8908 178.967 84.9819 178.967 85.0274 178.96L85.0653 178.954L85.0881 178.947L85.1412 178.933C85.1715 178.919 85.2095 178.905 85.2398 178.884C85.5053 178.732 85.7102 178.311 85.8012 177.814C85.8998 177.309 85.9226 176.757 85.9074 176.204C85.8922 175.416 85.8315 174.553 85.6874 173.634Z" fill="black"/>
<path d="M65.7108 161.854C65.5667 160.942 65.3391 159.947 64.9446 159.035C64.7398 158.572 64.4667 158.123 64.1557 157.847C63.8446 157.564 63.5108 157.502 63.2681 157.647C62.7674 157.951 62.5929 158.869 62.6991 159.781C62.7067 159.823 62.7219 159.878 62.737 159.927C62.737 159.933 62.737 159.933 62.7295 159.94C62.7295 159.94 62.7219 159.968 62.7067 160.016C62.6536 159.996 62.6157 160.003 62.5929 160.072C62.5322 160.251 62.4715 160.445 62.4488 160.7C62.4412 160.756 62.4336 160.859 62.4336 160.908V161.094C62.4336 161.225 62.4412 161.357 62.4488 161.488C62.4791 162.02 62.5626 162.552 62.6688 163.063C62.866 164.051 63.1846 165.15 63.6474 165.972C63.875 166.386 64.1405 166.739 64.4212 166.96C64.5653 167.07 64.7095 167.146 64.8536 167.174C64.9219 167.188 65.0129 167.188 65.0584 167.181L65.0964 167.174L65.1191 167.167L65.1722 167.146C65.2101 167.132 65.2405 167.119 65.2708 167.098C65.5364 166.946 65.7412 166.524 65.8322 166.027C65.9308 165.523 65.9536 164.97 65.9384 164.424C65.9081 163.63 65.8474 162.773 65.7108 161.854Z" fill="black"/>
<path d="M91.4218 163.098C91.2776 162.186 91.05 161.191 90.6556 160.279C90.4507 159.816 90.1776 159.367 89.8666 159.091C89.5556 158.807 89.2218 158.745 88.979 158.89C88.4783 159.187 88.3114 160.113 88.41 161.025C88.4176 161.067 88.4328 161.115 88.448 161.163C88.448 161.17 88.448 161.17 88.4404 161.177C88.4404 161.177 88.4328 161.205 88.4176 161.253C88.3645 161.232 88.3266 161.239 88.3038 161.308C88.2432 161.481 88.1825 161.681 88.1597 161.937C88.1521 161.992 88.1445 162.096 88.1445 162.144V162.331C88.1445 162.462 88.1445 162.593 88.1521 162.725C88.1825 163.257 88.2659 163.789 88.3721 164.3C88.5694 165.288 88.888 166.393 89.3507 167.209C89.5783 167.623 89.8438 167.975 90.1245 168.196C90.2687 168.307 90.4128 168.383 90.5569 168.411C90.6252 168.424 90.7163 168.424 90.7618 168.418L90.7997 168.411L90.8225 168.404L90.8756 168.383C90.9059 168.369 90.9438 168.355 90.9742 168.335C91.2397 168.183 91.4445 167.768 91.5356 167.264C91.6342 166.759 91.6569 166.207 91.6418 165.654C91.6266 164.873 91.5659 164.017 91.4218 163.098Z" fill="black"/>
<path d="M69.9308 154.103C69.9081 153.315 69.8474 152.458 69.7108 151.539C69.5667 150.627 69.3391 149.633 68.9446 148.721C68.7398 148.258 68.4667 147.809 68.1557 147.532C67.8446 147.249 67.5108 147.187 67.2681 147.332C66.7674 147.629 66.6005 148.555 66.6991 149.467C66.7067 149.508 66.7219 149.563 66.737 149.612C66.737 149.619 66.737 149.619 66.7295 149.626C66.7295 149.626 66.7219 149.653 66.7067 149.702C66.6612 149.681 66.6157 149.688 66.5929 149.757C66.5322 149.93 66.4715 150.13 66.4488 150.386C66.4412 150.441 66.4336 150.544 66.4336 150.593V150.779C66.4336 150.911 66.4336 151.042 66.4412 151.173C66.4715 151.705 66.555 152.237 66.6612 152.748C66.8584 153.736 67.177 154.835 67.6398 155.657C67.8674 156.072 68.1329 156.424 68.4136 156.645C68.5577 156.756 68.7019 156.832 68.846 156.859C68.9143 156.873 69.0053 156.873 69.0508 156.866L69.0888 156.859L69.1115 156.852L69.1646 156.838C69.195 156.825 69.2329 156.811 69.2632 156.79C69.5288 156.638 69.7336 156.224 69.8246 155.719C69.9232 155.208 69.946 154.648 69.9308 154.103Z" fill="black"/>
<path d="M57.5741 150.814C57.43 149.902 57.2024 148.907 56.8079 147.995C56.6031 147.532 56.33 147.083 56.0189 146.807C55.7079 146.523 55.3741 146.461 55.1314 146.606C54.6307 146.903 54.4638 147.829 54.5624 148.741C54.57 148.783 54.5852 148.838 54.6003 148.886C54.6003 148.893 54.6003 148.893 54.5927 148.9C54.5927 148.9 54.5852 148.935 54.57 148.976C54.5169 148.955 54.4789 148.962 54.4562 149.031C54.3955 149.211 54.3348 149.404 54.312 149.66C54.3045 149.715 54.2969 149.819 54.2969 149.867V150.054C54.2969 150.185 54.3045 150.316 54.312 150.448C54.3424 150.98 54.4258 151.512 54.532 152.023C54.7293 153.011 55.0479 154.109 55.5107 154.931C55.7383 155.346 56.0038 155.698 56.2845 155.919C56.4286 156.03 56.5727 156.106 56.7169 156.134C56.7851 156.147 56.8762 156.147 56.9217 156.141L56.9596 156.134L56.9824 156.127L57.0355 156.106C57.0658 156.092 57.1038 156.078 57.1341 156.058C57.3996 155.906 57.6045 155.484 57.6955 154.987C57.7941 154.482 57.8169 153.93 57.8017 153.384C57.7789 152.589 57.7183 151.733 57.5741 150.814Z" fill="black"/>
<path d="M45.6643 103.267C44.9208 103.855 44.3367 104.421 43.9195 104.926C43.4946 105.43 43.2367 105.872 43.1077 106.19C42.9712 106.508 42.9712 106.701 43.0471 106.743C43.2215 106.832 43.7146 106.342 44.7084 105.63C45.7022 104.912 47.2422 103.993 49.3133 103.088C51.3767 102.176 53.9408 101.257 56.8539 100.428C58.3105 100.013 59.8581 99.6264 61.4664 99.2948C61.8684 99.2119 62.2705 99.1359 62.6802 99.0599L63.2946 98.9563L63.9167 98.8596C64.7588 98.7421 65.6084 98.6385 66.4808 98.5556C69.9629 98.2239 73.3084 98.2447 76.3202 98.5141C79.3319 98.7836 82.0098 99.3086 84.225 99.889C86.4402 100.469 88.185 101.098 89.4064 101.526C90.6277 101.962 91.3333 102.183 91.4395 102.031C91.5381 101.886 91.0298 101.367 89.9298 100.649C88.8298 99.9304 87.1381 99.0116 84.885 98.1687C82.6395 97.3258 79.8326 96.5796 76.6388 96.1582C73.4526 95.7368 69.8871 95.64 66.1926 95.9924C65.2671 96.0822 64.3567 96.1928 63.4615 96.3309L62.7939 96.4415C62.5664 96.4829 62.3464 96.5175 62.1264 96.5658C61.6864 96.6487 61.254 96.7386 60.8291 96.8353C59.1298 97.2222 57.5291 97.6781 56.0271 98.1756C53.0229 99.1635 50.4133 100.31 48.3422 101.492C47.3029 102.086 46.4077 102.687 45.6643 103.267Z" fill="black"/>
<path d="M189.095 100.469C188.822 95.3291 188.245 90.2097 187.396 85.1248C185.696 74.9481 182.943 64.9026 179.134 55.1681C177.23 50.2974 175.053 45.5096 172.572 40.8392C170.357 36.6663 164.978 26.2685 164.06 26.5656C163.143 26.8626 160.199 28.127 159 28.7695C157.802 29.4051 156.497 30.2411 155.169 31.2843C153.842 32.3206 152.484 33.5711 151.164 35.0012C149.836 36.4314 148.539 38.0411 147.295 39.8098C144.807 43.3402 142.554 47.4717 140.604 51.9417C138.654 56.4117 137.183 60.7919 136.052 64.8197C134.922 68.8476 134.14 72.53 133.632 75.639C133.124 78.7479 132.904 81.2973 132.904 83.0729C132.904 83.4597 132.911 83.8052 132.934 84.1092C130.271 84.0539 127.601 84.0125 124.923 83.9779C121.737 83.9434 118.551 83.9157 115.349 83.9365C113.749 83.9434 112.148 83.9641 110.532 83.9986C108.924 84.0332 107.293 84.0954 105.7 84.1714C99.7067 84.4477 93.706 84.7932 87.7053 85.1731C87.6977 84.9037 87.6825 84.6204 87.6522 84.3026C87.5005 82.5063 87.0529 79.9501 86.2715 76.8411C85.4901 73.7321 84.375 70.0704 82.8805 66.0702C81.3784 62.0769 79.497 57.752 77.1225 53.3649C74.7481 48.9778 72.0853 44.9569 69.2405 41.5646C67.8218 39.8651 66.3501 38.3244 64.8708 36.9703C63.3915 35.6161 61.897 34.4554 60.4481 33.4951C58.9991 32.5348 57.5956 31.7817 56.306 31.2221C55.0239 30.6556 53.8632 30.2825 52.8998 30.0476C52.1412 29.8611 51.5039 29.7574 51.0108 29.7022C50.146 29.3429 49.0839 29.5156 48.4163 30.1996C48.295 30.3171 48.1963 30.4552 48.1129 30.5934C44.0998 37.3917 40.9136 44.5492 38.3646 51.8588C35.8384 59.1476 33.9343 66.6229 32.5991 74.1674C31.1956 82.1402 30.4219 90.2097 30.3536 98.2999C30.3156 102.342 30.4598 106.39 30.7936 110.432C30.9605 112.449 31.1805 114.467 31.4536 116.484C31.5901 117.493 31.7419 118.494 31.9012 119.496L32.1591 121.002L32.2956 121.748L32.3108 121.838C32.3108 121.852 32.3108 121.852 32.3108 121.859L32.3184 121.894L32.3487 122.08L32.4094 122.453C33.6308 130.371 34.9356 138.35 36.9156 146.233C37.9094 150.171 39.0625 154.096 40.4736 157.951C41.8846 161.806 43.5536 165.606 45.6094 169.26C47.6653 172.908 50.1081 176.418 53.0894 179.568C56.0632 182.719 59.5984 185.489 63.6191 187.562C65.6218 188.598 67.7384 189.462 69.9156 190.139C72.0929 190.816 74.3384 191.307 76.5991 191.624C77.1605 191.7 77.7294 191.769 78.306 191.832L78.5108 191.852L78.6701 191.866L78.7763 191.873L79.2012 191.901L80.0432 191.949C81.1736 192.004 82.3039 192.032 83.4343 192.025C85.7025 192.004 87.986 191.852 90.2543 191.5C92.4922 191.155 94.7074 190.609 96.8391 189.8C96.9453 189.952 97.0591 190.097 97.1805 190.236C97.6963 190.823 98.3336 191.313 99.0239 191.714C100.42 192.522 102.028 192.972 103.651 193.206C105.283 193.441 106.936 193.469 108.522 193.434C110.107 193.4 111.617 193.303 113.005 193.289C114.94 193.276 116.882 193.227 118.824 193.103C120.766 192.978 122.7 192.785 124.627 192.433C126.547 192.08 128.458 191.59 130.249 190.775C131.136 190.367 132.001 189.87 132.745 189.241C133.033 188.999 133.306 188.723 133.549 188.432C134.209 188.605 134.869 188.75 135.536 188.875C138.427 189.414 141.363 189.552 144.253 189.434C145.702 189.379 147.143 189.255 148.569 189.082C149.283 188.992 149.996 188.895 150.709 188.785L150.974 188.743L151.103 188.723L151.263 188.695L151.794 188.591C152.15 188.522 152.499 188.446 152.848 188.363C155.655 187.721 158.394 186.802 160.973 185.593C163.552 184.384 165.965 182.892 168.142 181.164C170.319 179.437 172.269 177.482 173.976 175.382C175.69 173.281 177.169 171.036 178.451 168.715C179.741 166.393 180.834 163.996 181.782 161.55C183.671 156.666 184.976 151.622 185.947 146.551C187.881 136.395 188.458 126.115 188.943 115.869C189.14 113.32 189.254 110.736 189.277 108.173C189.292 105.609 189.231 103.039 189.095 100.469ZM162.665 28.279C162.748 28.2375 162.824 28.196 162.907 28.1546C162.854 28.2306 162.801 28.3066 162.748 28.3826L162.505 28.3619C162.558 28.3342 162.611 28.3066 162.665 28.279ZM159.873 29.9371C160.806 29.3084 161.671 28.8109 162.414 28.4102C162.467 28.4862 162.52 28.5622 162.574 28.6451C162.263 29.1426 161.982 29.6469 161.724 30.1651C161.216 31.1737 160.783 32.2101 160.374 33.2464C160.351 33.1842 160.32 33.122 160.298 33.0529C159.956 32.0443 159.759 31.001 159.873 29.9371ZM157.711 31.5468C157.779 32.0374 158.007 32.521 158.067 32.9908C158.158 33.7024 158.333 34.4071 158.515 35.1049C158.689 35.8027 158.871 36.4866 158.978 37.1775C158.978 37.1844 158.985 37.1913 158.993 37.1982C158.955 37.3088 158.925 37.4193 158.887 37.5299C158.735 37.1775 158.583 36.8252 158.447 36.4728C158.09 35.6023 157.749 34.7456 157.468 33.8751C157.286 33.3017 157.134 32.7282 157.013 32.1341C157.248 31.9337 157.483 31.7334 157.711 31.5468ZM155.276 33.7507C155.276 33.9027 155.291 34.0547 155.314 34.1998C155.465 35.022 155.981 35.7681 156.186 36.5281C156.429 37.4124 156.687 38.2898 156.876 39.1742C157.074 40.0585 157.21 40.9497 157.172 41.8133C157.172 41.8824 157.339 41.9377 157.582 41.9722C157.483 42.3384 157.385 42.6977 157.294 43.0638C156.922 42.2071 156.543 41.3505 156.216 40.4799C155.458 38.4971 154.843 36.4935 154.638 34.4002C154.858 34.186 155.063 33.9649 155.276 33.7507ZM152.962 36.2932C152.749 37.7786 153.599 39.112 153.948 40.4247C154.555 42.7391 155.359 45.0052 155.829 47.3473C155.845 47.4371 156.004 47.4786 156.231 47.4855C155.989 48.5356 155.761 49.5927 155.541 50.6497C155.056 49.3025 154.547 47.9691 154.092 46.6219C153.091 43.6718 152.241 40.7217 151.885 37.6404C152.234 37.1775 152.598 36.7284 152.962 36.2932ZM149.449 41.0396C149.882 40.3763 150.322 39.7407 150.762 39.1258C149.753 41.7304 151.179 44.0863 151.748 46.3524C152.143 47.9207 152.583 49.4752 152.992 51.0297C153.197 51.8104 153.394 52.5911 153.569 53.3649C153.66 53.7518 153.736 54.1456 153.811 54.5325C153.887 54.9194 153.948 55.3132 153.986 55.6655C154.001 55.7968 154.206 55.8521 154.494 55.8866C154.221 57.3997 153.963 58.9196 153.72 60.4464C152.985 58.1734 152.211 55.9073 151.52 53.6205C150.375 49.8207 149.366 46.0139 148.736 42.1242C148.987 41.7581 149.214 41.3988 149.449 41.0396ZM147.303 44.5631C147.249 47.4855 148.486 50.3319 149.138 53.0264C150.231 57.5309 151.505 61.9871 152.499 66.5193C152.529 66.6644 152.658 66.768 152.833 66.8302C152.742 67.5694 152.651 68.3156 152.567 69.0618C152.416 68.585 152.256 68.1014 152.097 67.6247C151.247 65.0961 150.375 62.5744 149.601 60.025C148.88 57.6622 148.22 55.2925 147.674 52.9089C147.151 50.629 146.726 48.3284 146.506 46.0139C146.764 45.5165 147.029 45.0329 147.303 44.5631ZM145.323 48.2731C145.269 48.5633 145.231 48.8534 145.201 49.1436C145.095 50.3112 145.194 51.4719 145.391 52.6257C145.793 54.9263 146.627 57.1786 147.158 59.3272C148.395 64.3154 149.882 69.2345 151.08 74.2157C151.156 74.5128 151.551 74.651 151.998 74.651C151.892 75.936 151.801 77.2211 151.725 78.513C151.513 77.7807 151.3 77.0553 151.073 76.3298C150.132 73.3107 149.131 70.3123 148.198 67.2931C146.544 61.9664 145.011 56.6742 143.896 51.2508C144.359 50.2283 144.837 49.2403 145.323 48.2731ZM142.91 53.4893C142.652 57.9178 144.609 62.3118 145.702 66.4157L148.069 75.1899C148.843 78.1123 149.586 81.0486 150.147 83.9917C150.246 84.503 149.791 83.3423 149.594 82.7067C149.154 81.2973 148.721 79.8948 148.258 78.4992C147.371 75.8048 146.445 73.1241 145.626 70.4159C144.867 67.9011 144.154 65.3863 143.585 62.8507C143.297 61.5864 143.047 60.3083 142.857 59.0301C142.758 58.3945 142.683 57.752 142.622 57.1164C142.569 56.4808 142.531 55.8383 142.561 55.2441C142.561 55.175 142.364 55.1405 142.318 55.2165C142.174 55.4099 142.053 55.6172 141.939 55.8314C142.25 55.0507 142.576 54.27 142.91 53.4893ZM141.446 57.068C141.279 57.6415 141.173 58.2149 141.112 58.7952C140.991 60.0388 141.089 61.2824 141.302 62.5122C141.727 64.9717 142.599 67.3622 143.168 69.649C143.828 72.302 144.564 74.9273 145.285 77.5596C145.641 78.8723 145.998 80.1919 146.339 81.5046C146.589 82.4856 146.84 83.4667 147.06 84.4477C146.946 84.4408 146.832 84.4408 146.711 84.4339C147.007 83.7637 146.703 83.1696 146.506 82.5547C146.127 81.3733 145.755 80.2057 145.353 79.045C144.572 76.8065 143.745 74.5819 143.001 72.3365C142.311 70.2501 141.666 68.1705 141.112 66.0633C140.839 65.0132 140.589 63.9561 140.376 62.8922C140.24 62.222 140.126 61.5449 140.027 60.8679C140.475 59.6174 140.945 58.3462 141.446 57.068ZM138.503 65.4346C138.563 65.2343 138.632 65.0339 138.692 64.8405C138.738 65.1997 138.791 65.559 138.867 65.9113C139.276 67.9425 140.088 69.9046 140.596 71.7976C141.188 73.9947 141.833 76.1778 142.447 78.361C142.758 79.4526 143.054 80.5442 143.343 81.6427C143.57 82.5478 143.798 83.4528 143.98 84.351C143.972 84.351 143.957 84.351 143.949 84.351C143.767 84.3441 143.578 84.3441 143.396 84.3372C143.593 83.9019 143.373 83.5288 143.236 83.1281C142.948 82.2852 142.69 81.4355 142.394 80.5926C141.818 78.969 141.203 77.3523 140.657 75.7219C140.149 74.2088 139.686 72.6958 139.284 71.1689C139.079 70.4021 138.897 69.6352 138.73 68.8614L138.487 67.6869C138.404 67.2862 138.336 66.8993 138.222 66.464C138.222 66.4571 138.207 66.4502 138.191 66.4502C138.29 66.1117 138.396 65.7732 138.503 65.4346ZM136.978 70.5402C137 70.7613 137.031 70.9824 137.069 71.2035C137.334 72.6613 137.979 74.0707 138.328 75.4386C139.064 78.3818 139.936 81.2973 140.558 84.2681C140.118 84.2612 139.686 84.2474 139.246 84.2404C139.216 84.1575 139.178 84.0677 139.147 83.9779C138.973 83.4598 138.821 82.9278 138.639 82.4027C138.283 81.3871 137.888 80.3715 137.562 79.349C137.258 78.3956 136.985 77.4491 136.78 76.4887C136.568 75.5284 136.424 74.5543 136.333 73.5249C136.333 73.5041 136.242 73.5179 136.174 73.5387C136.416 72.5714 136.689 71.5766 136.978 70.5402ZM135.02 78.2229C135.134 78.5545 135.24 78.8861 135.301 79.2246C135.491 80.2126 135.711 81.2006 135.916 82.2023C135.961 82.4372 136.014 82.6721 136.06 82.914C135.923 82.6721 135.787 82.4303 135.673 82.1816C135.233 81.2489 134.929 80.3093 135.157 79.2661C135.157 79.2523 134.967 79.2799 134.922 79.3006C134.869 79.3283 134.816 79.349 134.763 79.3766C134.838 79.0036 134.929 78.6167 135.02 78.2229ZM133.837 83.8812C133.852 83.9572 133.867 84.0332 133.883 84.1161C133.852 84.1161 133.822 84.1161 133.791 84.1161C133.814 84.0401 133.822 83.9641 133.837 83.8812ZM86.7798 85.187C86.7798 85.1939 86.7874 85.2077 86.7874 85.2146C86.7798 85.2146 86.7798 85.2146 86.7722 85.2146C86.7798 85.2077 86.7798 85.1939 86.7798 85.187ZM84.5115 83.6256C84.6329 82.6031 84.777 81.5875 84.8908 80.5719C84.9287 80.2333 85.0122 79.8879 85.0956 79.5424C85.2246 79.9362 85.346 80.3162 85.4598 80.6893C85.4067 80.6686 85.3536 80.6479 85.2929 80.6202C85.2398 80.5995 85.0425 80.5857 85.0425 80.5995C85.3612 81.6427 85.1336 82.61 84.7618 83.5841C84.6632 83.8397 84.5494 84.0954 84.4281 84.351C84.4584 84.1092 84.4812 83.8674 84.5115 83.6256ZM82.395 72.5853C82.4177 72.3642 82.4329 72.1362 82.4329 71.9082C82.8198 72.9376 83.1839 73.9256 83.5177 74.879C83.4418 74.8652 83.3508 74.8583 83.3508 74.879C83.3508 75.9222 83.2825 76.9171 83.146 77.9051C83.0094 78.893 82.8122 79.8741 82.5846 80.8551C82.3343 81.9122 82.0156 82.9692 81.7425 84.0194C81.606 84.5375 81.4998 85.0626 81.3708 85.5738C80.9081 85.6084 80.4377 85.636 79.9749 85.6706C80.3618 82.7481 80.9763 79.8602 81.4618 76.9516C81.697 75.5422 82.2432 74.0776 82.395 72.5853ZM80.1039 67.3622C80.1494 66.996 80.1722 66.6368 80.1874 66.2706C80.2708 66.464 80.3543 66.6644 80.4377 66.8578C80.5743 67.1964 80.7108 67.528 80.8474 67.8527C80.8322 67.8527 80.817 67.8596 80.817 67.8734C80.7336 68.3225 80.6956 68.7232 80.6425 69.1308L80.4908 70.333C80.3846 71.1275 80.2632 71.9151 80.1191 72.7027C79.8384 74.2779 79.4894 75.8393 79.095 77.4007C78.6777 79.0865 78.177 80.7584 77.7294 82.4442C77.4943 83.3147 77.297 84.1921 77.077 85.0695C77.0087 85.3459 76.895 85.6084 76.9025 85.8847C76.7584 85.8917 76.6218 85.9055 76.4777 85.9124C76.5839 85.1386 76.7129 84.3579 76.8418 83.5772C77.0391 82.4511 77.2515 81.3249 77.4791 80.1988C77.9267 77.9465 78.397 75.7011 78.8218 73.435C79.1936 71.4937 79.8612 69.4487 80.1039 67.3622ZM78.4729 62.3395C78.4274 63.0303 78.3667 63.7212 78.2832 64.4121C78.1543 65.5037 77.9874 66.5884 77.7977 67.6662C77.4108 69.8286 76.9253 71.9842 76.3943 74.1397C75.8253 76.4611 75.1653 78.7687 74.5508 81.09C74.2322 82.2922 73.9591 83.5012 73.6708 84.7241C73.557 85.1939 73.3901 85.6568 73.4508 86.1335C73.4205 86.1335 73.3825 86.1404 73.3522 86.1404C73.4812 85.3113 73.6177 84.4823 73.7618 83.6532C73.997 82.2991 74.255 80.9449 74.5129 79.5908C75.0287 76.8825 75.5522 74.1743 76.0074 71.4453C76.3943 69.0963 77.0846 66.616 77.3122 64.1012C77.426 62.8438 77.4184 61.5795 77.1908 60.329C77.0846 59.7487 76.9253 59.1683 76.7053 58.6018C77.3274 59.8661 77.9191 61.1097 78.4729 62.3395ZM76.106 57.3858C75.977 57.1786 75.2032 63.2998 75.0136 64.5987C74.6418 67.2033 74.1336 69.7941 73.5646 72.3918C72.9501 75.183 72.2294 77.9603 71.5543 80.7446C71.1977 82.1885 70.8791 83.6394 70.5453 85.0902C70.4467 85.5186 70.3177 85.94 70.2722 86.3615C70.2115 86.3684 70.1508 86.3684 70.0901 86.3753C70.4163 83.3837 70.9246 80.3784 71.4632 77.3869L73.1474 68.3501C73.9136 64.1219 74.9605 59.0578 74.9074 55.0852C75.317 55.8521 75.7191 56.619 76.106 57.3858ZM72.1915 50.857C72.1384 50.5668 72.0777 50.2767 71.9943 49.9865C72.5708 50.933 73.1474 51.9002 73.7012 52.8951C73.026 58.4567 71.9032 63.9216 70.6591 69.4141C69.9612 72.53 69.1798 75.632 68.4743 78.7479C68.4591 78.8101 68.4439 78.8723 68.4363 78.9345C68.3301 78.2574 68.2163 77.5803 68.095 76.9033C68.1936 76.8273 68.2694 76.7305 68.2846 76.6131C69.0887 71.4937 70.1963 66.4157 71.0384 61.2893C71.4025 59.0785 72.0625 56.7502 72.2825 54.3943C72.3963 53.206 72.3963 52.0246 72.1915 50.857ZM69.6501 46.3663C69.9687 46.8292 70.2798 47.292 70.5908 47.7688C70.5605 50.1247 70.3253 52.4806 69.9839 54.8227C69.6274 57.2753 69.1494 59.7141 68.6108 62.1529C68.0418 64.7368 67.3743 67.3069 66.737 69.877C66.6005 69.2552 66.4639 68.6334 66.3274 68.0116C66.9494 63.666 67.8067 59.3756 68.4894 55.0437C68.9294 52.2802 69.9536 49.3163 69.6501 46.3663ZM65.2425 48.4873C65.637 46.1521 66.8963 43.6718 65.6446 41.1086C66.1529 41.7028 66.6536 42.3177 67.1543 42.9533C67.4198 43.2987 67.6929 43.6442 67.9584 44.0034C67.6474 47.9829 66.9343 51.8933 66.0846 55.8175C65.675 57.7175 65.2046 59.6105 64.7418 61.4966C64.4991 60.5777 64.2563 59.6588 64.006 58.74C63.9225 58.4291 63.8315 58.1251 63.7481 57.8142C63.7632 57.5171 63.7936 57.2062 63.8239 56.8953C63.8694 56.5015 63.915 56.1008 63.9756 55.7001C64.0894 54.8987 64.226 54.0972 64.3701 53.2958C64.6508 51.6999 64.9694 50.097 65.2425 48.4873ZM63.1563 38.4004C63.566 38.8149 63.9681 39.2433 64.3777 39.6854C64.2791 42.8289 63.657 45.8688 62.8832 48.9225C62.6177 49.9727 62.3218 51.0159 62.026 52.066C61.7605 51.2163 61.4798 50.3665 61.1991 49.5167C61.495 47.2091 62.0943 44.943 62.5039 42.6493C62.7391 41.2952 63.4977 39.8927 63.1563 38.4004ZM59.3784 41.5854C59.4998 40.6803 59.697 39.7752 59.8639 38.8633C60.0081 38.0757 60.4784 37.2881 60.5618 36.4452C60.577 36.2932 60.577 36.1412 60.5618 35.9892C60.797 36.1896 61.0322 36.3968 61.2674 36.6041C61.237 38.7389 60.7667 40.8047 60.1674 42.8635C59.9777 43.5129 59.7577 44.1623 59.5377 44.8118C59.4694 44.6252 59.4012 44.4387 59.3329 44.2452C59.3177 44.2107 59.3025 44.1762 59.295 44.1416C59.1963 43.3126 59.257 42.449 59.3784 41.5854ZM57.3605 37.5851C57.4818 36.8735 57.6032 36.1412 57.6412 35.4158C57.6639 34.9322 57.8536 34.4347 57.8839 33.9304C58.1343 34.1031 58.3922 34.2896 58.6577 34.4831C58.5818 35.0911 58.4756 35.6852 58.3391 36.2725C58.1267 37.1706 57.8536 38.0618 57.5577 38.9669C57.5046 39.1396 57.4439 39.3054 57.3908 39.4782C57.315 39.2985 57.2315 39.112 57.1481 38.9324C57.2087 38.4833 57.2846 38.0342 57.3605 37.5851ZM55.5322 32.4519C55.7218 33.4329 55.646 34.4071 55.426 35.3605C55.115 34.7732 54.7887 34.186 54.4322 33.5987C54.0756 33.0115 53.7039 32.4242 53.2639 31.837C53.0591 31.5606 52.8315 31.2774 52.5887 30.9941C53.4232 31.3603 54.4322 31.8301 55.5322 32.4519ZM129.52 188.066C128.193 188.619 126.691 189.158 125.12 189.566C123.406 190.008 121.6 190.305 119.772 190.526C117.944 190.747 116.093 190.892 114.234 191.009C111.139 191.203 108.067 191.348 105.025 191.016C103.507 190.851 101.998 190.56 100.564 190.049C99.8508 189.794 99.1529 189.49 98.508 189.11C98.508 189.11 98.5005 189.11 98.5005 189.103C100.071 188.384 101.565 187.514 102.931 186.498C104.759 185.144 106.345 183.534 107.649 181.772C108.962 180.018 110.001 178.118 110.82 176.176C111.64 174.228 112.254 172.231 112.725 170.221C113.172 168.286 113.491 166.331 113.718 164.383C113.817 164.818 113.916 165.253 114.022 165.682C114.652 168.273 115.456 170.836 116.533 173.323C117.61 175.81 118.983 178.221 120.758 180.391C122.526 182.567 124.726 184.481 127.26 185.925C128.352 186.553 129.498 187.085 130.674 187.534C130.325 187.721 129.93 187.894 129.52 188.066ZM112.565 140.264C112.216 139.159 111.86 138.053 111.496 136.941L109.918 132.174C109.402 130.585 108.894 128.989 108.476 127.407C108.271 126.619 108.082 125.825 107.945 125.058L107.831 124.422L107.733 123.821C107.665 123.42 107.612 123.027 107.566 122.633C107.483 121.873 107.429 121.12 107.46 120.422C107.467 120.187 107.49 119.959 107.513 119.752C107.566 119.814 107.619 119.876 107.672 119.945C107.885 120.208 108.082 120.505 108.271 120.816C109.03 122.073 109.576 123.538 109.963 125.03C110.35 126.529 110.57 128.07 110.631 129.631L110.638 129.756C110.669 130.53 111.389 131.138 112.239 131.103C112.998 131.075 113.605 130.557 113.711 129.894L114.105 127.338C114.394 125.541 114.712 123.759 115.145 122.046C115.365 121.189 115.615 120.346 115.949 119.579C116.116 119.199 116.305 118.833 116.51 118.57C116.609 118.439 116.715 118.342 116.768 118.308C116.776 118.301 116.783 118.301 116.783 118.294C116.814 118.336 116.836 118.377 116.867 118.432C116.95 118.605 117.018 118.826 117.071 119.061C117.178 119.531 117.223 120.035 117.254 120.546C117.299 121.576 117.254 122.619 117.178 123.669C117.003 125.763 116.677 127.856 116.199 129.922C116.078 130.44 115.949 130.951 115.805 131.462C115.66 131.974 115.494 132.485 115.334 132.996C115.016 134.019 114.682 135.048 114.34 136.07C113.87 137.466 113.377 138.862 112.846 140.264C112.808 140.264 112.77 140.257 112.732 140.257C112.679 140.257 112.618 140.257 112.565 140.264ZM186.508 113.327C186.478 113.962 186.432 114.591 186.387 115.227L186.349 115.752L186.326 116.235L186.28 117.202L186.083 121.058C185.947 123.628 185.795 126.191 185.598 128.747C185.211 133.86 184.665 138.951 183.807 143.974C182.95 148.997 181.797 153.957 180.136 158.738C178.474 163.512 176.297 168.114 173.338 172.217C171.867 174.262 170.198 176.176 168.324 177.896C166.458 179.617 164.387 181.13 162.149 182.401C159.911 183.672 157.514 184.688 155.025 185.455C153.781 185.835 152.507 186.159 151.225 186.422L150.739 186.519L150.678 186.533C150.678 186.533 150.648 186.539 150.64 186.539L150.542 186.553L150.291 186.595C149.965 186.643 149.639 186.691 149.313 186.74C148.653 186.83 148 186.913 147.34 186.982C144.716 187.258 142.083 187.355 139.504 187.168C137.615 187.03 135.756 186.74 133.974 186.263C133.928 186.242 133.875 186.215 133.829 186.201C133.716 186.159 133.602 186.139 133.48 186.125C133.003 185.987 132.525 185.835 132.054 185.669C129.71 184.84 127.548 183.631 125.697 182.111C123.838 180.591 122.291 178.774 121.032 176.798C119.765 174.822 118.771 172.701 117.967 170.525C117.163 168.349 116.556 166.117 116.055 163.872C115.16 159.795 114.659 155.685 114.257 151.608C114.234 148.216 114.12 144.845 114.098 141.508V141.494C114.098 141.349 114.067 141.204 114.014 141.072C114.75 139.933 115.418 138.717 116.032 137.445C116.495 136.478 116.92 135.483 117.322 134.461C117.519 133.949 117.716 133.431 117.898 132.906C117.989 132.644 118.08 132.395 118.179 132.098C118.27 131.815 118.361 131.531 118.437 131.248C119.074 128.996 119.469 126.695 119.674 124.339C119.772 123.158 119.818 121.97 119.765 120.74C119.734 120.118 119.681 119.496 119.545 118.812C119.469 118.467 119.385 118.114 119.203 117.693C119.112 117.486 118.998 117.258 118.801 116.995C118.703 116.864 118.581 116.733 118.422 116.594C118.263 116.456 118.065 116.318 117.823 116.215L117.762 116.187C117.724 116.166 117.678 116.152 117.64 116.139C117.383 116.056 117.072 116.007 116.76 116.014C116.449 116.021 116.154 116.083 115.903 116.18C115.403 116.373 115.099 116.629 114.864 116.85C114.629 117.078 114.469 117.299 114.325 117.513C114.181 117.728 114.067 117.928 113.969 118.128C113.567 118.923 113.324 119.669 113.104 120.408C112.785 121.493 112.543 122.543 112.315 123.565C111.936 122.198 111.42 120.857 110.676 119.572C110.449 119.178 110.198 118.791 109.903 118.418C109.614 118.045 109.288 117.672 108.878 117.334C108.674 117.161 108.438 117.002 108.158 116.857C107.877 116.719 107.543 116.588 107.126 116.567C106.716 116.532 106.231 116.664 105.905 116.885C105.571 117.106 105.358 117.368 105.199 117.617C104.888 118.121 104.767 118.591 104.668 119.054C104.577 119.517 104.532 119.966 104.509 120.408C104.471 121.292 104.516 122.156 104.6 123.006C104.645 123.434 104.698 123.856 104.759 124.277L104.858 124.906L104.956 125.521C105.1 126.377 105.283 127.206 105.495 128.029C105.92 129.673 106.451 131.283 107.043 132.872C107.634 134.454 108.287 136.015 109 137.549C109.629 138.903 110.312 140.236 111.063 141.542C110.957 141.743 110.919 141.964 110.942 142.178C111.245 145.128 111.488 148.099 111.776 151.076C111.791 153.025 111.784 154.973 111.723 156.914C111.647 159.464 111.48 162.013 111.162 164.528C110.843 167.05 110.365 169.544 109.637 171.976C108.909 174.401 107.923 176.757 106.572 178.912C105.229 181.068 103.5 183.009 101.414 184.577C99.3349 186.146 96.9074 187.327 94.3205 188.115C91.7336 188.916 89.0025 189.344 86.2487 189.517C84.8681 189.607 83.4798 189.628 82.0915 189.6C81.3936 189.586 80.7032 189.559 80.0053 189.524C79.6563 189.503 79.3074 189.483 78.9584 189.462L78.8901 189.455C78.8825 189.455 78.8598 189.455 78.8522 189.455L78.7308 189.441L78.4653 189.414L77.957 189.351C75.2184 189.027 72.5177 188.439 69.9308 187.562C67.3439 186.685 64.886 185.524 62.6101 184.108C60.3343 182.691 58.2405 181.026 56.3439 179.182C52.5508 175.485 49.577 171.119 47.1722 166.518C44.7674 161.909 42.9239 157.053 41.4143 152.113C39.9046 147.166 38.7287 142.136 37.7425 137.065C36.7487 131.994 35.9522 126.889 35.1784 121.769L35.1405 121.527L35.1177 121.389L35.095 121.272L35.0115 120.795L34.8522 119.849C34.746 119.213 34.6474 118.577 34.5487 117.942C34.3591 116.67 34.1922 115.399 34.0481 114.121C33.7598 111.565 33.5474 109.002 33.4184 106.439C33.1605 101.305 33.2136 96.1582 33.5398 91.0249C34.1998 80.7584 35.937 70.5472 38.7515 60.5984C40.1625 55.6241 41.8467 50.7119 43.8418 45.9103C45.7005 41.4334 47.8322 37.0532 50.2674 32.825C50.4267 33.0115 50.5784 33.198 50.7225 33.3984C51.0867 33.8889 51.4205 34.4071 51.7467 34.9391C52.3839 36.003 52.9605 37.1153 53.5067 38.2415C54.5915 40.4938 55.5474 42.8151 56.435 45.1572C58.2101 49.8414 59.7198 54.6085 61.0701 59.417C62.4129 64.2256 63.5812 69.0687 64.5598 73.9463C65.5308 78.8239 66.3198 83.7292 66.8129 88.6552V88.6621C66.8432 88.9799 67.1543 89.2148 67.5032 89.1872C79.7322 88.1785 91.9612 87.232 104.183 86.472C110.282 86.0437 116.396 85.9538 122.518 85.8917C128.633 85.8364 134.755 85.8433 140.862 85.8502C146.589 85.864 150.451 86.2785 151.786 86.1956C151.801 86.2785 153.28 73.5387 153.842 69.5177C154.479 64.9786 155.276 60.3704 156.231 55.7139C157.195 51.0574 158.31 46.3524 159.683 41.6613C160.374 39.3193 161.125 36.9703 162.012 34.6834C162.452 33.5435 162.93 32.4104 163.469 31.3327C163.598 31.0701 163.734 30.8145 163.871 30.5658C168.771 37.9029 172.853 45.9034 176.191 54.2769C179.863 63.5002 182.647 73.1863 184.445 83.1143C185.34 88.0748 185.992 93.0976 186.356 98.1479C186.72 103.184 186.796 108.262 186.508 113.327Z" fill="black"/>
<path d="M98.0831 119.773C97.9997 117.983 97.499 115.759 95.9666 113.423C95.2307 112.304 94.3734 111.268 93.3797 110.356C92.3859 109.444 91.2859 108.636 90.1252 107.931C87.8038 106.515 85.2548 105.471 82.6224 104.711C79.99 103.951 77.2741 103.475 74.5203 103.295C73.1472 103.205 71.7666 103.198 70.3859 103.288C68.9976 103.378 67.6397 103.592 66.2969 103.882C63.619 104.469 61.0548 105.368 58.6121 106.466C57.3907 107.019 56.1997 107.627 55.0466 108.29C54.47 108.622 53.901 108.967 53.3548 109.319C52.7935 109.679 52.2472 110.045 51.7162 110.418C51.1093 110.839 50.5176 111.275 49.9335 111.71C49.8045 111.786 49.6679 111.862 49.539 111.945L49.5693 111.993C49.2355 112.249 48.9017 112.498 48.5679 112.753C47.5438 113.555 46.5424 114.384 45.5866 115.261C44.57 116.194 43.8341 117.092 43.47 117.852C43.3183 118.163 43.2348 118.446 43.2121 118.674C42.6735 119.089 42.681 119.33 43.2576 119.227C43.6521 121.534 44.6686 123.98 46.3604 126.253C47.2404 127.441 48.3024 128.567 49.5086 129.583C50.7148 130.606 52.0652 131.511 53.5066 132.284C54.9403 133.058 56.4652 133.694 58.0052 134.212C59.5528 134.73 61.1155 135.124 62.6707 135.428L63.2472 135.538L63.5355 135.594L63.5735 135.601H63.581C63.5659 135.594 63.6341 135.614 63.5431 135.594L63.5583 135.601L63.6266 135.614L63.7783 135.649C64.1803 135.732 64.5748 135.801 64.9693 135.856C65.7583 135.974 66.5321 136.043 67.2983 136.091C68.8231 136.188 70.2948 136.181 71.6983 136.133C73.6631 136.07 75.6128 135.884 77.5472 135.608C79.4817 135.331 81.401 134.951 83.29 134.468C85.179 133.984 87.0452 133.397 88.8431 132.658C90.641 131.918 92.3934 131.041 93.979 129.908C94.7679 129.341 95.5114 128.706 96.1638 127.987C96.8162 127.269 97.37 126.453 97.7341 125.548C97.9162 125.099 98.0452 124.629 98.121 124.153C98.1362 124.035 98.1514 123.911 98.1666 123.793L98.1969 123.455C98.2121 123.227 98.2272 122.999 98.2348 122.778C98.2728 121.88 98.2424 120.975 98.1438 120.07C98.1134 119.98 98.0983 119.876 98.0831 119.773ZM69.2707 106.729C71.4555 106.494 73.6707 106.549 75.8479 106.86C76.1741 106.908 76.5003 106.957 76.8266 107.012C75.7341 106.936 74.6417 106.901 73.5493 106.901C72.3886 106.901 71.2203 106.922 70.0521 106.97C68.7321 107.026 67.3969 107.122 66.0769 107.274C67.1314 107.033 68.1935 106.846 69.2707 106.729ZM73.3369 113.264C72.7983 115.102 72.3052 116.947 71.8728 118.812C71.8576 116.919 71.8197 115.026 71.7438 113.133C72.2748 113.161 72.8059 113.202 73.3369 113.264ZM70.2797 113.064C69.9155 115.738 69.7259 118.453 69.6424 121.189C69.5969 120.878 69.5514 120.574 69.5135 120.263C69.3541 118.888 69.2783 117.5 69.3921 116.118C69.4528 115.427 69.559 114.743 69.7486 114.087C69.8548 113.734 69.9838 113.382 70.1583 113.057C70.2038 113.064 70.2417 113.064 70.2797 113.064ZM69.0203 113.05C68.9597 113.14 68.9066 113.23 68.8534 113.32C68.8079 113.396 68.7776 113.472 68.7321 113.548C68.7245 113.382 68.7169 113.216 68.7169 113.05C68.8231 113.05 68.9217 113.05 69.0203 113.05ZM62.8376 111.565C64.0969 111.385 65.3638 111.295 66.6307 111.275C66.3424 111.302 66.0466 111.323 65.7583 111.358C63.3762 111.613 60.9941 112.007 58.6576 112.574C58.2328 112.677 57.8155 112.781 57.3983 112.898C59.1583 112.27 60.9866 111.827 62.8376 111.565ZM53.8479 115.461C54.2576 115.337 54.6748 115.213 55.0921 115.095C54.6748 116.498 54.4928 118.032 54.5459 119.627C54.6217 121.686 55.0845 123.863 55.9872 125.949C56.0403 126.066 56.0935 126.177 56.1466 126.294C55.1224 124.692 54.3714 122.923 53.9541 121.085C53.5369 119.247 53.461 117.32 53.8479 115.461ZM45.8066 117.23C45.9355 117.113 46.0645 117.002 46.201 116.885L46.3604 117.016C46.1555 117.113 45.9431 117.202 45.7383 117.299C45.761 117.278 45.7838 117.258 45.8066 117.23ZM60.2583 133.093C58.7866 132.664 57.3528 132.146 55.9797 131.511C53.2259 130.246 50.7148 128.512 48.6666 126.357C46.6335 124.229 45.0783 121.714 43.9783 119.033C43.9859 119.026 43.9935 119.013 44.0086 119.006C44.0921 118.978 44.1755 118.943 44.259 118.909C45.2452 118.529 49.5921 117.175 50.3962 116.594C51.1321 116.332 51.8679 116.083 52.619 115.841C52.1259 117.189 51.9286 118.715 52.05 120.27C52.2169 122.536 53.021 124.857 54.3183 126.951C55.6079 129.044 57.3983 130.91 59.4617 132.312C60.0155 132.692 60.5845 133.031 61.1686 133.341C60.8652 133.265 60.5617 133.183 60.2583 133.093ZM75.6507 131.214C73.4431 132.45 70.8941 133.134 68.3224 132.996C67.7838 132.968 67.2528 132.913 66.7217 132.816C66.4562 132.768 66.1907 132.72 65.9328 132.658C65.7962 132.623 65.6824 132.595 65.5459 132.561L65.341 132.506L65.3183 132.499C65.3486 132.512 65.3259 132.499 65.3335 132.506H65.3259H65.3107L65.2652 132.492L65.1741 132.464C64.1652 132.146 63.2093 131.69 62.3445 131.096C60.6072 129.915 59.2645 128.222 58.3086 126.377C57.3528 124.526 56.7459 122.508 56.4045 120.45C56.101 118.605 56.0176 116.719 56.139 114.819C56.359 114.764 56.579 114.701 56.8066 114.646C59.0066 114.1 61.2597 113.686 63.5735 113.41C64.15 113.34 64.7341 113.278 65.3183 113.23L66.1983 113.154L66.4183 113.14L66.5245 113.133L66.5776 113.126H66.6079C66.6459 113.126 66.57 113.133 66.5852 113.126H66.6003L67.0555 113.106C67.1238 113.106 67.1921 113.099 67.2528 113.099C66.9114 115.012 67.0176 117.064 67.3134 119.137C67.5031 120.484 67.7762 121.838 68.0645 123.165C68.1328 123.552 68.2162 123.939 68.2997 124.325C68.3679 124.636 68.4514 124.954 68.5272 125.265C68.7321 126.184 68.9369 127.075 69.119 127.932C69.2631 128.602 69.4148 129.279 69.6424 129.97C69.7638 130.315 69.8776 130.668 70.1128 131.055C70.1734 131.151 70.2417 131.255 70.3403 131.359C70.439 131.462 70.5603 131.58 70.7576 131.683C70.9472 131.787 71.2583 131.849 71.5086 131.801C71.7666 131.759 71.9335 131.656 72.07 131.573L72.1155 131.545L72.1535 131.511C72.8134 130.889 73.3141 130.184 73.7162 129.452C74.1183 128.719 74.4293 127.96 74.6797 127.193C75.1803 125.659 75.4686 124.097 75.6355 122.536C75.8024 120.975 75.8403 119.413 75.7721 117.859C75.7266 116.809 75.6355 115.765 75.4914 114.729C75.4914 114.335 75.4838 113.948 75.4762 113.555C76.1741 113.665 76.8645 113.796 77.5548 113.955C78.7079 114.211 79.861 114.529 81.0066 114.888L81.219 114.957H81.2266L81.3024 114.985L81.7424 115.157L82.6224 115.503L84.3597 116.194C84.39 116.208 84.4128 116.214 84.4431 116.228C84.4507 116.27 84.4583 116.318 84.4659 116.36C84.5038 116.594 84.5417 116.836 84.5721 117.071C84.4659 118.19 84.261 119.303 83.9576 120.408C83.3886 122.446 82.4631 124.45 81.1735 126.253C79.7472 128.229 77.8583 129.977 75.6507 131.214ZM81.8259 128.823C81.5679 129.113 81.3024 129.397 81.0141 129.659C81.2948 129.39 81.5679 129.106 81.8259 128.823ZM95.8831 123.572C95.8452 124.167 95.6707 124.761 95.3672 125.341C95.0714 125.921 94.6465 126.481 94.1383 127.006C93.0307 128.153 91.559 129.127 89.981 129.949C88.3955 130.771 86.6886 131.448 84.9286 132.022C82.9107 132.678 80.8245 133.196 78.7079 133.597C79.0417 133.438 79.3679 133.279 79.6866 133.1C81.0293 132.354 82.2583 131.428 83.29 130.343C84.3293 129.265 85.1714 128.029 85.7783 126.716C86.3928 125.396 86.7645 124.001 86.9162 122.591C87.0603 121.182 86.9845 119.766 86.7114 118.391C86.6431 118.052 86.5672 117.714 86.4762 117.382C86.4762 117.278 86.4686 117.168 86.461 117.064C88.001 117.734 89.4728 118.46 90.8383 119.303C92.2645 120.173 94.3355 121.175 95.9362 122.315C95.9362 122.736 95.9134 123.151 95.8831 123.572Z" fill="black"/>
<path d="M177.114 112.062C177.069 111.841 176.955 111.579 176.773 111.289C176.325 110.591 175.514 109.789 174.429 108.981C173.405 108.221 172.343 107.516 171.258 106.832C170.909 106.611 170.56 106.404 170.203 106.19L170.226 106.142C170.09 106.079 169.953 106.017 169.816 105.955C169.194 105.589 168.572 105.223 167.943 104.87C167.381 104.559 166.812 104.248 166.228 103.958C165.659 103.668 165.06 103.385 164.468 103.115C163.277 102.583 162.056 102.107 160.812 101.685C158.316 100.842 155.729 100.214 153.074 99.9028C151.746 99.7439 150.396 99.6748 149.045 99.7094C147.695 99.7508 146.36 99.889 145.04 100.103C142.4 100.532 139.821 101.257 137.355 102.238C134.897 103.226 132.545 104.47 130.452 106.066C129.412 106.86 128.434 107.744 127.576 108.718C126.719 109.7 125.999 110.784 125.414 111.938C124.193 114.342 123.958 116.546 124.079 118.287C124.079 118.391 124.072 118.488 124.072 118.591C124.072 119.476 124.155 120.353 124.292 121.223C124.322 121.438 124.36 121.659 124.405 121.873L124.466 122.198C124.489 122.315 124.519 122.426 124.55 122.543C124.671 122.999 124.853 123.441 125.081 123.856C125.536 124.692 126.165 125.431 126.879 126.067C127.592 126.702 128.388 127.248 129.215 127.725C130.876 128.671 132.674 129.362 134.503 129.908C136.331 130.454 138.205 130.847 140.094 131.138C141.983 131.428 143.879 131.614 145.783 131.704C147.687 131.794 149.599 131.787 151.511 131.663C152.876 131.573 154.303 131.442 155.767 131.207C156.503 131.089 157.246 130.944 157.99 130.758C158.369 130.668 158.741 130.564 159.12 130.447L159.264 130.398L159.332 130.378L159.347 130.371C159.264 130.398 159.332 130.378 159.31 130.385H159.317L159.355 130.378L159.628 130.302L160.174 130.143C161.639 129.701 163.118 129.176 164.552 128.526C165.985 127.884 167.389 127.124 168.694 126.239C169.999 125.355 171.205 124.346 172.259 123.248C173.314 122.149 174.216 120.954 174.93 119.724C176.31 117.368 177.023 114.902 177.145 112.629C177.706 112.65 177.676 112.415 177.114 112.062ZM174.012 110.612C174.148 110.708 174.292 110.805 174.429 110.909C174.459 110.929 174.482 110.95 174.512 110.971C174.3 110.902 174.087 110.826 173.875 110.757L174.012 110.612ZM166.448 109.948C167.025 111.71 167.169 113.589 166.979 115.413C166.782 117.237 166.251 119.013 165.447 120.664C165.485 120.546 165.523 120.429 165.561 120.312C166.205 118.197 166.403 116.049 166.243 114.045C166.114 112.491 165.765 111.026 165.204 109.7C165.614 109.782 166.031 109.865 166.448 109.948ZM157.292 107.019C159.112 107.095 160.933 107.357 162.708 107.8C162.291 107.731 161.874 107.661 161.449 107.606C159.12 107.275 156.776 107.116 154.432 107.095C154.143 107.095 153.863 107.095 153.582 107.102C154.819 106.998 156.055 106.964 157.292 107.019ZM144.152 103.682C146.231 103.178 148.37 102.915 150.51 102.936C151.564 102.943 152.619 103.026 153.658 103.164C152.353 103.136 151.056 103.171 149.774 103.24C148.636 103.302 147.505 103.392 146.383 103.502C145.328 103.606 144.274 103.744 143.219 103.917C143.53 103.834 143.841 103.758 144.152 103.682ZM151.807 116.076C151.807 116.38 151.799 116.684 151.784 116.988C151.39 114.342 150.896 111.731 150.252 109.174C150.29 109.168 150.327 109.168 150.365 109.161C150.563 109.458 150.73 109.782 150.874 110.121C151.132 110.736 151.314 111.392 151.45 112.055C151.716 113.375 151.807 114.729 151.807 116.076ZM151.465 109.036C151.564 109.029 151.663 109.016 151.761 109.009C151.776 109.174 151.784 109.333 151.799 109.492C151.754 109.423 151.708 109.347 151.655 109.278C151.594 109.202 151.534 109.119 151.465 109.036ZM149.356 114.881C148.727 113.119 148.036 111.371 147.308 109.644C147.816 109.541 148.332 109.451 148.841 109.368C148.977 111.206 149.152 113.043 149.356 114.881ZM138.19 128.92C136.422 128.526 134.692 128.029 133.061 127.379C131.438 126.73 129.905 125.928 128.699 124.92C128.153 124.457 127.683 123.952 127.326 123.42C126.97 122.889 126.734 122.322 126.628 121.755C126.552 121.348 126.484 120.947 126.423 120.546C127.85 119.296 129.746 118.128 131.021 117.154C132.25 116.215 133.592 115.372 135.011 114.577C135.019 114.681 135.026 114.784 135.034 114.888C134.988 115.22 134.95 115.551 134.92 115.883C134.814 117.237 134.897 118.619 135.201 119.973C135.504 121.327 136.027 122.647 136.763 123.863C137.507 125.079 138.463 126.198 139.585 127.144C140.708 128.098 142.005 128.878 143.394 129.473C143.72 129.611 144.054 129.742 144.395 129.866C142.301 129.673 140.223 129.362 138.19 128.92ZM140.845 125.521C141.133 125.776 141.421 126.018 141.725 126.26C141.414 126.025 141.125 125.776 140.845 125.521ZM159.985 125.887C159.211 126.543 158.339 127.075 157.398 127.476L157.307 127.511L157.261 127.531L157.254 127.538H157.246C157.254 127.538 157.223 127.545 157.261 127.531L157.239 127.538L157.041 127.614C156.912 127.663 156.806 127.697 156.677 127.745C156.434 127.828 156.184 127.904 155.934 127.973C155.433 128.112 154.925 128.222 154.409 128.298C151.928 128.671 149.379 128.25 147.103 127.255C144.82 126.267 142.802 124.747 141.186 122.951C139.737 121.327 138.614 119.469 137.833 117.555C137.408 116.512 137.082 115.455 136.862 114.384C136.87 114.149 136.877 113.921 136.885 113.686C136.885 113.644 136.892 113.596 136.892 113.555C136.923 113.541 136.945 113.527 136.968 113.513L138.576 112.684L139.388 112.27L139.798 112.062L139.866 112.028L139.874 112.021L140.071 111.938C141.141 111.482 142.218 111.074 143.31 110.715C143.963 110.501 144.623 110.308 145.283 110.135C145.321 110.515 145.359 110.895 145.404 111.275C145.381 112.29 145.412 113.313 145.48 114.335C145.594 115.848 145.806 117.355 146.147 118.854C146.489 120.346 146.936 121.838 147.596 123.275C147.93 123.994 148.31 124.699 148.787 125.369C149.258 126.039 149.827 126.681 150.532 127.22L150.57 127.248L150.616 127.276C150.752 127.352 150.934 127.428 151.185 127.448C151.435 127.469 151.723 127.379 151.898 127.262C152.08 127.144 152.186 127.02 152.27 126.903C152.353 126.792 152.406 126.688 152.452 126.585C152.634 126.184 152.71 125.839 152.785 125.493C152.922 124.802 152.998 124.132 153.059 123.469C153.134 122.626 153.233 121.742 153.332 120.83C153.377 120.519 153.415 120.208 153.445 119.897C153.483 119.517 153.521 119.13 153.544 118.75C153.673 117.444 153.787 116.104 153.817 114.778C153.87 112.739 153.741 110.743 153.195 108.919C153.256 108.912 153.324 108.912 153.392 108.905L153.84 108.884H153.855C153.87 108.884 153.794 108.884 153.832 108.884H153.863H153.916H154.022L154.242 108.877L155.099 108.864C155.668 108.857 156.245 108.864 156.806 108.877C159.082 108.926 161.312 109.112 163.505 109.437C163.725 109.472 163.945 109.506 164.165 109.541C164.491 111.365 164.627 113.202 164.544 115.019C164.453 117.044 164.089 119.054 163.368 120.947C162.64 122.813 161.532 124.574 159.985 125.887ZM172.692 120.028C170.954 122.301 168.716 124.222 166.19 125.707C164.931 126.453 163.596 127.089 162.223 127.642C161.942 127.759 161.654 127.863 161.365 127.966C161.896 127.614 162.412 127.227 162.905 126.813C164.749 125.258 166.266 123.282 167.283 121.134C168.299 118.985 168.815 116.657 168.724 114.446C168.663 112.933 168.307 111.468 167.677 110.211C168.428 110.377 169.172 110.549 169.915 110.736C170.757 111.219 175.119 112.125 176.121 112.401C176.212 112.429 176.295 112.449 176.379 112.47C176.386 112.477 176.401 112.484 176.409 112.491C175.65 115.192 174.414 117.769 172.692 120.028Z" fill="black"/>
</g>
<defs>
<filter id="filter0_b_1854_421" x="-20" y="-20" width="260" height="260" filterUnits="userSpaceOnUse" color-interpolation-filters="sRGB">
<feFlood flood-opacity="0" result="BackgroundImageFix"/>
<feGaussianBlur in="BackgroundImage" stdDeviation="10"/>
<feComposite in2="SourceAlpha" operator="in" result="effect1_backgroundBlur_1854_421"/>
<feBlend mode="normal" in="SourceGraphic" in2="effect1_backgroundBlur_1854_421" result="shape"/>
</filter>
<clipPath id="clip0_1854_421">
<rect width="158.923" height="166.897" fill="white" transform="translate(30.3477 26.5518)"/>
</clipPath>
</defs>
</svg>
