<svg width="220" height="220" viewBox="0 0 220 220" fill="none" xmlns="http://www.w3.org/2000/svg">
<g filter="url(#filter0_b_1854_334)">
<rect width="220" height="220" fill="#B2C8CE"/>
</g>
<g clip-path="url(#clip0_1854_334)">
<path d="M52.4187 128.579C52.85 128.101 51.7231 125.036 49.8938 121.743C48.0713 118.451 46.2419 116.168 45.8107 116.645C45.3794 117.123 46.5063 120.188 48.3357 123.481C50.1581 126.781 51.9875 129.064 52.4187 128.579Z" fill="black"/>
<path d="M49.9364 131.734C50.1938 131.105 48.3157 128.829 45.7351 126.652C43.1545 124.474 40.8591 123.215 40.6017 123.845C40.3443 124.474 42.2224 126.75 44.803 128.928C47.3767 131.105 49.6791 132.364 49.9364 131.734Z" fill="black"/>
<path d="M42.7289 132.979C40.7256 132.281 39.0562 132.091 38.9936 132.561C38.938 133.032 40.51 133.98 42.5133 134.678C44.5166 135.376 46.186 135.566 46.2486 135.095C46.3042 134.625 44.7322 133.677 42.7289 132.979Z" fill="black"/>
<path d="M167.686 128.579C168.117 129.057 169.946 126.781 171.769 123.481C173.591 120.188 174.725 117.124 174.294 116.646C173.862 116.168 172.033 118.444 170.211 121.744C168.381 125.044 167.254 128.101 167.686 128.579Z" fill="black"/>
<path d="M179.507 123.845C179.249 123.215 176.954 124.474 174.373 126.652C171.793 128.829 169.915 131.105 170.172 131.734C170.429 132.364 172.725 131.105 175.305 128.928C177.879 126.75 179.764 124.474 179.507 123.845Z" fill="black"/>
<path d="M177.38 132.979C175.377 133.677 173.805 134.625 173.861 135.095C173.916 135.566 175.593 135.376 177.596 134.678C179.599 133.98 181.171 133.032 181.116 132.561C181.053 132.091 179.377 132.281 177.38 132.979Z" fill="black"/>
<path d="M67.8599 140.656C67.8738 140.17 67.8669 139.685 67.8321 139.184C67.7625 138.13 67.5539 137.068 67.22 136.112C66.8931 135.156 66.4548 134.314 65.9679 133.593C65.481 132.865 64.9524 132.258 64.4168 131.712C63.8742 131.173 63.3108 130.703 62.7543 130.286C62.0796 129.777 61.384 129.527 60.7093 129.398C59.3599 129.148 58.0731 129.345 56.8419 129.762C56.5358 129.868 56.2298 129.99 55.9237 130.141C55.6316 130.278 55.3394 130.437 55.0542 130.612C54.4769 130.953 53.9274 131.363 53.3987 131.826C52.3484 132.759 51.4024 133.927 50.6512 135.315C49.9 136.696 49.3365 138.297 49.0583 139.988C48.7731 141.672 48.7731 143.432 49.0235 145.063C49.1487 145.883 49.3365 146.664 49.5661 147.408C49.6843 147.779 49.8095 148.136 49.9417 148.492L50.046 148.743L50.1086 148.887L50.1643 149.016C50.2408 149.19 50.3173 149.357 50.4008 149.524C51.0546 150.844 51.9102 151.929 52.8353 152.718C53.7604 153.515 54.7621 154.023 55.7568 154.326C57.7531 154.918 59.7285 154.69 61.4953 153.947C63.2621 153.196 64.848 151.883 66.0375 150.131C66.6357 149.259 67.1226 148.272 67.4913 147.233C67.5399 147.104 67.5817 146.975 67.6234 146.839L67.686 146.634L67.7417 146.444C67.8182 146.171 67.8877 145.89 67.9434 145.61C68.0547 145.048 68.1173 144.472 68.1451 143.918C68.1938 142.795 68.0895 141.726 67.9016 140.747C67.8738 140.717 67.8599 140.686 67.8599 140.656ZM58.553 132.25C58.5321 132.281 58.5113 132.311 58.4904 132.341C58.4765 132.319 58.4626 132.288 58.4417 132.266C58.4765 132.258 58.5182 132.25 58.553 132.25ZM52.1397 137.007C52.2441 136.825 52.3484 136.65 52.4597 136.476C52.4736 136.612 52.4875 136.741 52.5014 136.878C52.6197 137.94 52.7658 138.987 52.9397 140.034C53.2874 142.135 53.7117 144.237 54.2056 146.376C54.3169 146.839 54.4282 147.301 54.5464 147.772C54.3795 147.362 54.2265 146.93 54.0874 146.497C53.7117 145.329 53.4196 144.123 53.1622 142.955C52.7101 140.868 52.3762 138.881 52.1119 137.052C52.1189 137.037 52.1328 137.022 52.1397 137.007ZM51.8198 148.106C51.7572 147.977 51.6946 147.84 51.6389 147.703L51.5624 147.514L51.4789 147.294C51.3746 147.006 51.2703 146.71 51.1868 146.406C51.0129 145.807 50.8738 145.177 50.7833 144.54C50.6025 143.258 50.6164 141.923 50.8529 140.626C50.9294 140.201 51.0338 139.783 51.152 139.374C51.159 139.472 51.1729 139.571 51.1798 139.662C51.2911 140.641 51.4233 141.543 51.5554 142.378C51.8198 144.039 52.0702 145.42 52.258 146.543C52.4458 147.666 52.5779 148.523 52.6614 149.107C52.6892 149.297 52.7101 149.456 52.731 149.585C52.3832 149.145 52.0841 148.652 51.8198 148.106ZM56.0976 152.066C55.2559 151.785 54.4421 151.33 53.7048 150.67C53.4126 150.404 53.1344 150.108 52.8701 149.782C52.891 149.63 52.9049 149.395 52.9049 149.069C52.9049 148.492 52.8562 147.643 52.7588 146.566C52.8144 146.786 52.877 146.998 52.9397 147.218C53.1344 147.87 53.35 148.523 53.6283 149.183C53.7674 149.509 53.9274 149.835 54.1152 150.161C54.303 150.48 54.5256 150.799 54.8108 151.064C54.8664 151.117 54.929 151.155 54.9916 151.186C55.242 151.292 55.4924 151.17 55.6594 150.928C55.875 151.36 56.1185 151.77 56.3897 152.157C56.2924 152.134 56.195 152.103 56.0976 152.066ZM58.0244 150.617C57.5235 150.078 57.0923 149.289 56.7514 148.424C56.7097 148.318 56.668 148.204 56.6262 148.098L56.5706 147.931L56.5567 147.893L56.5289 147.802C56.4593 147.559 56.3897 147.309 56.3202 147.059C56.2019 146.626 56.0906 146.194 55.9863 145.761C55.9167 144.525 55.7915 143.281 55.6316 142.014C55.6316 141.991 55.6246 141.976 55.6246 141.953C55.6803 142.166 55.7359 142.378 55.7985 142.59L56.0698 143.592L56.2019 144.085C56.2437 144.244 56.2854 144.411 56.3132 144.517C56.3202 144.548 56.3271 144.578 56.3341 144.601L56.3411 144.623L56.9393 146.755C57.1479 147.483 57.3705 148.212 57.614 148.955C57.8296 149.608 58.0661 150.26 58.3443 150.92C58.233 150.829 58.1287 150.73 58.0244 150.617ZM59.5964 147.597C59.3738 146.937 59.1651 146.247 58.9634 145.557L58.3652 143.47C58.3165 143.273 58.2748 143.121 58.233 142.962L58.0939 142.454L57.8157 141.468C57.6348 140.815 57.4609 140.163 57.294 139.518C56.9671 138.228 56.6749 136.931 56.4941 135.695C56.4037 135.088 56.355 134.473 56.3689 134.01C56.3689 133.904 56.3828 133.806 56.3897 133.73C56.3967 133.73 56.3967 133.73 56.4037 133.737C56.4523 133.752 56.5497 133.828 56.661 133.957C56.8836 134.223 57.1271 134.678 57.3427 135.179C57.6627 135.93 57.9409 136.772 58.1844 137.644C58.1983 137.735 58.2122 137.834 58.233 137.925C58.3096 138.357 58.4 138.79 58.4974 139.215C58.5461 139.427 58.5947 139.639 58.6573 139.859L58.7478 140.201C58.7756 140.292 58.8034 140.39 58.8382 140.504L59.0608 141.384C59.1164 141.665 59.1651 141.946 59.2208 142.219C59.4434 143.448 59.6312 144.692 59.7842 145.913C59.8607 146.528 59.9233 147.135 59.972 147.726C59.9929 148.022 60.0137 148.318 60.0207 148.583C60.0207 148.652 60.0276 148.712 60.0276 148.773C59.8746 148.394 59.7355 147.999 59.5964 147.597ZM65.634 141.779C65.5575 142.477 65.4323 143.205 65.3071 143.971C65.2445 142.765 65.1054 141.597 64.9315 140.443C64.695 138.941 64.389 137.47 63.9925 136.043C63.8464 135.505 63.6795 134.966 63.4986 134.435C64.2777 135.285 64.9385 136.286 65.321 137.432C65.7662 138.706 65.8288 140.163 65.634 141.779Z" fill="black"/>
<path d="M169.657 140.656C169.671 140.17 169.664 139.685 169.629 139.184C169.559 138.13 169.351 137.068 169.017 136.112C168.69 135.156 168.252 134.314 167.765 133.593C167.278 132.872 166.749 132.258 166.214 131.719C165.671 131.181 165.108 130.71 164.551 130.293C163.876 129.785 163.181 129.535 162.506 129.406C161.157 129.155 159.87 129.352 158.639 129.77C158.333 129.876 158.027 129.997 157.721 130.149C157.428 130.286 157.136 130.445 156.851 130.619C156.274 130.961 155.724 131.37 155.196 131.833C154.145 132.766 153.199 133.935 152.448 135.323C151.697 136.703 151.133 138.304 150.855 139.996C150.57 141.68 150.57 143.44 150.82 145.071C150.946 145.89 151.133 146.672 151.363 147.415C151.481 147.787 151.606 148.143 151.739 148.5L151.843 148.75L151.905 148.895L151.961 149.023C152.038 149.198 152.114 149.365 152.198 149.532C152.851 150.852 153.707 151.937 154.632 152.726C155.557 153.522 156.559 154.03 157.554 154.334C159.55 154.926 161.525 154.698 163.292 153.955C165.059 153.203 166.638 151.891 167.834 150.139C168.426 149.266 168.919 148.28 169.281 147.241C169.33 147.112 169.372 146.983 169.413 146.846L169.476 146.641L169.532 146.452C169.608 146.179 169.678 145.898 169.733 145.617C169.845 145.056 169.907 144.479 169.935 143.926C169.984 142.803 169.879 141.733 169.692 140.754C169.671 140.717 169.664 140.686 169.657 140.656ZM160.357 132.25C160.336 132.281 160.315 132.311 160.294 132.341C160.28 132.319 160.266 132.288 160.246 132.266C160.28 132.258 160.315 132.25 160.357 132.25ZM153.944 137.007C154.048 136.825 154.152 136.65 154.264 136.476C154.277 136.612 154.291 136.741 154.305 136.878C154.424 137.94 154.57 138.987 154.743 140.034C155.091 142.135 155.516 144.237 156.009 146.376C156.121 146.839 156.232 147.301 156.35 147.772C156.183 147.362 156.03 146.93 155.891 146.497C155.516 145.329 155.223 144.123 154.966 142.955C154.514 140.868 154.18 138.881 153.916 137.052C153.923 137.037 153.93 137.022 153.944 137.007ZM153.624 148.106C153.561 147.977 153.498 147.84 153.443 147.703L153.366 147.514L153.283 147.294C153.178 147.006 153.074 146.71 152.991 146.406C152.817 145.807 152.678 145.177 152.587 144.54C152.406 143.258 152.42 141.923 152.657 140.626C152.733 140.201 152.831 139.783 152.956 139.374C152.963 139.472 152.977 139.571 152.984 139.662C153.095 140.641 153.227 141.543 153.359 142.378C153.624 144.039 153.874 145.42 154.062 146.55C154.25 147.673 154.382 148.53 154.465 149.115C154.493 149.304 154.514 149.463 154.535 149.592C154.187 149.145 153.881 148.652 153.624 148.106ZM157.901 152.066C157.067 151.785 156.246 151.33 155.509 150.67C155.216 150.404 154.938 150.108 154.674 149.782C154.695 149.63 154.709 149.395 154.709 149.069C154.709 148.492 154.66 147.643 154.563 146.573C154.618 146.793 154.681 147.006 154.743 147.226C154.938 147.878 155.154 148.53 155.432 149.19C155.571 149.517 155.731 149.843 155.919 150.161C156.107 150.48 156.329 150.799 156.615 151.064C156.67 151.117 156.733 151.155 156.795 151.186C157.046 151.284 157.296 151.17 157.463 150.928C157.679 151.36 157.922 151.77 158.194 152.157C158.096 152.126 157.999 152.096 157.901 152.066ZM159.821 150.617C159.32 150.078 158.889 149.289 158.548 148.424C158.507 148.318 158.465 148.204 158.423 148.098L158.367 147.931L158.354 147.893L158.326 147.81C158.256 147.575 158.187 147.317 158.117 147.066C157.999 146.634 157.888 146.201 157.783 145.769C157.707 144.532 157.588 143.288 157.428 142.021C157.428 141.999 157.421 141.983 157.421 141.961C157.477 142.173 157.533 142.386 157.595 142.598L157.867 143.599L157.999 144.092C158.041 144.252 158.082 144.419 158.11 144.525C158.117 144.555 158.124 144.586 158.131 144.608L158.138 144.631L158.736 146.763C158.945 147.491 159.167 148.219 159.411 148.955C159.626 149.608 159.863 150.26 160.141 150.92C160.037 150.829 159.933 150.73 159.821 150.617ZM161.4 147.597C161.178 146.937 160.969 146.247 160.767 145.557L160.169 143.47C160.12 143.273 160.079 143.121 160.037 142.962L159.898 142.454L159.62 141.468C159.439 140.815 159.265 140.163 159.098 139.518C158.771 138.228 158.479 136.931 158.298 135.695C158.214 135.088 158.159 134.473 158.173 134.01C158.173 133.904 158.187 133.806 158.194 133.73C158.201 133.73 158.201 133.73 158.207 133.737C158.256 133.76 158.354 133.828 158.465 133.965C158.687 134.23 158.931 134.686 159.147 135.186C159.466 135.93 159.745 136.779 159.988 137.652C160.002 137.743 160.016 137.841 160.037 137.932C160.113 138.365 160.204 138.797 160.301 139.222C160.35 139.435 160.399 139.655 160.454 139.867L160.545 140.208C160.572 140.299 160.6 140.398 160.635 140.512L160.858 141.392C160.913 141.672 160.962 141.953 161.018 142.226C161.24 143.455 161.428 144.699 161.581 145.921C161.658 146.535 161.72 147.142 161.769 147.734C161.79 148.03 161.811 148.326 161.818 148.591C161.818 148.659 161.825 148.72 161.825 148.781C161.678 148.394 161.539 147.999 161.4 147.597ZM167.438 141.779C167.361 142.477 167.236 143.205 167.111 143.971C167.048 142.765 166.909 141.597 166.735 140.443C166.499 138.934 166.193 137.47 165.796 136.043C165.65 135.505 165.483 134.966 165.302 134.435C166.081 135.285 166.742 136.286 167.125 137.432C167.563 138.706 167.626 140.163 167.438 141.779Z" fill="black"/>
<path d="M101.159 145.094C101.034 145.488 100.937 145.989 100.895 146.535C100.867 146.862 100.86 147.188 100.874 147.514C100.874 147.628 100.867 147.742 100.867 147.855C100.867 148.295 100.909 148.773 100.992 149.183C101.034 149.403 101.097 149.593 101.166 149.744C101.208 149.926 101.264 150.086 101.326 150.222C101.34 150.253 101.347 150.275 101.361 150.306C101.368 150.313 101.375 150.328 101.382 150.344C101.431 150.442 101.479 150.526 101.542 150.594C101.618 150.677 101.695 150.715 101.778 150.715C101.806 150.723 101.827 150.723 101.855 150.731C102.119 150.731 102.37 150.427 102.571 149.919C102.773 149.418 102.919 148.705 102.968 147.886C103.017 147.066 102.926 146.202 102.773 145.595C102.697 145.284 102.606 145.026 102.509 144.806C102.425 144.601 102.321 144.434 102.21 144.32C102.203 144.305 102.196 144.29 102.182 144.275C102.064 144.085 101.924 144.002 101.792 143.994C101.646 143.979 101.493 144.131 101.375 144.388C101.291 144.586 101.215 144.828 101.159 145.094Z" fill="black"/>
<path d="M85.11 144.472C85.1031 144.457 85.0961 144.434 85.0822 144.419C84.9709 144.184 84.8388 144.055 84.7066 144.002C84.5605 143.941 84.4075 144.039 84.2823 144.252C84.1849 144.419 84.1014 144.631 84.0388 144.874C83.8997 145.223 83.7815 145.693 83.7258 146.217C83.691 146.535 83.6702 146.854 83.6632 147.18C83.6563 147.294 83.6493 147.408 83.6493 147.522C83.6354 147.962 83.6493 148.447 83.7258 148.887C83.7606 149.122 83.8162 149.327 83.8719 149.502C83.9136 149.699 83.9623 149.881 84.018 150.048C84.0249 150.071 84.0388 150.101 84.0458 150.124C84.0527 150.139 84.0597 150.162 84.0667 150.177C84.1084 150.291 84.1571 150.389 84.2127 150.48C84.2823 150.594 84.3658 150.655 84.4423 150.685C84.4701 150.7 84.491 150.715 84.5188 150.723C84.7761 150.814 85.0405 150.602 85.2561 150.169C85.4717 149.744 85.6526 149.084 85.7221 148.28C85.7987 147.484 85.743 146.588 85.6108 145.928C85.5482 145.595 85.4648 145.299 85.3813 145.048C85.3118 144.821 85.2144 144.616 85.11 144.472Z" fill="black"/>
<path d="M93.7391 144.472C93.7321 144.457 93.7252 144.434 93.7182 144.419C93.6069 144.184 93.4748 144.055 93.3426 144.002C93.1965 143.941 93.0435 144.039 92.9183 144.252C92.8209 144.419 92.7444 144.631 92.6748 144.874C92.5357 145.223 92.4175 145.693 92.3618 146.217C92.327 146.535 92.3062 146.854 92.2992 147.18C92.2923 147.294 92.2853 147.408 92.2853 147.522C92.2714 147.954 92.2923 148.447 92.3618 148.887C92.3966 149.122 92.4523 149.327 92.5079 149.502C92.5496 149.699 92.5983 149.881 92.654 150.048C92.6609 150.071 92.6748 150.101 92.6818 150.124C92.6888 150.146 92.6957 150.162 92.7027 150.177C92.7444 150.291 92.7931 150.389 92.8487 150.48C92.9183 150.594 92.9948 150.655 93.0783 150.685C93.1061 150.7 93.127 150.715 93.1548 150.723C93.4122 150.814 93.6765 150.602 93.8921 150.169C94.1077 149.744 94.2816 149.084 94.3582 148.28C94.4347 147.484 94.379 146.596 94.2469 145.936C94.1843 145.602 94.1008 145.306 94.0173 145.056C93.9339 144.821 93.8365 144.616 93.7391 144.472Z" fill="black"/>
<path d="M98.1423 154.076C98.0658 153.841 97.9684 153.644 97.871 153.492C97.8641 153.477 97.8571 153.454 97.8432 153.439C97.7319 153.204 97.5998 153.075 97.4676 153.022C97.3215 152.961 97.1685 153.059 97.0433 153.272C96.9459 153.439 96.8694 153.651 96.7998 153.894C96.6607 154.243 96.5425 154.713 96.4868 155.237C96.4521 155.555 96.4312 155.874 96.4242 156.2C96.4173 156.314 96.4103 156.428 96.4103 156.542C96.3964 156.982 96.4173 157.467 96.4868 157.907C96.5216 158.142 96.5773 158.347 96.6329 158.522C96.6746 158.719 96.7233 158.901 96.779 159.068C96.7859 159.098 96.7999 159.121 96.8068 159.144C96.8138 159.166 96.8207 159.182 96.8277 159.197C96.8694 159.311 96.9181 159.409 96.9737 159.5C97.0433 159.614 97.1268 159.675 97.2033 159.705C97.2311 159.72 97.252 159.735 97.2798 159.743C97.5372 159.834 97.8015 159.622 98.0171 159.189C98.2328 158.764 98.4066 158.104 98.4832 157.3C98.5597 156.504 98.504 155.616 98.3719 154.956C98.3093 154.622 98.2328 154.326 98.1423 154.076Z" fill="black"/>
<path d="M90.0125 153.492C90.0056 153.477 89.9986 153.454 89.9917 153.439C89.8804 153.204 89.7482 153.075 89.616 153.022C89.47 152.961 89.3169 153.059 89.1917 153.272C89.0944 153.439 89.0178 153.651 88.9483 153.894C88.8022 154.243 88.6909 154.713 88.6353 155.237C88.6005 155.555 88.5796 155.874 88.5727 156.2C88.5657 156.314 88.5588 156.428 88.5588 156.542C88.5448 156.982 88.5657 157.467 88.6353 157.907C88.67 158.142 88.7257 158.347 88.7813 158.522C88.8231 158.719 88.8718 158.901 88.9274 159.068C88.9344 159.098 88.9483 159.121 88.9552 159.144C88.9622 159.166 88.9691 159.182 88.9761 159.197C89.0178 159.311 89.0665 159.409 89.1222 159.5C89.1917 159.614 89.2752 159.675 89.3517 159.705C89.3795 159.72 89.4004 159.735 89.4282 159.743C89.6856 159.834 89.9499 159.622 90.1656 159.189C90.3812 158.764 90.562 158.104 90.6316 157.3C90.7081 156.504 90.6525 155.616 90.5203 154.956C90.4577 154.622 90.3742 154.326 90.2908 154.068C90.2073 153.841 90.1169 153.644 90.0125 153.492Z" fill="black"/>
<path d="M136.428 148.037C136.477 148.257 136.533 148.447 136.602 148.599C136.644 148.781 136.699 148.94 136.762 149.077C136.776 149.107 136.783 149.13 136.797 149.16C136.804 149.168 136.811 149.183 136.818 149.198C136.866 149.297 136.915 149.38 136.978 149.448C137.054 149.532 137.131 149.57 137.214 149.57C137.242 149.577 137.263 149.585 137.291 149.585C137.555 149.585 137.805 149.282 138.007 148.773C138.209 148.273 138.355 147.559 138.404 146.74C138.452 145.921 138.362 145.064 138.202 144.449C138.125 144.138 138.035 143.88 137.938 143.66C137.854 143.455 137.75 143.288 137.638 143.175C137.632 143.159 137.625 143.144 137.611 143.129C137.492 142.939 137.353 142.856 137.221 142.848C137.075 142.833 136.922 142.985 136.804 143.243C136.713 143.44 136.644 143.683 136.581 143.941C136.456 144.335 136.359 144.836 136.317 145.382C136.289 145.708 136.282 146.035 136.296 146.361C136.296 146.475 136.289 146.588 136.296 146.702C136.303 147.15 136.338 147.628 136.428 148.037Z" fill="black"/>
<path d="M119.083 146.376C119.069 146.808 119.083 147.302 119.159 147.742C119.194 147.977 119.25 148.182 119.305 148.356C119.347 148.553 119.389 148.735 119.452 148.902C119.459 148.933 119.465 148.955 119.479 148.978C119.486 148.993 119.493 149.016 119.5 149.031C119.542 149.145 119.591 149.244 119.646 149.335C119.716 149.448 119.799 149.509 119.876 149.54C119.904 149.555 119.925 149.57 119.952 149.577C120.21 149.668 120.474 149.456 120.69 149.024C120.905 148.599 121.086 147.939 121.156 147.135C121.232 146.338 121.177 145.443 121.044 144.783C120.982 144.449 120.898 144.153 120.815 143.903C120.738 143.675 120.641 143.471 120.537 143.319C120.53 143.304 120.523 143.281 120.516 143.266C120.405 143.031 120.272 142.902 120.14 142.848C119.994 142.788 119.841 142.886 119.716 143.099C119.618 143.266 119.535 143.478 119.472 143.721C119.326 144.07 119.215 144.54 119.159 145.064C119.125 145.382 119.104 145.701 119.097 146.027C119.097 146.141 119.09 146.255 119.083 146.376Z" fill="black"/>
<path d="M128.085 148.902C128.091 148.933 128.105 148.955 128.112 148.978C128.119 148.993 128.126 149.016 128.133 149.031C128.175 149.145 128.224 149.244 128.279 149.335C128.349 149.448 128.425 149.509 128.509 149.539C128.537 149.555 128.558 149.57 128.585 149.577C128.843 149.668 129.107 149.456 129.33 149.024C129.545 148.599 129.719 147.939 129.796 147.135C129.872 146.338 129.817 145.45 129.684 144.79C129.622 144.457 129.538 144.161 129.455 143.91C129.378 143.675 129.281 143.478 129.177 143.326C129.17 143.311 129.163 143.288 129.156 143.273C129.044 143.038 128.912 142.909 128.78 142.856C128.634 142.795 128.481 142.894 128.356 143.106C128.258 143.273 128.182 143.486 128.112 143.728C127.966 144.077 127.855 144.548 127.799 145.071C127.765 145.39 127.744 145.708 127.737 146.035C127.73 146.148 127.723 146.255 127.723 146.376C127.709 146.816 127.73 147.301 127.799 147.741C127.834 147.977 127.89 148.181 127.945 148.356C127.98 148.553 128.029 148.743 128.085 148.902Z" fill="black"/>
<path d="M132.217 157.922C132.224 157.945 132.238 157.975 132.245 157.998C132.252 158.021 132.259 158.036 132.266 158.051C132.308 158.165 132.356 158.264 132.412 158.355C132.482 158.468 132.558 158.529 132.642 158.56C132.669 158.575 132.69 158.59 132.718 158.597C132.976 158.688 133.24 158.476 133.462 158.044C133.678 157.619 133.859 156.959 133.928 156.162C134.005 155.366 133.956 154.478 133.817 153.811C133.755 153.477 133.671 153.181 133.588 152.931C133.511 152.695 133.414 152.498 133.309 152.346C133.302 152.331 133.295 152.308 133.289 152.293C133.177 152.058 133.045 151.929 132.913 151.876C132.767 151.815 132.614 151.914 132.489 152.126C132.391 152.293 132.308 152.506 132.245 152.748C132.106 153.097 131.988 153.568 131.932 154.091C131.897 154.41 131.877 154.728 131.87 155.055C131.863 155.168 131.856 155.282 131.856 155.396C131.842 155.836 131.863 156.322 131.932 156.762C131.967 156.997 132.023 157.202 132.078 157.376C132.113 157.573 132.162 157.763 132.217 157.922Z" fill="black"/>
<path d="M124.357 157.922C124.364 157.945 124.378 157.975 124.385 157.998C124.392 158.021 124.399 158.036 124.406 158.051C124.448 158.165 124.496 158.264 124.552 158.355C124.621 158.468 124.698 158.529 124.781 158.56C124.809 158.575 124.83 158.59 124.858 158.597C125.115 158.688 125.38 158.476 125.595 158.044C125.811 157.619 125.992 156.959 126.061 156.162C126.138 155.366 126.082 154.478 125.95 153.811C125.887 153.477 125.804 153.181 125.72 152.931C125.644 152.695 125.547 152.498 125.442 152.346C125.435 152.331 125.428 152.308 125.421 152.293C125.31 152.058 125.178 151.929 125.046 151.876C124.9 151.815 124.747 151.914 124.621 152.126C124.524 152.293 124.441 152.506 124.378 152.748C124.239 153.097 124.121 153.568 124.065 154.091C124.03 154.41 124.009 154.728 124.002 155.055C123.995 155.168 123.988 155.282 123.988 155.396C123.975 155.836 123.995 156.322 124.065 156.762C124.1 156.997 124.155 157.202 124.211 157.376C124.253 157.573 124.301 157.763 124.357 157.922Z" fill="black"/>
<path d="M193.812 152.354C193.812 152.346 193.821 152.346 193.812 152.354C193.812 152.346 193.812 152.354 193.812 152.354Z" fill="black"/>
<path d="M200.834 137.978C200.695 137.508 200.493 137.083 200.256 136.696C199.783 135.93 199.199 135.33 198.587 134.815C197.683 134.071 196.716 133.502 195.721 133.032C196.326 132.789 196.918 132.508 197.502 132.19C198.107 131.848 198.705 131.454 199.255 130.961C199.797 130.46 200.326 129.853 200.632 129.026C200.709 128.821 200.764 128.601 200.799 128.374C200.82 128.26 200.827 128.154 200.834 128.025C200.841 127.957 200.841 127.919 200.841 127.866C200.841 127.79 200.841 127.752 200.841 127.691C200.827 127.251 200.743 126.811 200.597 126.401C200.298 125.582 199.756 124.952 199.178 124.49C198.594 124.027 197.961 123.701 197.321 123.45C196.792 123.246 196.25 123.094 195.7 122.972C195.728 122.942 195.756 122.919 195.784 122.897C196.236 122.434 196.653 121.926 197.015 121.349C197.37 120.772 197.669 120.128 197.836 119.422C198.01 118.717 198.038 117.966 197.919 117.245C197.864 116.888 197.773 116.539 197.655 116.198C197.627 116.107 197.592 116.031 197.565 115.955C197.53 115.872 197.495 115.788 197.46 115.705C197.384 115.538 197.3 115.386 197.196 115.235C196.806 114.635 196.236 114.21 195.652 113.983C195.06 113.755 194.441 113.695 193.843 113.71C192.64 113.755 191.471 114.097 190.379 114.59C189.391 114.999 188.383 115.371 187.374 115.735L186.95 112.488C186.797 111.29 186.63 110.091 186.505 108.885C186.24 106.472 185.941 104.06 185.614 101.655C184.961 96.8456 184.175 92.0511 183.256 87.287C181.427 77.7587 179.069 68.3442 176.141 59.1346C175.41 56.8284 174.638 54.5525 173.866 52.2615C173.087 49.978 172.294 47.7022 171.473 45.4339C170.645 43.1656 169.804 40.9049 168.851 38.6822C168.614 38.1284 168.364 37.5746 168.1 37.0284C167.967 36.7553 167.828 36.4822 167.675 36.2166C167.522 35.9511 167.369 35.678 167.161 35.4201C167.049 35.2911 166.945 35.147 166.715 35.0256C166.681 35.0104 166.653 34.9953 166.611 34.9877L166.548 34.9725C166.535 34.9649 166.493 34.9649 166.465 34.9649C166.437 34.9649 166.395 34.9649 166.395 34.9649C166.375 34.9725 166.416 34.9573 166.333 34.9725L166.27 34.9877C166.187 35.0104 166.11 35.0484 166.034 35.0787C165.728 35.2228 165.484 35.4428 165.262 35.6628C164.823 36.118 164.49 36.6415 164.183 37.1649C163.571 38.227 163.091 39.3497 162.639 40.4877C162.194 41.6256 161.784 42.7787 161.401 43.9394C160.636 46.2684 159.961 48.6277 159.328 51.0097C158.062 55.7663 156.942 60.5835 155.906 65.4311C155.391 67.8359 155.148 69.5959 155.099 70.567C154.021 70.1042 149.354 69.3304 142.314 68.7539C138.273 68.4201 133.446 68.1546 128.097 68.0028C122.741 67.8511 116.849 67.8208 110.672 67.9194C98.3117 68.1242 87.1407 68.807 79.0719 69.5353C72.7838 70.1042 68.3808 70.7035 66.7531 71.1435C66.7949 70.9311 66.8018 70.5366 66.7601 69.9373C66.6766 68.678 66.3845 66.5387 65.7793 63.3828C65.2229 60.4546 64.6246 57.5339 63.9708 54.6132C63.317 51.6925 62.6144 48.7794 61.8075 45.8739C61.4041 44.4249 60.9659 42.9759 60.479 41.527C59.9851 40.078 59.4565 38.6366 58.7609 37.1877C58.4061 36.4594 58.0166 35.7311 57.4532 34.9877C57.161 34.6159 56.8272 34.229 56.3263 33.8725C56.2011 33.7815 56.062 33.698 55.909 33.6222C55.8325 33.5842 55.749 33.5463 55.6655 33.5159C55.6308 33.5008 55.5612 33.478 55.5056 33.4628L55.4221 33.4401C55.4638 33.4477 55.2134 33.387 55.1578 33.387C55.0256 33.3794 54.9352 33.3794 54.8447 33.3794C54.7543 33.387 54.6639 33.3946 54.5943 33.4097C54.5248 33.4249 54.4413 33.4477 54.3787 33.4704C54.3231 33.4932 54.2605 33.5159 54.2048 33.5387C54.1492 33.5615 54.1144 33.5842 54.0657 33.607C53.9683 33.6601 53.9127 33.698 53.8431 33.7511C53.5927 33.9332 53.4675 34.0773 53.3492 34.2063C53.1267 34.4642 52.9875 34.669 52.8554 34.8663C52.7302 35.0635 52.6189 35.2532 52.5145 35.4353C52.3059 35.7994 52.125 36.1559 51.9511 36.5049C51.6033 37.2104 51.2903 37.9008 50.9912 38.5911C49.7948 41.3601 48.7375 44.1442 47.7011 46.9359C46.6716 49.7277 45.6839 52.5497 44.7101 55.3642C42.7555 61.0463 41.0235 66.8497 39.5071 72.7366C36.4813 84.518 34.3389 96.6408 33.0243 108.885L32.9895 109.204C32.9756 109.363 32.9686 109.484 32.9617 109.606C32.9478 109.841 32.9408 110.046 32.9339 110.243L32.8991 111.388C32.8782 112.041 32.8504 112.678 32.8087 113.262C32.8017 113.255 32.7948 113.255 32.7878 113.247C32.6417 113.148 32.4817 113.035 32.3009 112.921C32.2105 112.86 32.1131 112.799 32.0018 112.739L31.8348 112.648L31.7444 112.602L31.6331 112.549L31.4662 112.473L31.3271 112.412L31.0558 112.306C30.8749 112.238 30.6871 112.17 30.5063 112.109C30.1376 111.988 29.762 111.881 29.3794 111.798C28.6143 111.631 27.8074 111.525 26.924 111.586C26.4858 111.616 26.0267 111.692 25.5537 111.836C25.0807 111.98 24.5869 112.208 24.1139 112.541C23.6409 112.875 23.1957 113.33 22.834 113.846C22.7436 113.975 22.6601 114.112 22.5836 114.248C22.5419 114.317 22.5071 114.385 22.4723 114.453C22.4375 114.521 22.3888 114.612 22.354 114.696L22.2845 114.848L22.2497 114.924L22.2288 114.977L22.1871 115.083C22.1315 115.219 22.0828 115.371 22.0341 115.515C21.8463 116.107 21.728 116.775 21.7141 117.442C21.7002 118.11 21.7906 118.77 21.9506 119.361C22.2775 120.552 22.827 121.463 23.4044 122.214C23.5783 122.434 23.7522 122.639 23.933 122.836C23.8496 122.866 23.7661 122.897 23.6896 122.935C22.9801 123.23 22.2636 123.602 21.5402 124.156C21.1785 124.437 20.8238 124.763 20.4829 125.157C20.1421 125.559 19.8221 126.037 19.5648 126.591C19.3074 127.145 19.1265 127.775 19.0431 128.397C19.0222 128.556 19.0083 128.708 18.9944 128.867C18.9874 128.943 18.9874 129.034 18.9805 129.125V129.292V129.398V129.474C18.9805 129.527 18.9805 129.58 18.9874 129.633C18.9944 129.739 19.0013 129.838 19.0152 129.944C19.0431 130.149 19.0779 130.354 19.1265 130.544C19.3283 131.325 19.6761 131.939 20.0308 132.402C20.3855 132.872 20.7542 133.214 21.1159 133.502C21.8393 134.079 22.5419 134.45 23.2374 134.761C23.4531 134.852 23.6687 134.944 23.8843 135.019C23.5087 135.414 23.1401 135.854 22.8062 136.355C22.3471 137.037 21.9437 137.864 21.7002 138.805C21.4567 139.746 21.4011 140.792 21.5333 141.741C21.5959 142.204 21.7002 142.681 21.8602 143.159C22.0202 143.637 22.2428 144.108 22.521 144.54C22.7992 144.972 23.1401 145.359 23.5087 145.67C23.8774 145.981 24.2599 146.224 24.6495 146.406C24.8373 146.49 25.0251 146.566 25.2059 146.626C25.0668 146.869 24.9277 147.119 24.7955 147.385C24.4338 148.136 24.1069 148.993 23.9678 150.017C23.8982 150.526 23.8843 151.072 23.94 151.626C23.9956 152.179 24.1278 152.726 24.3225 153.226C24.3712 153.355 24.4199 153.477 24.4756 153.59C24.5034 153.651 24.5312 153.712 24.559 153.765L24.6008 153.848L24.6564 153.947L24.7121 154.046L24.7469 154.099L24.7747 154.152L24.8442 154.266C24.9208 154.395 25.0042 154.516 25.1016 154.63C25.4633 155.1 25.9085 155.472 26.3606 155.722C26.8127 155.972 27.2579 156.117 27.6822 156.192C28.1065 156.268 28.51 156.291 28.8925 156.276C29.6577 156.246 30.3533 156.086 31.0071 155.881C31.6679 155.677 32.287 155.411 32.8852 155.108C34.0538 154.524 35.1319 153.795 36.1544 152.961C36.1544 152.976 36.1544 152.991 36.1544 153.006C36.2796 154.531 36.4953 156.048 36.8222 157.558C37.1491 159.068 37.5943 160.562 38.2133 162.004C38.5194 162.724 38.8672 163.422 39.2776 164.113L39.5628 164.575L39.841 165.023C40.0288 165.319 40.2166 165.622 40.4183 165.918C41.1974 167.109 42.046 168.277 43.0129 169.37C43.2563 169.643 43.4928 169.901 43.7641 170.174C44.0145 170.424 44.2649 170.667 44.5223 170.902C45.0301 171.372 45.5518 171.828 46.0874 172.26C48.2158 173.982 50.4904 175.37 52.8067 176.554C55.1299 177.73 57.481 178.701 59.8529 179.566C62.2318 180.43 64.6316 181.189 67.0453 181.841C71.8796 183.146 76.7626 184.064 81.6595 184.739C84.1079 185.073 86.5564 185.346 89.0048 185.581C90.2291 185.695 91.4533 185.801 92.6775 185.9L94.5139 186.037L95.432 186.097L96.3711 186.15C98.8474 186.264 101.289 186.295 103.737 186.317C106.186 186.34 108.627 186.34 111.069 186.325C113.51 186.31 115.952 186.279 118.4 186.234C119.624 186.211 120.842 186.181 122.073 186.135C123.297 186.09 124.521 186.044 125.773 185.961C130.663 185.574 135.539 185.081 140.408 184.337C145.284 183.594 150.126 182.6 154.891 181.219C157.276 180.529 159.634 179.74 161.965 178.845C164.288 177.942 166.597 176.948 168.851 175.742C171.098 174.544 173.289 173.132 175.32 171.41C175.828 170.978 176.321 170.53 176.808 170.06C177.045 169.832 177.295 169.582 177.532 169.324C177.768 169.074 177.998 168.808 178.22 168.543C179.111 167.481 179.904 166.343 180.641 165.182C180.829 164.894 181.01 164.598 181.184 164.31L181.448 163.87C181.538 163.71 181.636 163.551 181.726 163.392C182.081 162.747 182.394 162.079 182.672 161.397C183.222 160.031 183.618 158.605 183.91 157.171C184.202 155.737 184.39 154.281 184.495 152.832C184.529 152.384 184.55 151.929 184.564 151.474C184.863 151.8 185.176 152.111 185.496 152.399C186.512 153.31 187.625 154.061 188.814 154.615C189.412 154.888 190.024 155.115 190.664 155.275C191.304 155.434 191.965 155.525 192.654 155.502C193.335 155.472 194.073 155.328 194.775 154.842C195.123 154.599 195.45 154.25 195.693 153.826C195.721 153.772 195.749 153.719 195.777 153.666C195.805 153.613 195.833 153.56 195.86 153.492C195.895 153.416 195.888 153.424 195.923 153.34L195.972 153.204C196.034 153.021 196.097 152.847 196.152 152.657C196.382 151.921 196.528 151.125 196.549 150.298C196.57 149.479 196.445 148.637 196.187 147.87C195.93 147.104 195.554 146.421 195.13 145.822C194.824 145.397 194.49 145.018 194.142 144.669C194.817 144.692 195.492 144.677 196.18 144.586C196.925 144.487 197.683 144.305 198.42 143.941C198.789 143.759 199.15 143.531 199.484 143.243C199.818 142.955 200.124 142.59 200.368 142.181C200.611 141.771 200.792 141.301 200.903 140.83C201.015 140.36 201.063 139.875 201.07 139.404C201.042 138.957 200.973 138.441 200.834 137.978ZM198.448 127.858V127.873C198.448 127.881 198.448 127.873 198.448 127.873V127.858C198.448 127.85 198.448 127.85 198.448 127.843V127.858ZM198.455 127.835C198.455 127.843 198.455 127.843 198.455 127.835C198.455 127.843 198.455 127.835 198.455 127.835ZM166.674 36.907C166.681 36.907 166.681 36.907 166.681 36.907C166.674 36.907 166.667 36.907 166.646 36.9146C166.66 36.907 166.667 36.907 166.674 36.907ZM33.9077 115.538C33.9286 115.546 33.9355 115.568 33.9286 115.591V115.652C33.8938 115.591 33.866 115.546 33.8451 115.492C33.866 115.515 33.8868 115.523 33.9077 115.538ZM198.712 139.48C198.705 139.73 198.677 139.981 198.629 140.178C198.58 140.375 198.511 140.542 198.413 140.701C198.232 141.005 197.905 141.286 197.446 141.506C196.987 141.726 196.424 141.87 195.826 141.946C195.227 142.021 194.594 142.037 193.954 142.006C192.675 141.938 191.353 141.703 190.08 141.346C189.44 141.172 188.807 140.959 188.223 140.717C188.077 140.656 187.938 140.595 187.805 140.527C187.68 140.466 187.555 140.398 187.479 140.345C187.444 140.322 187.416 140.299 187.437 140.322C187.451 140.337 187.479 140.352 187.555 140.459C187.597 140.512 187.652 140.588 187.729 140.747C187.743 140.777 187.757 140.808 187.771 140.846C187.541 140.747 187.312 140.648 187.089 140.55L187.075 140.542C186.985 140.504 186.894 140.489 186.804 140.489C186.693 140.497 186.574 140.497 186.421 140.535C186.345 140.557 186.254 140.572 186.115 140.648C186.046 140.686 185.955 140.739 185.844 140.876C185.788 140.944 185.726 141.043 185.677 141.164C185.628 141.286 185.607 141.43 185.607 141.559C185.614 141.817 185.684 141.968 185.733 142.067C185.781 142.166 185.83 142.226 185.865 142.279C185.941 142.378 186.004 142.431 186.067 142.484C186.185 142.583 186.282 142.651 186.38 142.712C186.623 142.864 186.859 142.985 187.089 143.091C187.082 143.099 187.075 143.099 187.068 143.106C186.992 143.144 186.936 143.159 186.908 143.175C186.88 143.182 186.866 143.19 186.853 143.19L186.268 143.068C186.873 143.334 187.416 143.554 187.965 143.804C188.508 144.047 189.037 144.297 189.551 144.57C190.574 145.117 191.548 145.739 192.362 146.482C193.175 147.218 193.808 148.083 194.087 148.986C194.226 149.433 194.288 149.904 194.267 150.397C194.247 150.89 194.149 151.406 193.982 151.929C193.961 151.997 193.941 152.058 193.913 152.126L193.85 152.293L193.822 152.354C193.822 152.361 193.822 152.361 193.822 152.361L193.815 152.377C193.808 152.399 193.794 152.415 193.788 152.43C193.739 152.498 193.676 152.574 193.558 152.65C193.328 152.801 192.918 152.908 192.466 152.915C192.014 152.923 191.52 152.855 191.026 152.726C190.532 152.597 190.031 152.407 189.544 152.179C187.597 151.254 185.816 149.684 184.655 147.711C184.251 147.021 183.444 146.846 182.86 147.324C182.477 147.635 182.283 148.151 182.303 148.659V148.667L182.317 149.001L182.331 149.357C182.338 149.6 182.338 149.843 182.338 150.086C182.338 150.571 182.331 151.057 182.31 151.55C182.269 152.521 182.192 153.492 182.074 154.448C181.83 156.359 181.427 158.226 180.794 159.925C180.474 160.775 180.105 161.586 179.667 162.322C179.194 163.119 178.7 163.915 178.186 164.666C177.678 165.417 177.142 166.138 176.586 166.798C176.308 167.132 176.015 167.45 175.723 167.746C175.417 168.057 175.111 168.353 174.791 168.649C172.238 170.986 169.331 172.761 166.347 174.21C164.851 174.938 163.335 175.583 161.798 176.182C160.274 176.781 158.737 177.328 157.2 177.821C151.865 179.543 146.397 180.726 140.881 181.584C138.127 182.008 135.352 182.357 132.576 182.646C131.185 182.79 129.794 182.919 128.403 183.04L126.316 183.207L125.28 183.283L124.243 183.336C121.461 183.457 118.665 183.503 115.868 183.541C113.072 183.571 110.269 183.579 107.466 183.571C104.662 183.556 101.866 183.533 99.0699 183.457C98.3744 183.435 97.6718 183.412 96.9762 183.381L95.9398 183.328L94.8964 183.252C93.4983 183.146 92.1071 183.033 90.709 182.911C85.1304 182.403 79.5727 181.69 74.0707 180.567C68.5756 179.444 63.1361 177.897 57.8914 175.735C55.2691 174.65 52.7023 173.406 50.3026 171.85C49.0992 171.069 47.9376 170.212 46.8455 169.256C46.303 168.786 45.7535 168.277 45.2596 167.761C44.7657 167.238 44.2927 166.677 43.8337 166.085C43.3815 165.493 42.9503 164.871 42.526 164.234C42.3173 163.915 42.1086 163.589 41.9069 163.263C41.7052 162.937 41.4895 162.595 41.3157 162.292C40.5853 161.017 40.0427 159.576 39.6393 158.074C39.2359 156.564 38.9715 154.994 38.8116 153.408C38.735 152.612 38.6794 151.815 38.6516 151.011C38.6446 150.867 38.6446 150.723 38.6446 150.586C38.8116 150.389 38.9715 150.192 39.1315 149.995L38.6377 149.744C38.6377 149.372 38.6446 148.986 38.6655 148.652V148.644C38.6933 148.098 38.3386 147.628 37.8725 147.59C37.6082 147.575 37.3647 147.696 37.2048 147.908C36.9961 148.174 36.7735 148.432 36.5509 148.682L36.0501 148.424L36.0362 148.75L36.0292 149.046V149.236C35.6188 149.653 35.1806 150.048 34.7354 150.419C33.8312 151.163 32.8713 151.808 31.8696 152.308C30.8749 152.801 29.8177 153.173 28.8299 153.219C28.343 153.241 27.87 153.158 27.5222 152.961C27.3483 152.862 27.2023 152.741 27.091 152.589C27.0284 152.513 26.9866 152.437 26.9171 152.308C26.8684 152.217 26.8127 152.096 26.771 151.99C26.5971 151.55 26.5554 151.072 26.6249 150.556C26.6945 150.048 26.8823 149.509 27.1327 148.993C27.5014 148.25 27.9952 147.544 28.5517 146.892C28.6839 146.869 28.823 146.854 28.9551 146.831C30.2559 146.588 31.4592 146.126 32.6139 145.511C33.1912 145.2 33.7547 144.844 34.3042 144.434C34.8537 144.017 35.3962 143.546 35.911 142.947L35.9179 142.939C36.6483 142.097 36.6622 140.717 35.9457 139.852C35.5214 139.344 34.9232 139.131 34.3668 139.215C34.0816 139.26 33.8729 139.328 33.6712 139.389C33.4764 139.457 33.2956 139.526 33.1286 139.601C32.7878 139.753 32.4817 139.912 32.1826 140.079C31.5844 140.413 31.0349 140.777 30.4924 141.164C29.4142 141.938 28.4056 142.81 27.4457 143.804C27.1257 143.812 26.8197 143.797 26.5206 143.744C26.0198 143.66 25.5607 143.478 25.199 143.19C24.8373 142.901 24.5799 142.515 24.413 142.021C24.253 141.528 24.1834 140.937 24.2321 140.406C24.3225 139.328 24.9138 138.312 25.7207 137.485C26.2771 136.916 26.9171 136.423 27.5987 135.998C28.9204 136.18 30.242 136.248 31.6053 136.135C32.3148 136.074 33.0382 135.968 33.7825 135.77C34.5268 135.566 35.2989 135.3 36.1196 134.739L36.1266 134.731C37.0587 134.101 37.3786 132.706 36.8431 131.613C36.5022 130.915 35.8831 130.513 35.2502 130.468C34.3807 130.422 33.6503 130.506 32.913 130.627C31.6818 130.839 30.5063 131.181 29.3516 131.628C28.6213 131.917 27.9048 132.243 27.1953 132.63C26.1867 132.44 25.1851 132.159 24.253 131.742C23.7035 131.499 23.1679 131.204 22.7227 130.839C22.2775 130.483 21.9297 130.043 21.8393 129.656C21.8184 129.565 21.8045 129.459 21.8045 129.375C21.8045 129.33 21.8045 129.269 21.8045 129.254C21.8045 129.224 21.8045 129.193 21.8115 129.163C21.8184 129.095 21.8254 129.026 21.8324 128.958C21.8671 128.692 21.9437 128.442 22.0549 128.199C22.2775 127.721 22.6531 127.297 23.1122 126.948C23.5713 126.599 24.1069 126.318 24.6564 126.083C25.2129 125.855 25.7972 125.673 26.3954 125.529C26.6528 125.468 26.9171 125.408 27.1744 125.362C27.8978 125.764 28.6491 126.09 29.4281 126.348C30.1654 126.591 30.9306 126.773 31.7653 126.834C32.1826 126.864 32.6209 126.864 33.0869 126.811C33.5599 126.75 34.0677 126.637 34.6241 126.356C35.6675 125.84 36.1475 124.429 35.7092 123.2C35.3962 122.335 34.7076 121.797 33.9633 121.736C32.6 121.63 31.2575 121.622 29.9081 121.698C29.1638 121.744 28.4195 121.819 27.6753 121.933C27.4527 121.789 27.237 121.637 27.0284 121.478C26.5345 121.099 26.0685 120.674 25.672 120.204C25.2755 119.733 24.9486 119.202 24.7538 118.656C24.559 118.11 24.5104 117.548 24.6286 117.01C24.6564 116.873 24.6982 116.744 24.7469 116.608C24.7677 116.547 24.8025 116.471 24.8234 116.418C24.8651 116.319 24.886 116.289 24.9138 116.228C25.039 115.993 25.192 115.781 25.3729 115.614C25.7346 115.265 26.2215 115.06 26.7571 114.969C27.2927 114.878 27.87 114.901 28.4543 114.999C29.0316 115.09 29.6159 115.257 30.1794 115.47C30.3185 115.523 30.4645 115.584 30.5967 115.637C30.701 115.682 30.8193 115.75 30.9445 115.826C31.1949 115.986 31.4592 116.175 31.7444 116.372C32.0296 116.57 32.3287 116.767 32.6835 116.934C32.8574 117.017 33.0521 117.093 33.2747 117.139C33.4903 117.184 33.7407 117.207 34.0051 117.154C34.2694 117.101 34.5268 116.972 34.7493 116.775C34.9093 116.623 34.9928 116.486 35.0693 116.357C35.1389 116.228 35.1945 116.107 35.2362 115.993C35.4032 115.53 35.4727 115.121 35.5354 114.719C35.6536 113.922 35.6953 113.156 35.7301 112.39C35.7649 111.631 35.7719 110.872 35.7927 110.152C35.7997 109.97 35.8066 109.795 35.8205 109.636L35.8762 109.105L35.9944 107.997L36.2448 105.79C36.4187 104.318 36.6066 102.854 36.8013 101.382C37.1978 98.4463 37.636 95.5256 38.1299 92.6201C39.1106 86.8015 40.2931 81.0208 41.6634 75.3159C43.0407 69.6111 44.6127 63.9746 46.3934 58.4291C46.8386 57.0408 47.2977 55.6677 47.7637 54.2794C48.2297 52.8987 48.6958 51.5256 49.1688 50.1449C50.1217 47.3987 51.0956 44.6677 52.1389 41.9746C52.6606 40.6318 53.2032 39.2966 53.7944 38.007C54.0935 37.3697 54.4065 36.7249 54.7543 36.2015C54.8378 36.0725 54.9352 35.9587 55.0047 35.898C55.0256 35.9056 55.0534 35.9132 55.0743 35.9284C55.2899 36.0194 55.5195 36.2166 55.7212 36.4442C56.1385 36.907 56.4933 37.4911 56.8202 38.098C57.1471 38.7049 57.4393 39.3497 57.7175 40.0022C58.267 41.3146 58.7539 42.6725 59.213 44.0456C60.1173 46.7918 60.9033 49.6063 61.6406 52.4359C62.3779 55.2656 63.0526 58.1104 63.6995 60.9704C64.9724 66.6297 66.0019 70.4001 66.5027 71.1739C66.5097 71.189 66.5236 71.1966 66.5305 71.2118C66.2314 71.3104 66.0715 71.3939 66.0784 71.4697C66.1271 72.327 86.1043 71.4015 110.735 70.9918C116.891 70.8932 122.761 70.8401 128.097 70.8325C133.432 70.8249 138.231 70.8704 142.273 70.9235C149.312 71.0146 154.014 71.1435 155.12 70.8932C155.12 71.0146 155.127 71.1132 155.134 71.1966C155.21 71.849 155.558 71.1208 156.129 68.7084C157.158 64.407 158.25 60.0373 159.46 55.6297C160.066 53.4222 160.699 51.2146 161.373 49.007C162.055 46.7994 162.778 44.5918 163.606 42.4525C164.024 41.3828 164.462 40.3359 164.956 39.3497C165.199 38.8642 165.463 38.3863 165.735 37.969C165.909 37.7035 166.089 37.4532 166.27 37.2559C166.319 37.3546 166.375 37.4532 166.423 37.5518C166.542 37.787 166.66 38.0373 166.778 38.2953C167.244 39.3194 167.675 40.4194 168.1 41.5346C168.941 43.7649 169.748 46.0559 170.534 48.3773C171.32 50.6987 172.092 53.0428 172.857 55.4173C175.946 64.847 178.526 74.709 180.544 84.9277C181.552 90.0332 182.429 95.2222 183.152 100.472C183.514 103.097 183.848 105.737 184.133 108.392L184.244 109.386C184.279 109.704 184.321 110.091 184.362 110.425L184.613 112.458L185.134 116.494C185.308 117.837 186.38 118.762 187.52 118.557C187.618 118.542 187.708 118.519 187.799 118.481L187.812 118.474C188.376 118.277 188.925 118.072 189.489 117.867C190.052 117.655 190.602 117.45 191.2 117.199L191.583 117.04C191.694 116.995 191.805 116.949 191.916 116.911C192.146 116.828 192.375 116.759 192.598 116.699C193.05 116.577 193.502 116.501 193.913 116.486C194.323 116.471 194.685 116.524 194.928 116.615C195.047 116.661 195.137 116.714 195.2 116.759C195.262 116.805 195.304 116.85 195.346 116.911C195.367 116.941 195.387 116.972 195.408 117.017C195.415 117.04 195.429 117.063 195.436 117.086L195.443 117.101L195.464 117.161L195.485 117.222C195.492 117.245 195.492 117.237 195.492 117.252L195.506 117.29L195.526 117.351C195.54 117.397 195.554 117.435 195.561 117.472C195.582 117.556 195.603 117.632 195.617 117.715C195.673 118.026 195.666 118.299 195.589 118.61C195.457 119.232 194.984 120.029 194.295 120.719C193.614 121.417 192.758 122.039 191.861 122.532C191.756 122.586 191.652 122.646 191.548 122.699C191.506 122.699 191.464 122.707 191.423 122.707C190.762 122.768 190.094 122.866 189.44 123.026C188.786 123.185 188.132 123.405 187.506 123.739L187.499 123.746C187.444 123.777 187.395 123.822 187.367 123.883C187.193 124.186 187.013 124.512 186.943 124.975C186.915 125.203 186.929 125.491 187.054 125.734C187.173 125.977 187.36 126.128 187.534 126.219C187.882 126.401 188.202 126.424 188.522 126.439C188.835 126.447 189.141 126.409 189.44 126.364C190.358 126.197 191.242 125.886 192.083 125.491C193.064 125.446 194.066 125.499 195.012 125.673C195.568 125.779 196.104 125.924 196.598 126.113C197.092 126.303 197.537 126.538 197.864 126.804C198.031 126.932 198.163 127.069 198.253 127.183C198.344 127.304 198.406 127.403 198.434 127.494C198.469 127.585 198.483 127.668 198.49 127.782V127.805V127.812V127.843C198.49 127.858 198.483 127.873 198.476 127.904C198.441 128.048 198.204 128.404 197.836 128.723C197.474 129.049 197.008 129.368 196.507 129.648C195.506 130.217 194.358 130.657 193.196 130.991C192.466 131.204 191.722 131.37 190.977 131.492C190.79 131.454 190.595 131.424 190.407 131.401C189.684 131.295 188.953 131.234 188.195 131.279C187.819 131.302 187.437 131.348 187.033 131.469C186.832 131.53 186.623 131.613 186.414 131.765C186.31 131.841 186.199 131.932 186.094 132.061C185.99 132.19 185.893 132.357 185.837 132.554C185.83 132.584 185.823 132.622 185.816 132.652C185.795 132.827 185.802 133.032 185.858 133.221C185.914 133.411 186.004 133.57 186.101 133.684C186.303 133.919 186.505 134.033 186.693 134.124C187.068 134.299 187.423 134.359 187.771 134.412C188.466 134.504 189.141 134.488 189.809 134.443C190.205 134.412 190.602 134.367 190.991 134.306C191.986 134.511 192.981 134.807 193.941 135.186C195.172 135.672 196.361 136.301 197.3 137.098C197.766 137.493 198.163 137.925 198.406 138.342C198.531 138.547 198.615 138.744 198.664 138.926C198.691 139.017 198.705 139.101 198.719 139.192C198.726 139.237 198.726 139.275 198.733 139.321V139.351V139.366V139.374V139.381C198.733 139.389 198.733 139.389 198.733 139.381L198.712 139.48Z" fill="black"/>
<path d="M163.303 105.873C164.694 103.264 165.703 100.419 166.384 97.498C166.781 97.5739 167.177 97.6497 167.574 97.7256L167.616 97.7332C167.685 97.7483 167.769 97.7559 167.845 97.7635L168.11 97.7711H168.263C168.318 97.7711 168.374 97.7711 168.471 97.7711C168.534 97.7635 168.562 97.7711 168.742 97.7408L168.833 97.7256C168.875 97.718 168.916 97.7028 168.958 97.6952C168.965 97.6952 169.007 97.6801 169.083 97.6573C169.146 97.6346 169.202 97.6118 169.264 97.5814C169.375 97.5208 169.264 97.5966 169.549 97.4146C169.786 97.2477 170.008 97.0049 170.168 96.7394C170.321 96.6483 170.767 95.2828 170.44 94.5545C170.21 93.9021 170.189 93.978 170.001 93.6897C169.855 93.4925 169.619 93.3028 169.633 93.318C169.591 93.2801 169.542 93.2497 169.494 93.2194C169.445 93.189 169.403 93.1587 169.355 93.1359L169.299 93.1056C169.264 93.0904 169.229 93.0677 169.188 93.0525C169.09 93.0146 169.035 92.9918 168.993 92.9766L168.896 92.9463L168.77 92.9159C168.638 92.8856 168.548 92.8704 168.457 92.8552C168.11 92.7946 167.803 92.749 167.49 92.7111C167.386 92.6959 167.282 92.6883 167.177 92.6732C167.428 92.3697 167.56 91.9373 167.49 91.4897C167.393 90.8373 166.92 90.3746 166.377 90.3594C165.619 90.3366 164.868 90.3366 164.124 90.3442C163.811 90.2532 163.505 90.1773 163.192 90.109C162.357 89.927 161.508 89.798 160.646 89.6918C158.928 89.487 157.175 89.3808 155.394 89.3277C151.833 89.2214 148.16 89.3277 144.404 89.5477C140.648 89.7601 136.815 90.0939 132.934 90.4732L121.185 91.687H121.151C120.003 91.8083 119.154 92.9918 119.259 94.3421C119.328 95.2752 119.843 96.0414 120.532 96.3828C120.532 96.3828 120.532 96.3828 120.525 96.3828L120.504 96.398C119.704 96.929 119.419 98.1277 119.871 99.0683C120.219 99.789 120.9 100.153 121.561 100.047C121.721 100.017 121.888 99.9863 122.048 99.9635C122.062 100.176 122.083 100.388 122.111 100.601C122.284 101.906 122.653 103.218 123.168 104.462C124.204 106.966 125.776 109.241 127.606 111.168C129.435 113.095 131.536 114.696 133.72 115.857C134.812 116.433 135.932 116.904 137.052 117.23C137.615 117.397 138.172 117.526 138.735 117.609C138.874 117.632 139.013 117.655 139.152 117.67L139.549 117.723L140.342 117.814C143.249 118.117 146.22 118.034 149.113 117.336C152 116.653 154.81 115.333 157.251 113.361C159.693 111.388 161.752 108.794 163.303 105.873ZM152.681 91.3532C152.097 91.4366 151.513 91.5201 150.936 91.6111C150.351 91.5959 149.767 91.5883 149.183 91.5883C150.344 91.4973 151.506 91.4214 152.681 91.3532ZM149.204 106.859C149.37 105.987 149.496 105.099 149.586 104.189C149.774 102.368 149.864 100.479 149.871 98.5297C149.871 97.7863 149.857 97.0277 149.837 96.269C150.671 96.269 151.506 96.269 152.341 96.2766C154.17 96.307 155.999 96.3752 157.829 96.4966C157.432 97.6801 156.897 99.2049 156.055 100.859C155.06 102.831 153.6 104.986 151.562 106.708C150.734 107.406 149.816 108.028 148.814 108.528C148.967 107.975 149.092 107.421 149.204 106.859ZM147.833 106.48C147.833 106.495 147.833 106.51 147.826 106.518C147.708 107.224 147.562 107.899 147.374 108.521C147.569 107.823 147.715 107.14 147.833 106.48ZM146.623 96.3145C146.386 97.498 146.213 98.6966 146.066 99.9028C146.011 100.396 145.955 100.897 145.906 101.397L145.134 98.029C145.009 97.4752 144.898 96.9214 144.801 96.3752C145.413 96.3525 146.018 96.3297 146.623 96.3145ZM143.173 106.548C143.416 106.973 143.688 107.39 144.001 107.777C144.008 107.808 144.014 107.838 144.028 107.861C144.223 108.498 144.432 109.128 144.661 109.742C144.536 109.757 144.411 109.765 144.286 109.772C144.23 109.689 144.174 109.606 144.119 109.522C143.827 109.052 143.59 108.513 143.375 107.982C143.013 107.049 142.735 106.108 142.498 105.213C142.7 105.668 142.922 106.116 143.173 106.548ZM136.342 97.1263C136.753 97.0428 137.17 96.9594 137.58 96.8683C138.554 96.7773 139.535 96.6939 140.516 96.618C140.537 96.9214 140.564 97.2173 140.599 97.5132C140.62 98.1125 140.655 98.8104 140.724 99.5994C140.85 101.109 141.058 102.96 141.49 105.099C141.705 106.169 141.976 107.307 142.387 108.498C142.533 108.915 142.7 109.34 142.902 109.765C141.893 109.689 140.912 109.469 140.001 109.105C138.749 108.612 137.636 107.861 136.704 106.95C135.772 106.04 135.028 104.97 134.45 103.863C133.873 102.755 133.462 101.617 133.163 100.54C132.906 99.607 132.725 98.7194 132.593 97.9077C133.845 97.6421 135.097 97.3842 136.342 97.1263ZM142.22 116.251C141.636 116.236 141.058 116.206 140.474 116.16C140.182 116.137 139.89 116.107 139.604 116.077C139.305 116.046 139.034 116.008 138.756 115.963C137.65 115.773 136.551 115.409 135.487 114.924C133.358 113.952 131.369 112.534 129.574 110.835C127.78 109.128 126.166 107.125 124.9 104.826C124.267 103.681 123.731 102.452 123.342 101.155C123.21 100.707 123.091 100.244 123.001 99.7814C125.714 99.2959 128.399 98.7573 131.077 98.2111C131.104 99.0759 131.181 100.047 131.362 101.086C131.577 102.346 131.946 103.719 132.544 105.107C133.143 106.488 133.991 107.876 135.104 109.082C136.217 110.288 137.594 111.297 139.145 111.95C140.69 112.61 142.394 112.928 144.119 112.86C145.844 112.799 147.506 112.359 149.009 111.669C150.511 110.979 151.861 110.038 153.008 108.961C154.163 107.884 155.116 106.685 155.888 105.464C156.66 104.242 157.251 103.013 157.697 101.852C158.49 99.7663 158.837 97.9304 158.99 96.5725C159.331 96.5952 159.672 96.6256 160.013 96.6559C161.759 96.8152 163.491 97.0201 165.216 97.3008C164.353 99.5387 163.449 101.724 162.371 103.787C161.07 106.29 159.505 108.619 157.606 110.508C155.54 112.572 153.085 114.097 150.449 115.022C147.812 115.955 145.016 116.312 142.22 116.251Z" fill="black"/>
<path d="M48.5626 88.5538C50.6702 88.5159 52.6456 88.1745 54.635 87.7345C56.6244 87.2945 58.6277 86.7634 60.6657 86.3841C65.1175 85.5572 69.7153 85.3903 74.327 85.0565C78.1666 84.7834 81.9436 84.3814 85.7137 84.2827C89.4837 84.1917 93.2329 84.4117 97.0726 85.4586C97.5038 85.58 97.6708 84.5103 97.3438 84.1765C94.3876 81.1724 76.3581 76.9696 54.7811 83.2359C52.4787 83.9186 50.232 84.8745 48.1244 86.1717C47.3592 86.6345 47.6583 88.5765 48.5626 88.5538Z" fill="black"/>
<path d="M119.448 86.1641C123.058 84.7531 126.633 84.1613 130.25 83.8882C133.86 83.6151 137.505 83.6531 141.199 83.5469C145.63 83.4331 150.047 83.1524 154.359 83.5393C156.335 83.7213 158.289 84.0551 160.216 84.2979C162.15 84.5407 164.063 84.6924 166.087 84.5255C166.949 84.4648 167.109 82.4924 166.365 82.1055C164.264 81.0207 162.046 80.2848 159.799 79.8296C138.743 75.6876 121.736 81.6351 119.1 84.9124C118.808 85.2765 119.038 86.3234 119.448 86.1641Z" fill="black"/>
<path d="M160.291 70.4304C160.555 70.4987 161.118 68.898 161.786 66.2504C162.454 63.6029 163.233 59.9084 164.026 55.827L166.022 45.4035L166.641 42.2704C166.78 41.527 166.843 41.0946 166.725 41.0187C166.607 40.9428 166.307 41.2463 165.939 41.9215C165.57 42.5966 165.132 43.6208 164.694 44.9256C163.81 47.5277 162.906 51.2146 162.106 55.3187C161.306 59.4304 160.75 63.178 160.423 65.9091C160.11 68.6401 160.026 70.3622 160.291 70.4304Z" fill="black"/>
<path d="M55.5608 45.4111L57.5572 55.8346C58.3501 59.9159 59.1222 63.6104 59.7969 66.258C60.4647 68.9056 61.0281 70.5063 61.2924 70.438C61.5568 70.3621 61.4733 68.6477 61.1533 65.9166C60.8334 63.1856 60.2699 59.438 59.47 55.3263C58.6701 51.2146 57.7658 47.5352 56.8824 44.9332C56.4442 43.6359 56.013 42.6042 55.6373 41.929C55.2687 41.2539 54.9626 40.9504 54.8513 41.0263C54.7331 41.1021 54.7957 41.5346 54.9348 42.278L55.5608 45.4111Z" fill="black"/>
<path d="M88.1625 116.001C90.6109 114.036 92.6698 111.441 94.221 108.521C95.6122 105.911 96.6208 103.066 97.3024 100.145C97.6989 100.221 98.0954 100.297 98.4919 100.373L98.5336 100.381C98.6101 100.396 98.6866 100.403 98.7631 100.411L99.0275 100.426H99.1805C99.2361 100.426 99.2918 100.426 99.3961 100.426C99.4587 100.419 99.4865 100.426 99.6674 100.396L99.7578 100.381C99.7996 100.373 99.8413 100.358 99.883 100.35C99.89 100.35 99.9317 100.335 100.008 100.312C100.071 100.29 100.126 100.267 100.189 100.237C100.3 100.176 100.189 100.252 100.474 100.07C100.711 99.9027 100.933 99.66 101.093 99.3944C101.246 99.3034 101.692 97.9379 101.365 97.2096C101.135 96.5572 101.114 96.6407 100.926 96.3448C100.78 96.1475 100.544 95.9579 100.558 95.9731C100.516 95.9351 100.467 95.9048 100.419 95.8744C100.37 95.8441 100.321 95.8138 100.273 95.791L100.217 95.7607C100.182 95.7455 100.147 95.7227 100.106 95.7076C100.008 95.662 99.9526 95.6469 99.9109 95.6317L99.8135 95.6013L99.6883 95.571C99.5561 95.5407 99.4657 95.5255 99.3753 95.5103C99.0275 95.4496 98.7214 95.4041 98.4084 95.3662C98.3041 95.351 98.1997 95.3434 98.0954 95.3282C98.3458 95.0248 98.478 94.5924 98.4084 94.1448C98.311 93.4924 97.838 93.0296 97.2955 93.0144C96.5373 92.9917 95.786 92.9917 95.0418 93.0069C94.7357 92.9158 94.4227 92.84 94.1097 92.7717C93.275 92.5896 92.4264 92.4607 91.5639 92.3544C89.8458 92.1496 88.0929 92.0434 86.3122 91.9903C82.7508 91.8841 79.0781 91.9979 75.322 92.2103C71.5658 92.4227 67.7332 92.7565 63.8518 93.1358L52.1034 94.3496H52.0686C50.9209 94.471 50.0723 95.6544 50.1766 97.0048C50.2462 97.9379 50.7609 98.7041 51.4496 99.0455C51.4496 99.0455 51.4496 99.0455 51.4426 99.0455L51.4217 99.0607C50.6218 99.5917 50.3366 100.79 50.7888 101.731C51.1366 102.452 51.8182 102.816 52.479 102.71C52.646 102.679 52.806 102.649 52.9659 102.626C52.9868 102.839 53.0007 103.051 53.0285 103.263C53.2024 104.568 53.5711 105.881 54.0858 107.125C55.1222 109.628 56.6943 111.904 58.5236 113.831C60.353 115.758 62.4537 117.359 64.6378 118.519C65.7299 119.096 66.8498 119.566 67.9697 119.892C68.5331 120.059 69.0896 120.188 69.653 120.272C69.7921 120.294 69.9312 120.317 70.0703 120.332L70.4668 120.385L71.2598 120.477C74.1673 120.78 77.1375 120.697 80.0311 119.999C82.9108 119.293 85.721 117.981 88.1625 116.001ZM83.5925 94.0007C83.0082 94.0841 82.4309 94.1675 81.8466 94.2586C81.2623 94.2434 80.678 94.2358 80.0937 94.2358C81.2553 94.1448 82.4239 94.0689 83.5925 94.0007ZM80.1215 109.507C80.2885 108.634 80.4137 107.747 80.5041 106.837C80.6919 105.016 80.7823 103.127 80.7893 101.177C80.7893 100.434 80.7754 99.6751 80.7545 98.9165C81.5892 98.9165 82.4239 98.9165 83.2586 98.9241C85.088 98.9544 86.9174 99.0227 88.7467 99.1441C88.3503 100.328 87.8077 101.852 86.973 103.506C85.9783 105.479 84.5176 107.633 82.4726 109.355C81.6448 110.053 80.7267 110.675 79.725 111.176C79.885 110.622 80.0102 110.068 80.1215 109.507ZM78.7443 109.128C78.7443 109.143 78.7373 109.158 78.7373 109.165C78.6191 109.871 78.473 110.546 78.2852 111.168C78.4799 110.47 78.633 109.788 78.7443 109.128ZM77.5409 98.962C77.3044 100.145 77.1305 101.344 76.9844 102.55C76.9288 103.043 76.8731 103.544 76.8244 104.045L76.0523 100.677C75.9341 100.123 75.8158 99.5689 75.7185 99.0227C76.3306 99 76.9357 98.9772 77.5409 98.962ZM74.0838 109.196C74.3273 109.621 74.5986 110.038 74.9116 110.425C74.9185 110.455 74.9255 110.485 74.9394 110.508C75.1342 111.145 75.3429 111.775 75.5724 112.39C75.4472 112.405 75.322 112.412 75.1968 112.42C75.1411 112.337 75.0855 112.253 75.0298 112.17C74.7377 111.699 74.5012 111.161 74.2856 110.63C73.9239 109.697 73.6456 108.756 73.4091 107.861C73.6178 108.316 73.8404 108.763 74.0838 109.196ZM67.2602 99.7738C67.6706 99.6903 68.0879 99.6069 68.4983 99.5158C69.4721 99.4248 70.4529 99.3413 71.4337 99.2655C71.4545 99.5689 71.4824 99.8648 71.5171 100.161C71.538 100.76 71.5728 101.45 71.6424 102.247C71.7676 103.757 71.9762 105.608 72.4075 107.747C72.6231 108.817 72.8944 109.954 73.3048 111.138C73.4509 111.555 73.6178 111.98 73.8265 112.405C72.8179 112.329 71.8371 112.109 70.9259 111.745C69.6738 111.252 68.5609 110.501 67.6288 109.59C66.6968 108.68 65.9525 107.61 65.3751 106.503C64.7978 105.395 64.3874 104.257 64.0883 103.18C63.831 102.247 63.6501 101.359 63.5179 100.548C64.7561 100.29 66.0081 100.032 67.2602 99.7738ZM73.1379 118.899C72.5536 118.883 71.9762 118.853 71.3919 118.808C71.0998 118.785 70.8077 118.754 70.5225 118.724C70.2234 118.694 69.9521 118.656 69.6738 118.61C68.5679 118.421 67.4688 118.057 66.4046 117.571C64.2761 116.6 62.2868 115.181 60.4921 113.482C58.6975 111.775 57.0907 109.772 55.8178 107.474C55.1848 106.321 54.6493 105.099 54.2597 103.802C54.1276 103.354 54.0093 102.892 53.9189 102.429C56.6317 101.943 59.3166 101.405 61.9946 100.859C62.0224 101.723 62.0989 102.694 62.2798 103.734C62.4954 104.993 62.8641 106.366 63.4623 107.754C64.0605 109.135 64.9021 110.523 66.022 111.73C67.135 112.936 68.5122 113.945 70.0634 114.597C71.6076 115.257 73.3118 115.576 75.0368 115.508C76.7618 115.447 78.4243 115.007 79.9267 114.317C81.4292 113.626 82.7786 112.685 83.9264 111.608C85.081 110.531 86.034 109.332 86.8061 108.111C87.5782 106.89 88.1694 105.661 88.6146 104.5C89.4075 102.414 89.7553 100.578 89.9084 99.22C90.2492 99.2427 90.59 99.2731 90.9309 99.3034C92.6768 99.4627 94.4088 99.6675 96.1338 99.9482C95.2783 102.186 94.3671 104.371 93.2889 106.434C91.9882 108.938 90.4231 111.267 88.5242 113.156C86.4583 115.219 84.0029 116.744 81.3666 117.67C78.7303 118.603 75.9341 118.959 73.1379 118.899Z" fill="black"/>
<path d="M144.435 148.644C144.254 148.584 143.815 149.691 143.036 151.671C142.64 152.657 142.16 153.856 141.534 155.199C140.908 156.534 140.15 158.021 139.148 159.47C138.153 160.919 136.901 162.33 135.336 163.324C134.557 163.824 133.695 164.211 132.777 164.461C131.858 164.712 130.878 164.826 129.862 164.795C128.846 164.773 127.796 164.613 126.732 164.348C126.196 164.211 125.661 164.052 125.125 163.87C124.854 163.779 124.583 163.68 124.318 163.574L123.908 163.415C123.783 163.361 123.664 163.308 123.532 163.248C121.466 162.322 119.553 160.79 118.023 158.696C116.486 156.61 115.394 154.137 114.594 151.61C113.794 149.084 113.279 146.497 112.911 144.001C112.542 141.506 112.326 139.086 112.173 136.817C112.069 135.247 112.006 133.753 111.958 132.334C111.944 131.689 111.93 131.059 111.909 130.453C111.902 130.346 111.902 130.24 111.895 130.141C111.812 126.394 111.805 123.329 111.742 121.19L111.714 120.386L111.652 119.703C111.645 119.635 111.638 119.574 111.631 119.506C112.702 115.485 113.815 111.487 114.768 107.413C115.241 105.373 115.679 103.309 115.957 101.193C116.089 100.13 116.187 99.0608 116.138 97.9532C116.11 97.3994 116.048 96.838 115.881 96.2766C115.797 95.996 115.679 95.7153 115.512 95.4649C115.345 95.2146 115.13 94.987 114.879 94.8353C114.768 94.767 114.643 94.7746 114.538 94.8353H114.531C114.086 95.1084 113.711 95.5029 113.398 95.9353C113.085 96.3677 112.834 96.838 112.612 97.3235C112.18 98.2946 111.874 99.3111 111.617 100.335C111.283 101.686 111.026 103.051 110.81 104.424C110.692 103.833 110.567 103.241 110.427 102.649C110.233 101.853 110.024 101.056 109.774 100.275C109.523 99.4856 109.238 98.7118 108.869 97.9456C108.682 97.5663 108.48 97.187 108.229 96.8304C107.972 96.4739 107.687 96.1097 107.235 95.8215C107.005 95.6849 106.72 95.5635 106.358 95.5939C106.184 95.6091 105.997 95.6698 105.83 95.776C105.663 95.8746 105.524 96.0187 105.419 96.1704C105.204 96.4739 105.099 96.7925 105.044 97.0884L105.023 97.2022L105.009 97.278L104.981 97.4677C104.967 97.5891 104.953 97.7029 104.946 97.8242C104.884 98.7573 104.96 99.6222 105.064 100.464C105.176 101.306 105.322 102.133 105.496 102.937C105.864 104.697 106.323 106.404 106.796 108.096L108.236 113.133C108.522 114.142 108.772 115.144 109.05 116.099C109.328 117.055 109.641 117.958 110.031 118.793L110.08 118.959L110.142 119.05C110.212 119.141 110.281 119.217 110.351 119.286C110.337 119.415 110.323 119.551 110.309 119.695L110.247 120.378L110.219 121.182C110.156 123.321 110.149 126.386 110.066 130.134C110.059 130.24 110.059 130.339 110.052 130.445C110.031 131.052 110.017 131.681 110.003 132.326C109.954 133.745 109.885 135.247 109.788 136.81C109.641 139.086 109.419 141.498 109.05 143.994C108.682 146.49 108.167 149.069 107.367 151.603C106.567 154.129 105.475 156.602 103.938 158.688C102.407 160.782 100.495 162.315 98.4286 163.24C98.2965 163.301 98.1782 163.346 98.053 163.407L97.6496 163.566C97.3783 163.673 97.107 163.771 96.8357 163.862C96.3001 164.044 95.7576 164.204 95.2289 164.34C94.1647 164.606 93.1144 164.765 92.0988 164.788C91.0833 164.81 90.1025 164.704 89.1843 164.454C88.2661 164.204 87.4106 163.817 86.6315 163.316C85.0665 162.322 83.8144 160.904 82.8197 159.462C81.8251 158.013 81.0599 156.526 80.4339 155.191C79.8148 153.848 79.3279 152.65 78.9384 151.664C78.1593 149.684 77.7141 148.568 77.5333 148.637C77.3664 148.697 77.4777 149.926 77.9785 152.081C78.2358 153.158 78.5906 154.455 79.1123 155.935C79.6409 157.406 80.3295 159.068 81.3381 160.767C81.839 161.617 82.4302 162.466 83.1258 163.286C83.8214 164.097 84.6283 164.871 85.5464 165.531C86.4715 166.191 87.508 166.722 88.6209 167.079C89.7338 167.435 90.9094 167.617 92.1058 167.633C93.3022 167.648 94.5125 167.496 95.7158 167.23C96.314 167.094 96.9192 166.935 97.5174 166.737C97.8165 166.646 98.1156 166.54 98.4147 166.434L98.8599 166.267C99.0129 166.206 99.1799 166.138 99.3329 166.07C100.55 165.546 101.754 164.833 102.866 163.93C103.979 163.028 105.016 161.943 105.913 160.714C107.722 158.256 108.932 155.419 109.774 152.642C110.295 150.913 110.685 149.183 110.977 147.499C111.276 149.19 111.659 150.913 112.18 152.642C113.022 155.419 114.232 158.256 116.041 160.714C116.945 161.943 117.975 163.028 119.087 163.93C120.2 164.833 121.404 165.546 122.621 166.07C122.767 166.138 122.934 166.199 123.094 166.267L123.539 166.434C123.838 166.54 124.137 166.646 124.436 166.737C125.035 166.927 125.633 167.094 126.238 167.23C127.441 167.496 128.652 167.648 129.848 167.633C131.045 167.617 132.22 167.443 133.333 167.079C134.446 166.722 135.482 166.191 136.407 165.531C137.333 164.871 138.139 164.105 138.828 163.286C139.524 162.474 140.108 161.617 140.616 160.767C141.624 159.068 142.313 157.406 142.842 155.935C143.363 154.455 143.725 153.15 143.975 152.081C144.483 149.934 144.601 148.705 144.435 148.644ZM111.54 118.633C111.513 118.444 111.485 118.284 111.457 118.155C111.45 117.981 111.422 117.799 111.38 117.609C111.047 116.13 110.636 114.711 110.226 113.3L108.96 109.113C108.542 107.724 108.125 106.336 107.749 104.94C107.374 103.552 107.026 102.148 106.79 100.76C106.671 100.07 106.581 99.3718 106.553 98.7118C106.539 98.378 106.539 98.0594 106.567 97.7635L106.581 97.6573L106.595 97.5511L106.602 97.5132V97.5056C106.713 97.5891 106.866 97.7408 107.005 97.9304C107.339 98.378 107.631 98.9622 107.889 99.5766C108.41 100.813 108.8 102.179 109.134 103.559C109.468 104.948 109.746 106.359 109.982 107.793C110.08 108.369 110.553 108.741 111.04 108.627C111.422 108.536 111.7 108.179 111.756 107.747V107.739C111.923 106.435 112.097 105.13 112.306 103.848C112.549 102.361 112.848 100.859 113.293 99.4629C113.516 98.7649 113.773 98.0973 114.093 97.5284C114.246 97.2553 114.413 97.0049 114.587 96.7925C114.594 96.8153 114.601 96.838 114.608 96.8684C114.705 97.2098 114.761 97.6649 114.775 98.1353C114.803 99.0835 114.705 100.123 114.573 101.155C114.302 103.226 113.878 105.319 113.467 107.39C112.695 111.229 111.944 115.03 111.547 118.709C111.547 118.686 111.54 118.656 111.54 118.633Z" fill="black"/>
<path d="M55.8447 62.0855C56.3734 64.7027 56.895 67.0545 57.2707 68.7538C57.6602 70.4531 57.8897 71.5 58.0706 71.4848C58.2514 71.4772 58.3488 70.3393 58.1819 68.5565C58.0288 66.7738 57.6463 64.3538 57.1176 61.7289C56.582 59.0965 56.0047 56.7524 55.5387 55.0683C55.0657 53.3841 54.7179 52.3676 54.544 52.4131C54.3631 52.451 54.3979 53.5738 54.6413 55.3262C54.8778 57.0786 55.3091 59.4683 55.8447 62.0855Z" fill="black"/>
<path d="M164.463 61.729C163.927 64.3614 163.551 66.7738 163.398 68.5566C163.232 70.3393 163.329 71.4773 163.51 71.4849C163.691 71.4924 163.913 70.4455 164.31 68.7538C164.692 67.0545 165.207 64.7028 165.743 62.0855C166.271 59.4683 166.709 57.0787 166.953 55.3262C167.196 53.5738 167.231 52.4511 167.05 52.4131C166.876 52.3752 166.529 53.3918 166.056 55.0683C165.569 56.7449 164.991 59.0966 164.463 61.729Z" fill="black"/>
</g>
<defs>
<filter id="filter0_b_1854_334" x="-20" y="-20" width="260" height="260" filterUnits="userSpaceOnUse" color-interpolation-filters="sRGB">
<feFlood flood-opacity="0" result="BackgroundImageFix"/>
<feGaussianBlur in="BackgroundImage" stdDeviation="10"/>
<feComposite in2="SourceAlpha" operator="in" result="effect1_backgroundBlur_1854_334"/>
<feBlend mode="normal" in="SourceGraphic" in2="effect1_backgroundBlur_1854_334" result="shape"/>
</filter>
<clipPath id="clip0_1854_334">
<rect width="182.069" height="153.006" fill="white" transform="translate(18.9648 33.3794)"/>
</clipPath>
</defs>
</svg>
