<svg width="220" height="220" viewBox="0 0 220 220" fill="none" xmlns="http://www.w3.org/2000/svg">
<g filter="url(#filter0_b_1854_367)">
<rect width="220" height="220" fill="#03FEC8"/>
</g>
<g clip-path="url(#clip0_1854_367)">
<path d="M100.527 78.0469C100.481 78.3276 100.428 78.5931 100.375 78.8358C100.398 78.7372 100.428 78.6462 100.451 78.5476C100.489 78.3807 100.512 78.2138 100.527 78.0469Z" fill="black"/>
<path d="M101.006 75.498C101.014 75.3235 100.976 75.149 100.923 74.967C100.892 74.8759 100.862 74.7849 100.832 74.6863C100.809 75.4828 100.756 76.2339 100.688 76.9166C100.756 76.6283 100.847 76.3401 100.915 76.067C100.961 75.8697 100.999 75.6801 101.006 75.498Z" fill="black"/>
<path d="M67.2454 39.1753C67.2151 39.1525 67.2151 39.1601 67.2454 39.1753V39.1753Z" fill="black"/>
<path d="M108.007 95.9656C107.962 96.2463 107.909 96.5118 107.855 96.7545C107.878 96.6559 107.909 96.5649 107.931 96.4663C107.969 96.307 107.992 96.1325 108.007 95.9656Z" fill="black"/>
<path d="M117.861 93.6594C117.869 93.4849 117.831 93.3104 117.77 93.1283C117.74 93.0373 117.71 92.9463 117.679 92.8477C117.657 93.6442 117.611 94.3952 117.535 95.078C117.603 94.7897 117.694 94.5014 117.763 94.2283C117.816 94.0311 117.854 93.8414 117.861 93.6594Z" fill="black"/>
<path d="M123.581 77.2883C123.536 77.569 123.483 77.8345 123.43 78.0773C123.452 77.9787 123.483 77.8876 123.506 77.789C123.543 77.6221 123.559 77.4552 123.581 77.2883Z" fill="black"/>
<path d="M124.061 74.747C124.068 74.5725 124.03 74.3981 123.977 74.216C123.947 74.125 123.917 74.0339 123.886 73.9353C123.864 74.7319 123.81 75.4829 123.742 76.1656C123.81 75.8774 123.902 75.5891 123.97 75.316C124.015 75.1188 124.053 74.9291 124.061 74.747Z" fill="black"/>
<path d="M142.329 122.646C141.942 122.586 141.562 122.525 141.191 122.449C139.62 122.146 138.103 121.736 136.609 121.197C135.091 120.644 133.589 119.923 132.171 118.982C130.752 118.042 129.417 116.881 128.249 115.493C127.953 115.144 127.672 114.779 127.399 114.408C127.262 114.218 127.133 114.036 127.004 113.839L126.815 113.55L126.769 113.475L126.701 113.368L126.618 113.232C126.14 112.397 125.753 111.555 125.427 110.683C124.782 108.938 124.41 107.133 124.243 105.388C124.167 104.576 124.137 103.779 124.144 102.983C123.985 103.711 123.849 104.439 123.758 105.16C123.568 106.579 123.576 107.982 123.864 109.31C124.144 110.607 124.668 111.798 125.305 112.86C125.935 113.907 126.656 114.825 127.429 115.69C128.992 117.419 130.805 118.823 132.74 119.893C133.711 120.431 134.704 120.879 135.713 121.258C136.222 121.448 136.73 121.622 137.238 121.766C137.709 121.903 138.179 122.024 138.649 122.13C139.924 122.426 141.145 122.586 142.329 122.646Z" fill="black"/>
<path d="M97.6758 109.317C97.964 107.99 97.964 106.586 97.782 105.168C97.6909 104.447 97.5468 103.719 97.3951 102.99C97.4027 103.779 97.3723 104.584 97.2965 105.395C97.1296 107.14 96.7654 108.946 96.113 110.69C95.7868 111.563 95.3999 112.413 94.922 113.239L94.8309 113.376L94.7702 113.482L94.7247 113.558L94.5351 113.846C94.4061 114.036 94.2771 114.226 94.1406 114.415C93.8751 114.787 93.5868 115.151 93.2909 115.5C92.1227 116.888 90.7875 118.049 89.3689 118.99C87.9502 119.93 86.4482 120.651 84.9309 121.205C83.4364 121.744 81.9192 122.153 80.3489 122.457C79.9696 122.525 79.5902 122.593 79.2109 122.654C80.3944 122.593 81.6233 122.434 82.8827 122.153C83.353 122.047 83.8158 121.926 84.2937 121.789C84.802 121.645 85.3102 121.47 85.8185 121.281C86.8275 120.902 87.8289 120.454 88.7923 119.915C90.7268 118.846 92.5399 117.442 94.1027 115.713C94.884 114.84 95.5971 113.93 96.2268 112.883C96.8716 111.798 97.4027 110.615 97.6758 109.317Z" fill="black"/>
<path d="M117.382 96.2083C117.337 96.4889 117.284 96.7545 117.23 96.9972C117.253 96.8986 117.284 96.8076 117.306 96.7089C117.344 96.542 117.367 96.3751 117.382 96.2083Z" fill="black"/>
<path d="M112.421 78.396C112.376 78.6767 112.323 78.9422 112.27 79.185C112.292 79.0863 112.323 78.9953 112.345 78.8967C112.383 78.7298 112.399 78.5629 112.421 78.396Z" fill="black"/>
<path d="M112.901 75.8469C112.908 75.6725 112.87 75.498 112.817 75.3159C112.787 75.2249 112.757 75.1338 112.726 75.0352C112.703 75.8318 112.658 76.5828 112.582 77.2656C112.65 76.9773 112.741 76.689 112.81 76.4159C112.855 76.2263 112.893 76.029 112.901 75.8469Z" fill="black"/>
<path d="M108.487 93.4243C108.494 93.2498 108.456 93.0753 108.403 92.8932C108.373 92.8022 108.342 92.7112 108.312 92.6125C108.289 93.4091 108.236 94.1601 108.168 94.8429C108.236 94.5546 108.327 94.2663 108.396 93.9932C108.449 93.796 108.479 93.6063 108.487 93.4243Z" fill="black"/>
<path d="M85.3477 157.945C85.3477 157.937 85.3552 157.93 85.3552 157.922C85.3552 157.93 85.3477 157.93 85.3477 157.937C85.3477 157.945 85.3477 157.945 85.3477 157.945Z" fill="black"/>
<path d="M73.5592 147.461C73.1116 147.385 72.6792 147.317 72.2543 147.271C71.8447 147.226 71.4199 147.21 70.9874 147.203C70.7674 147.195 70.5399 147.195 70.3047 147.195C72.1481 147.385 73.8778 147.582 75.4633 147.787C74.8033 147.681 74.1661 147.559 73.5592 147.461Z" fill="black"/>
<path d="M52.8714 156.572C53.3266 156.602 53.7893 156.625 54.2597 156.648C53.539 156.602 52.8638 156.564 52.2266 156.519L52.8714 156.572Z" fill="black"/>
<path d="M178.612 73.7835C174.075 66.0911 169.205 55.9104 169.205 55.9104C167.051 50.5318 157.355 27.0221 149.982 27.3104C143.647 27.6594 140.582 45.0242 140.355 49.2194C140.355 49.2194 136.88 48.9842 131.593 48.6807C131.638 48.8325 131.661 48.9994 131.668 49.1587L131.699 49.8945C131.722 50.1373 131.79 50.4028 131.858 50.6835C131.919 50.9642 131.995 51.2676 132.025 51.5938C132.04 51.9049 132.093 52.2159 132.146 52.5497C132.192 52.8835 132.237 53.24 132.177 53.6194C132.131 53.9911 132.025 54.3628 131.987 54.7269C131.926 55.0835 132.04 55.4173 132.146 55.7966C132.2 55.9862 132.245 56.1759 132.245 56.3883C132.245 56.6007 132.2 56.8056 132.154 57.0104C132.048 57.42 131.896 57.8297 131.866 58.209L131.797 59.4228C131.744 59.8021 131.676 60.1738 131.577 60.5531C131.524 60.7428 131.464 60.9325 131.388 61.1297C131.35 61.2283 131.304 61.3269 131.244 61.4256C131.183 61.5242 131.13 61.6228 131.016 61.7442C130.986 61.7745 130.948 61.8049 130.902 61.8428C130.88 61.8656 130.849 61.8807 130.796 61.9111C130.773 61.9262 130.743 61.9414 130.69 61.9642C130.667 61.9794 130.637 61.9869 130.591 62.0021C130.561 62.0173 130.493 62.04 130.417 62.0628C130.386 62.0704 130.311 62.0931 130.25 62.1083C130.204 62.1235 130.098 62.1462 129.984 62.169C129.931 62.1842 129.886 62.1918 129.81 62.2069C129.734 62.2221 129.651 62.2373 129.575 62.2449C129.484 62.26 129.438 62.2676 129.294 62.2828C129.165 62.298 129.036 62.3131 128.915 62.3207C128.854 62.3283 128.793 62.3283 128.733 62.3359H128.71H128.702L128.505 62.3435C128.437 62.3435 128.361 62.3435 128.3 62.3435C128.232 62.3435 128.171 62.3359 128.118 62.3359C128.05 62.3283 128.035 62.3283 128.02 62.3283C127.845 62.3056 127.83 62.2904 127.792 62.2752C127.708 62.2373 127.701 62.2297 127.678 62.2069C127.648 62.1766 127.625 62.1538 127.61 62.1311C127.549 62.04 127.519 61.949 127.488 61.8656C127.428 61.6911 127.382 61.5166 127.344 61.3421C127.268 60.9931 127.215 60.6442 127.162 60.3028L127.033 59.2787C126.995 58.9221 127.033 58.5731 127.056 58.2469C127.086 57.9131 127.086 57.6249 127.048 57.3214L126.942 56.4187C126.912 56.1228 126.897 55.8193 126.927 55.5235C126.957 55.2276 127.018 54.9545 127.071 54.6966L127.124 54.3325L127.147 53.9835L127.185 53.3235C127.215 52.9062 127.223 52.5497 127.276 52.2538L127.397 51.5711C127.458 51.2449 127.534 50.9262 127.617 50.638C127.701 50.3725 127.739 50.1069 127.784 49.8338C127.837 49.5683 127.906 49.2952 128.035 49.0373C128.133 48.84 128.247 48.6656 128.376 48.5062C125.273 48.3394 121.768 48.1725 118.082 48.0207C118.18 48.1194 118.271 48.2331 118.355 48.3621C118.461 48.5214 118.552 48.6959 118.643 48.8931C118.726 49.1056 118.764 49.3331 118.772 49.5683L118.802 50.3042C118.825 50.5469 118.893 50.82 118.954 51.1007C119.015 51.3814 119.083 51.6849 119.113 52.0111C119.128 52.3221 119.182 52.6331 119.227 52.9669C119.265 53.3007 119.311 53.6573 119.25 54.029C119.197 54.4007 119.091 54.7725 119.045 55.129C118.984 55.4856 119.098 55.8194 119.197 56.1987C119.242 56.3883 119.288 56.5856 119.288 56.7904C119.28 57.0028 119.242 57.2076 119.189 57.4125C119.083 57.8221 118.924 58.2242 118.893 58.6111L118.81 59.8249C118.757 60.2042 118.681 60.5759 118.575 60.9552C118.522 61.1449 118.461 61.3345 118.377 61.5318C118.34 61.6304 118.286 61.729 118.233 61.8276C118.173 61.9262 118.112 62.0249 117.998 62.1462C117.968 62.1766 117.937 62.2069 117.884 62.2449C117.862 62.2676 117.831 62.2828 117.778 62.3131C117.755 62.3283 117.725 62.3435 117.672 62.3662C117.649 62.3814 117.619 62.389 117.573 62.4042C117.543 62.4193 117.475 62.4421 117.399 62.4649C117.368 62.4725 117.293 62.4952 117.232 62.5104C117.186 62.5256 117.08 62.5483 116.966 62.5711C116.913 62.5862 116.868 62.5938 116.792 62.6014C116.716 62.6166 116.633 62.6318 116.557 62.6394C116.466 62.6545 116.42 62.6621 116.276 62.6773C116.147 62.6925 116.018 62.7076 115.897 62.7152C115.836 62.7228 115.775 62.7228 115.715 62.7228H115.692H115.684L115.487 62.7304C115.419 62.7304 115.343 62.7304 115.282 62.7304C115.214 62.7304 115.153 62.7228 115.1 62.7228C115.032 62.7152 115.017 62.7152 115.002 62.7152C114.827 62.6925 114.812 62.6773 114.774 62.6621C114.683 62.6242 114.683 62.609 114.66 62.5938C114.63 62.5635 114.615 62.5407 114.592 62.518C114.531 62.4269 114.501 62.3359 114.471 62.2449C114.41 62.0704 114.372 61.8959 114.334 61.7214C114.258 61.3725 114.213 61.0235 114.167 60.6745L114.053 59.6504C114.023 59.2938 114.061 58.9449 114.084 58.6187C114.114 58.2849 114.122 57.9966 114.091 57.6931L113.993 56.7904C113.97 56.4945 113.947 56.1911 113.985 55.8952C114.023 55.5994 114.084 55.3262 114.137 55.0683L114.197 54.7042L114.228 54.3552L114.273 53.6952C114.311 53.278 114.319 52.9214 114.372 52.6256L114.501 51.9428C114.569 51.6166 114.645 51.3056 114.728 51.0097C114.812 50.7442 114.85 50.4787 114.903 50.2056C114.956 49.94 115.032 49.6669 115.161 49.409C115.297 49.1435 115.472 48.9159 115.654 48.7111C115.722 48.6352 115.791 48.5594 115.859 48.4911C115.897 48.2635 115.935 48.0738 115.98 47.9221C113.924 47.8462 111.831 47.7704 109.737 47.7097C109.722 47.7097 109.706 47.7097 109.684 47.7097C109.668 47.7097 109.653 47.7097 109.631 47.7097C108.538 47.74 107.446 47.778 106.353 47.8159C106.391 47.869 106.437 47.9221 106.467 47.9752C106.566 48.1345 106.664 48.309 106.748 48.5062C106.831 48.7187 106.862 48.9462 106.877 49.1814L106.9 49.9173C106.922 50.16 106.983 50.4331 107.044 50.7138C107.104 50.9945 107.173 51.298 107.195 51.6242C107.211 51.9352 107.256 52.2462 107.302 52.58C107.34 52.9138 107.377 53.2704 107.317 53.6421C107.264 54.0138 107.15 54.3856 107.104 54.7421C107.044 55.0987 107.15 55.4325 107.248 55.8118C107.294 56.0014 107.34 56.1987 107.332 56.4035C107.324 56.6159 107.279 56.8207 107.226 57.0256C107.112 57.4352 106.96 57.8373 106.922 58.2242L106.831 59.4304C106.771 59.8097 106.702 60.1814 106.588 60.5607C106.535 60.7504 106.467 60.94 106.391 61.1297C106.346 61.2283 106.3 61.3269 106.247 61.4256C106.186 61.5242 106.126 61.6228 106.012 61.7442C105.982 61.7745 105.944 61.8049 105.898 61.8428C105.875 61.8656 105.845 61.8807 105.792 61.9111C105.769 61.9262 105.739 61.9414 105.686 61.9642C105.663 61.9718 105.633 61.9869 105.587 62.0021C105.557 62.0173 105.488 62.04 105.413 62.0628C105.382 62.0704 105.306 62.0931 105.246 62.1083C105.193 62.1235 105.094 62.1462 104.98 62.169C104.92 62.1842 104.882 62.1918 104.806 62.1994C104.73 62.2145 104.646 62.2221 104.571 62.2373C104.48 62.2525 104.434 62.26 104.29 62.2752C104.161 62.2904 104.032 62.298 103.911 62.3056C103.85 62.3131 103.789 62.3131 103.728 62.3131H103.706H103.698L103.501 62.3207C103.433 62.3207 103.357 62.3207 103.296 62.3207C103.228 62.3207 103.167 62.3131 103.114 62.3131C103.046 62.3056 103.031 62.3056 103.015 62.3056C102.841 62.2752 102.826 62.2676 102.788 62.2525C102.704 62.2145 102.697 62.1994 102.682 62.1842C102.651 62.1538 102.636 62.1311 102.621 62.1083C102.56 62.0173 102.53 61.9262 102.5 61.8352C102.439 61.6607 102.401 61.4862 102.371 61.3118C102.302 60.9628 102.249 60.6138 102.211 60.2649L102.105 59.2407C102.075 58.8842 102.113 58.5352 102.143 58.209C102.173 57.8752 102.188 57.5869 102.158 57.2835L102.067 56.3807C102.044 56.0849 102.029 55.7814 102.067 55.4856C102.105 55.1897 102.173 54.9166 102.219 54.6662L102.28 54.3021L102.31 53.9531L102.355 53.2931C102.393 52.8759 102.408 52.5194 102.462 52.2235L102.591 51.5407C102.659 51.2221 102.742 50.9035 102.826 50.6076C102.909 50.3421 102.955 50.0766 103.008 49.8035C103.061 49.538 103.137 49.2649 103.273 49.0069C103.41 48.7414 103.592 48.5138 103.774 48.309C103.842 48.2331 103.911 48.1573 103.986 48.089C104.002 48.0131 104.009 47.9525 104.024 47.8842C101.081 47.998 98.2133 48.1194 95.5278 48.2483L95.5505 48.9842C95.5733 49.2269 95.634 49.5 95.6947 49.7807C95.7554 50.0614 95.8236 50.3649 95.8464 50.6911C95.8616 51.0021 95.9071 51.3131 95.9526 51.6469C95.9905 51.9807 96.0285 52.3373 95.9678 52.709C95.9147 53.0807 95.8009 53.4525 95.7554 53.809C95.6947 54.1656 95.8009 54.4994 95.8995 54.8787C95.945 55.0683 95.9905 55.2656 95.983 55.4704C95.9754 55.6828 95.9299 55.8876 95.8768 56.0925C95.763 56.5021 95.6112 56.9042 95.5733 57.2911L95.4823 58.4973C95.4216 58.8766 95.3533 59.2483 95.2395 59.6276C95.1864 59.8173 95.1257 60.0069 95.0423 60.1966C94.9967 60.2952 94.9512 60.3938 94.8981 60.4925C94.8374 60.5911 94.7768 60.6897 94.663 60.8111C94.6326 60.8414 94.5947 60.8718 94.5492 60.9097C94.5264 60.9325 94.4885 60.9476 94.443 60.978C94.4202 60.9931 94.3899 61.0083 94.3368 61.0311C94.314 61.0462 94.2837 61.0538 94.2381 61.069C94.2078 61.0842 94.1395 61.1069 94.0637 61.1297C94.0333 61.1373 93.9574 61.16 93.8968 61.1752C93.8437 61.1904 93.745 61.2131 93.6312 61.2359C93.5705 61.2511 93.5326 61.2587 93.4568 61.2662C93.3809 61.2814 93.2974 61.289 93.2216 61.3042C93.1305 61.3194 93.085 61.3269 92.9409 61.3421C92.8119 61.3573 92.683 61.3649 92.5616 61.3725C92.5009 61.38 92.4402 61.38 92.3795 61.38H92.3568H92.3492L92.1519 61.3876C92.0836 61.3876 92.0078 61.3876 91.9395 61.3876C91.8712 61.3876 91.8105 61.38 91.7574 61.38C91.6892 61.3725 91.674 61.3725 91.6588 61.3725C91.4843 61.3421 91.4692 61.3345 91.4312 61.3194C91.3478 61.2814 91.3402 61.2663 91.3174 61.2511C91.2871 61.2207 91.2719 61.198 91.2568 61.1752C91.1961 61.0842 91.1657 60.9931 91.1354 60.9021C91.0747 60.7276 91.0368 60.5531 91.0064 60.3787C90.9381 60.0297 90.885 59.6807 90.8471 59.3318L90.7409 58.3076C90.7105 57.9511 90.7485 57.6021 90.7788 57.2759C90.8092 56.9421 90.8243 56.6538 90.794 56.3504L90.703 55.4476C90.6802 55.1518 90.665 54.8483 90.703 54.5525C90.7409 54.2566 90.8092 53.9835 90.8547 53.7331L90.9154 53.369L90.9457 53.02L90.9912 52.36C91.0292 51.9428 91.0443 51.5862 91.0974 51.2904L91.2264 50.6076C91.2947 50.289 91.3781 49.9704 91.4616 49.6745C91.545 49.409 91.5905 49.1435 91.6437 48.8704C91.674 48.7262 91.7119 48.5745 91.7574 48.4304C84.3078 48.8173 79.0278 49.1814 79.0278 49.1814C78.7774 45.0242 75.7126 27.6669 69.3857 27.3104C62.0043 27.0145 52.3167 50.5242 50.1623 55.9104C50.1623 55.9104 45.2843 66.0987 40.7554 73.7835C29.854 92.2711 27.7071 110.205 28.1167 124.277C28.625 141.46 32.365 188.214 89.3678 191.719C96.1954 192.136 123.172 192.136 129.992 191.719C186.995 188.214 190.735 141.46 191.243 124.277C191.653 110.205 189.506 92.2711 178.612 73.7835ZM173.597 142.143C173.605 142.143 173.605 142.143 173.597 142.143L173.605 142.15C173.605 142.15 173.605 142.15 173.605 142.158L173.62 142.226C173.628 142.249 173.628 142.264 173.635 142.287C173.681 142.31 173.726 142.34 173.764 142.37C173.833 142.423 173.893 142.477 173.946 142.552C173.977 142.59 174.007 142.636 174.022 142.681C174.045 142.735 174.053 142.772 174.037 142.78C174.03 142.788 174.015 142.78 173.984 142.757C173.954 142.742 173.924 142.727 173.901 142.719C173.855 142.712 173.81 142.712 173.757 142.712C173.764 142.75 173.78 142.788 173.795 142.818C173.795 142.818 173.795 142.826 173.802 142.826C173.81 142.841 173.817 142.856 173.817 142.871C173.825 142.886 173.833 142.894 173.833 142.901C173.848 142.917 173.863 142.932 173.871 142.939C173.908 143.023 173.142 143.167 171.815 143.357C171.671 143.41 171.526 143.47 171.367 143.531C170.942 143.683 170.464 143.842 169.888 143.979C169.319 144.115 168.72 144.214 168.105 144.305C167.498 144.396 166.876 144.479 166.284 144.586C165.624 144.699 164.911 144.813 164.175 144.927L162.628 145.155C161.953 145.253 161.126 145.337 160.162 145.45L158.63 145.625L157.833 145.716L156.999 145.83C156.422 145.913 155.8 146.012 155.125 146.095C154.435 146.186 153.729 146.239 153.031 146.292L150.9 146.437C150.179 146.482 149.496 146.55 148.737 146.641C147.986 146.732 147.19 146.831 146.34 146.884L143.92 147.036C143.101 147.081 142.274 147.127 141.432 147.165C141.015 147.18 140.59 147.195 140.157 147.195C139.937 147.195 139.725 147.195 139.49 147.18C139.429 147.172 139.368 147.172 139.285 147.157C139.24 147.15 139.209 147.15 139.095 147.104C139.057 147.081 139.02 147.081 138.906 146.983C138.898 146.975 138.883 146.968 138.845 146.922C138.815 146.892 138.784 146.854 138.762 146.816C138.739 146.778 138.716 146.732 138.693 146.695L138.648 146.573V146.566V146.55C138.633 146.512 138.625 146.482 138.617 146.437C138.595 146.361 138.587 146.277 138.58 146.201C138.572 146.11 138.572 146.088 138.58 146.027C138.58 145.974 138.587 145.928 138.595 145.875C138.602 145.83 138.61 145.799 138.617 145.761C138.633 145.693 138.663 145.625 138.678 145.587C138.693 145.549 138.724 145.496 138.731 145.481C138.762 145.428 138.792 145.39 138.815 145.367C138.837 145.337 138.86 145.314 138.875 145.299C138.913 145.261 138.944 145.238 138.966 145.223C139.02 145.185 139.057 145.162 139.095 145.139C139.171 145.101 139.232 145.071 139.293 145.048C139.528 144.957 139.74 144.897 139.96 144.843C140.173 144.79 140.393 144.737 140.605 144.692C141.03 144.601 141.455 144.525 141.88 144.449C142.729 144.305 143.586 144.176 144.451 144.062L147.251 143.751C148.138 143.645 149.026 143.463 149.959 143.311C150.422 143.235 150.892 143.159 151.377 143.114C151.863 143.068 152.341 143.053 152.788 143.038C153.706 143.015 154.518 143.008 155.33 142.894C156.157 142.788 156.991 142.644 157.841 142.53C158.698 142.416 159.548 142.355 160.337 142.31C161.133 142.264 161.877 142.226 162.605 142.166C163.371 142.105 164.1 142.082 164.782 142.059C165.457 142.037 166.11 142.014 166.679 141.976L168.401 141.832C168.962 141.786 169.508 141.756 170.024 141.763C170.51 141.771 170.95 141.794 171.36 141.817C172.164 141.87 172.801 141.961 173.248 142.105C173.271 142.112 173.294 142.12 173.324 142.128C173.4 142.12 173.476 142.112 173.529 142.12C173.56 142.12 173.582 142.12 173.597 142.12C173.59 142.135 173.597 142.135 173.597 142.143ZM146.416 47.0876C146.446 45.4414 146.568 43.4842 147.053 41.2766C147.182 40.7228 147.326 40.1538 147.531 39.5621C147.736 38.9704 147.979 38.3559 148.381 37.6959C148.586 37.3697 148.828 37.0283 149.185 36.6794C149.367 36.5049 149.572 36.338 149.83 36.1787C150.08 36.0269 150.391 35.8904 150.725 35.8069C151.059 35.7235 151.423 35.7007 151.764 35.7387C152.106 35.7766 152.417 35.86 152.682 35.9738C153.221 36.2014 153.608 36.4897 153.934 36.778C154.579 37.3621 154.988 37.9311 155.375 38.5076C155.762 39.1069 156.035 39.6228 156.316 40.1538C156.87 41.2007 157.355 42.2097 157.803 43.1807C158.698 45.1228 159.426 46.9056 159.965 48.4456C160.504 49.9856 160.837 51.2752 160.951 52.2235C161.012 52.6938 161.004 53.0883 160.951 53.3614C160.891 53.6421 160.769 53.7938 160.648 53.7862C160.526 53.7787 160.413 53.6876 160.253 53.5056C160.102 53.3235 159.904 53.0428 159.662 52.6711C159.176 51.9352 158.516 50.8352 157.712 49.4697C156.908 48.1042 155.967 46.4656 154.928 44.6449L153.304 41.8076C153.024 41.3297 152.735 40.8214 152.462 40.4269C152.182 40.0173 151.863 39.6228 151.597 39.3876C151.552 39.3421 151.506 39.3118 151.468 39.2814C151.408 39.3497 151.34 39.4331 151.271 39.5318C151.051 39.8504 150.846 40.2752 150.664 40.7228C150.482 41.1704 150.315 41.6331 150.171 42.1035C149.587 43.9849 149.208 45.8207 148.874 47.3531C148.222 50.4256 147.827 52.3828 147.342 52.3828C146.871 52.398 146.386 50.38 146.416 47.0876ZM145.02 98.9014C145.013 99.2504 145.005 99.5918 144.982 99.9104L144.906 100.813C144.777 98.7042 144.777 96.58 145.013 94.5014C145.013 94.5318 145.013 94.5621 145.013 94.5849C144.997 96.049 145.043 97.5056 145.02 98.9014ZM144.648 87.9318C144.618 87.9925 144.588 88.0456 144.557 88.1063C144.656 87.5676 144.77 87.029 144.914 86.5056C145.111 85.7925 145.346 85.0945 145.657 84.4421C145.968 83.7973 146.386 83.16 146.924 82.8187C147.311 82.5987 147.592 82.5456 147.873 82.6897C147.675 82.9097 147.501 83.1297 147.342 83.3497C147.068 83.729 146.848 84.1159 146.651 84.5028C146.249 85.1097 145.961 85.7469 145.741 86.3842C145.301 86.8697 144.944 87.3932 144.648 87.9318ZM151.514 84.0856C151.332 83.9035 151.142 83.7366 150.93 83.5773C150.907 83.5318 150.892 83.4863 150.869 83.4331C150.839 83.3649 150.801 83.2966 150.771 83.2359C150.892 83.2966 151.013 83.3573 151.135 83.418C151.271 83.638 151.4 83.858 151.514 84.0856ZM150.361 98.8104C150.353 99.3035 150.346 99.7966 150.346 100.297C150.353 101.101 150.376 101.898 150.399 102.687C150.315 104.477 150.103 106.268 149.739 108.028C149.382 105.668 149.147 103.301 149.064 100.935C148.988 98.5904 149.064 96.2538 149.367 93.9552C149.405 93.6897 149.443 93.4318 149.481 93.1662C149.58 93.538 149.671 93.9173 149.746 94.289C150.073 95.7835 150.262 97.2931 150.361 98.8104ZM147.637 112.951C147.744 113.201 147.857 113.452 147.979 113.702C147.979 113.71 147.971 113.71 147.971 113.717C147.895 113.573 147.827 113.429 147.751 113.285C147.706 113.194 147.668 113.103 147.63 113.012C147.637 112.989 147.637 112.966 147.637 112.951ZM147.637 88.9483C147.66 88.7435 147.698 88.5387 147.736 88.3338C147.766 88.3945 147.797 88.4628 147.827 88.5235C147.759 88.6676 147.698 88.8118 147.637 88.9483ZM147.842 87.7497C147.842 87.7345 147.85 87.7194 147.857 87.6966C147.873 87.7118 147.88 87.7345 147.895 87.7497H147.842ZM147.903 87.5449C147.948 87.3552 147.994 87.1656 148.055 86.9759C148.062 86.9456 148.077 86.9152 148.085 86.8849C148.237 86.7787 148.381 86.68 148.54 86.5966C148.571 86.6421 148.601 86.6952 148.631 86.7407C148.525 86.9911 148.426 87.2414 148.328 87.4994L147.903 87.5449ZM149.322 81.4759C149.215 81.4076 149.102 81.3394 148.973 81.2711C149.177 81.2711 149.39 81.2711 149.595 81.2711C149.625 81.2711 149.655 81.2635 149.686 81.2635C149.564 81.3318 149.443 81.4 149.322 81.4759ZM152.477 113.672C152.971 112.223 153.32 110.751 153.585 109.272C154.116 106.313 154.328 103.317 154.336 100.297C154.336 99.5387 154.328 98.7876 154.298 98.029C154.268 97.369 154.321 96.6483 154.366 95.92C154.473 94.4559 154.624 92.9463 154.693 91.3987C154.753 89.8511 154.746 88.258 154.465 86.6194C154.366 86.0428 154.23 85.4511 154.04 84.8669C154.442 85.049 154.86 85.269 155.292 85.5269C156.657 86.3538 157.97 87.5373 159.07 88.9635C159.624 89.669 160.124 90.4352 160.572 91.2242C160.8 91.6187 161.012 92.0283 161.209 92.4228C161.414 92.84 161.604 93.2421 161.786 93.6594C162.575 95.5028 163.166 97.7104 163.318 100.032C163.386 101.139 163.424 102.823 163.037 104.948C162.643 107.057 161.74 109.613 159.973 112.003C159.085 113.186 157.985 114.317 156.665 115.25C155.982 115.735 155.33 116.107 154.632 116.448C153.926 116.797 153.175 117.101 152.371 117.343C151.787 117.518 151.173 117.662 150.535 117.768C151.4 116.433 152 115.06 152.477 113.672ZM150.588 82.9021C150.581 82.8945 150.581 82.8869 150.573 82.8794C150.611 82.8566 150.657 82.8263 150.695 82.8035C150.725 82.8414 150.748 82.8718 150.771 82.9097C150.717 82.9021 150.649 82.9021 150.588 82.9021ZM120.031 73.6621C120.062 73.3662 120.13 73.0931 120.175 72.8352L120.228 72.4711L120.251 72.1221L120.289 71.4621C120.32 71.0449 120.327 70.6883 120.38 70.3925L120.502 69.7097C120.562 69.3835 120.638 69.0649 120.722 68.7766C120.805 68.5111 120.835 68.2456 120.888 67.9725C120.942 67.7069 121.01 67.4338 121.139 67.1759C121.268 66.9104 121.442 66.6828 121.624 66.4704C121.693 66.3945 121.761 66.3187 121.829 66.2504C121.92 65.6662 122.034 65.3173 122.171 65.3173C122.193 65.3173 122.216 65.3173 122.246 65.3249C122.262 65.3249 122.277 65.3249 122.307 65.3249C122.284 65.3249 122.269 65.3249 122.254 65.3249C122.375 65.3476 122.497 65.4311 122.611 65.5676C122.611 65.5525 122.603 65.5449 122.603 65.5297L122.573 65.3173V65.3097C122.573 65.2869 122.565 65.2718 122.542 65.249C122.527 65.2414 122.497 65.2338 122.466 65.2262C122.428 65.2187 122.398 65.2187 122.421 65.2111C122.436 65.2035 122.497 65.1959 122.58 65.1959C122.656 65.1959 122.74 65.1959 122.8 65.1959C122.929 65.2035 123.028 65.2111 123.119 65.2262C123.172 65.2338 123.217 65.249 123.263 65.2566C123.301 65.2566 123.331 65.249 123.369 65.249L123.475 65.2414C123.483 65.2414 123.483 65.2414 123.483 65.2414H123.491H123.498C123.506 65.2414 123.506 65.2414 123.513 65.249C123.521 65.2566 123.528 65.2642 123.528 65.2794C123.536 65.3021 123.544 65.3325 123.544 65.3628C123.559 65.3704 123.582 65.378 123.597 65.3856C123.885 65.5373 124.128 65.7725 124.34 66.0911C124.446 66.2504 124.545 66.4249 124.628 66.6221C124.712 66.8345 124.75 67.0621 124.765 67.2973L124.795 68.0331C124.818 68.2759 124.886 68.549 124.955 68.8297C125.015 69.1104 125.091 69.4138 125.122 69.74C125.137 70.0511 125.19 70.3621 125.243 70.6959C125.288 71.0297 125.334 71.3862 125.273 71.7656C125.228 72.1373 125.122 72.509 125.084 72.8731C125.023 73.2297 125.137 73.5635 125.243 73.9352C125.296 74.1249 125.334 74.3145 125.334 74.5269C125.334 74.7394 125.288 74.9442 125.243 75.149C125.137 75.5587 124.985 75.9683 124.955 76.3476L124.886 77.5614C124.833 77.9407 124.765 78.3125 124.666 78.6994C124.613 78.889 124.553 79.0787 124.477 79.2759C124.439 79.3745 124.393 79.4731 124.34 79.5718C124.28 79.6704 124.226 79.769 124.113 79.8904C124.082 79.9207 124.052 79.9511 123.999 79.989C123.976 80.0118 123.946 80.0269 123.893 80.0573C123.87 80.0725 123.84 80.0876 123.786 80.1104C123.764 80.1256 123.733 80.1331 123.688 80.1483C123.657 80.1635 123.589 80.1863 123.513 80.209C123.483 80.2166 123.407 80.2394 123.346 80.2545C123.301 80.2697 123.195 80.2925 123.081 80.3152C123.028 80.3304 122.982 80.338 122.906 80.3531C122.831 80.3683 122.747 80.3835 122.671 80.3911C122.58 80.4062 122.535 80.4138 122.391 80.429C122.262 80.4442 122.133 80.4594 122.011 80.4669C121.951 80.4745 121.89 80.4745 121.829 80.4821H121.806H121.799L121.602 80.4897C121.533 80.4897 121.457 80.4897 121.397 80.4897C121.328 80.4897 121.268 80.4821 121.215 80.4821C121.146 80.4745 121.131 80.4745 121.116 80.4745C120.942 80.4518 120.926 80.4366 120.888 80.4214C120.797 80.3835 120.797 80.3683 120.775 80.3531C120.744 80.3228 120.722 80.3 120.706 80.2773C120.646 80.1862 120.615 80.0952 120.585 80.0118C120.524 79.8373 120.479 79.6628 120.441 79.4883C120.365 79.1394 120.312 78.7904 120.259 78.449L120.13 77.4249C120.092 77.0683 120.13 76.7193 120.153 76.3931C120.183 76.0593 120.183 75.7711 120.153 75.4676L120.046 74.5649C120.016 74.269 120.001 73.9656 120.031 73.6621ZM114.304 88.6297C114.364 88.3035 114.44 87.9849 114.524 87.689C114.607 87.4235 114.637 87.158 114.691 86.8849C114.744 86.6194 114.812 86.3463 114.941 86.0883C115.07 85.8228 115.244 85.5952 115.426 85.3828C115.495 85.3069 115.563 85.2311 115.631 85.1628C115.722 84.5787 115.836 84.2297 115.973 84.2297C115.995 84.2297 116.018 84.2297 116.041 84.2373C116.056 84.2373 116.071 84.2373 116.102 84.2373C116.079 84.2373 116.064 84.2373 116.048 84.2373C116.17 84.26 116.291 84.3435 116.405 84.48C116.405 84.4725 116.397 84.4573 116.397 84.4421L116.367 84.2297V84.2221C116.367 84.1994 116.36 84.1842 116.337 84.1614C116.322 84.1538 116.291 84.1463 116.261 84.1387C116.223 84.1311 116.193 84.1311 116.215 84.1235C116.231 84.1159 116.291 84.1083 116.382 84.1083C116.458 84.1083 116.542 84.1083 116.602 84.1083C116.731 84.1159 116.83 84.1235 116.921 84.1387C116.974 84.1463 117.02 84.1614 117.065 84.169C117.103 84.169 117.133 84.1614 117.171 84.1614L117.277 84.1538C117.285 84.1538 117.285 84.1538 117.285 84.1538H117.293H117.3C117.308 84.1538 117.308 84.1538 117.315 84.1614C117.323 84.169 117.331 84.1766 117.331 84.1918C117.338 84.2145 117.346 84.2449 117.346 84.2752C117.361 84.2828 117.384 84.2904 117.399 84.298C117.687 84.4497 117.93 84.6849 118.142 85.0035C118.248 85.1628 118.347 85.3373 118.431 85.5345C118.514 85.7469 118.552 85.9745 118.567 86.2097L118.597 86.9456C118.62 87.1883 118.688 87.4614 118.757 87.7421C118.825 88.0228 118.893 88.3263 118.924 88.6525C118.939 88.9635 118.992 89.2745 119.045 89.6083C119.091 89.9421 119.136 90.2987 119.083 90.678C119.037 91.0497 118.931 91.4214 118.893 91.7856C118.833 92.1421 118.946 92.4759 119.053 92.8552C119.106 93.0449 119.144 93.2345 119.144 93.4469C119.144 93.6594 119.098 93.8642 119.053 94.069C118.946 94.4787 118.795 94.8883 118.764 95.2676L118.696 96.4814C118.643 96.8607 118.575 97.2325 118.476 97.6118C118.423 97.8014 118.362 97.9911 118.286 98.1883C118.248 98.2869 118.203 98.3856 118.15 98.4842C118.089 98.5828 118.036 98.6814 117.922 98.8028C117.892 98.8331 117.862 98.8635 117.808 98.9014C117.786 98.9242 117.755 98.9394 117.702 98.9697C117.68 98.9849 117.649 99 117.596 99.0228C117.573 99.038 117.543 99.0456 117.497 99.0607C117.467 99.0759 117.399 99.0987 117.323 99.1214C117.293 99.129 117.217 99.1518 117.156 99.1669C117.111 99.1821 117.004 99.2049 116.891 99.2276C116.837 99.2428 116.792 99.2504 116.716 99.2656C116.64 99.2807 116.557 99.2959 116.473 99.3035C116.382 99.3187 116.344 99.3262 116.193 99.3414C116.064 99.3566 115.935 99.3718 115.813 99.3794C115.753 99.3869 115.692 99.3869 115.631 99.3945H115.608H115.601L115.404 99.4021C115.335 99.4021 115.26 99.4021 115.199 99.4021C115.131 99.4021 115.07 99.3945 115.009 99.3945C114.941 99.3869 114.926 99.3869 114.911 99.3869C114.736 99.3642 114.721 99.349 114.683 99.3338C114.6 99.2959 114.592 99.2883 114.569 99.2656C114.539 99.2352 114.516 99.2125 114.501 99.1897C114.44 99.0987 114.41 99.0076 114.38 98.9242C114.319 98.7497 114.281 98.5752 114.235 98.4007C114.16 98.0518 114.106 97.7028 114.053 97.3614L113.924 96.3373C113.886 95.9807 113.924 95.6318 113.947 95.3056C113.977 94.9718 113.977 94.6835 113.947 94.38L113.841 93.4773C113.811 93.1814 113.795 92.878 113.826 92.5821C113.856 92.2862 113.917 92.0131 113.962 91.7552L114.015 91.3911L114.038 91.0421L114.076 90.3821C114.106 89.9649 114.114 89.6083 114.167 89.3125L114.304 88.6297ZM108.872 74.7697C108.902 74.4738 108.971 74.2007 109.016 73.9428L109.069 73.5787L109.092 73.2297L109.13 72.5697C109.16 72.1525 109.168 71.7959 109.221 71.5L109.342 70.8173C109.403 70.4911 109.479 70.1725 109.562 69.8842C109.646 69.6187 109.676 69.3456 109.729 69.08C109.782 68.8145 109.851 68.5414 109.98 68.2835C110.108 68.018 110.283 67.7904 110.465 67.578C110.533 67.5021 110.602 67.4263 110.67 67.358C110.761 66.7738 110.875 66.4249 111.011 66.4249C111.034 66.4249 111.057 66.4249 111.087 66.4325C111.102 66.4325 111.117 66.4325 111.148 66.4325C111.125 66.4325 111.11 66.4325 111.095 66.4325C111.216 66.4552 111.337 66.5387 111.451 66.6752C111.451 66.6676 111.444 66.6525 111.444 66.6373L111.413 66.4249V66.4173C111.413 66.3945 111.406 66.3794 111.383 66.3566C111.368 66.349 111.337 66.3414 111.307 66.3338C111.269 66.3262 111.246 66.3262 111.262 66.3187C111.277 66.3111 111.337 66.3035 111.421 66.3035C111.497 66.3035 111.58 66.3035 111.641 66.3035C111.77 66.3111 111.868 66.3187 111.96 66.3338C112.013 66.3414 112.058 66.3566 112.104 66.3642C112.142 66.3642 112.172 66.3566 112.21 66.3566L112.316 66.349C112.324 66.349 112.324 66.349 112.324 66.349H112.331H112.339C112.346 66.349 112.346 66.349 112.354 66.3566C112.362 66.3642 112.369 66.3718 112.369 66.3869C112.377 66.4097 112.384 66.44 112.384 66.4704C112.4 66.478 112.422 66.4856 112.437 66.4931C112.726 66.6449 112.968 66.88 113.181 67.1987C113.287 67.358 113.386 67.5325 113.469 67.7297C113.553 67.9421 113.591 68.1697 113.606 68.4049L113.636 69.1407C113.659 69.3835 113.727 69.649 113.795 69.9297C113.864 70.2104 113.932 70.5138 113.962 70.84C113.977 71.1511 114.031 71.4621 114.084 71.7959C114.129 72.1297 114.175 72.4862 114.114 72.8656C114.068 73.2373 113.962 73.609 113.924 73.9731C113.864 74.3297 113.977 74.6635 114.084 75.0352C114.137 75.2249 114.175 75.4145 114.175 75.6269C114.175 75.8394 114.129 76.0442 114.084 76.249C113.977 76.6587 113.826 77.0683 113.795 77.4476L113.727 78.6614C113.674 79.0407 113.606 79.4125 113.507 79.7918C113.454 79.9814 113.393 80.1711 113.317 80.3683C113.28 80.4669 113.234 80.5656 113.181 80.6642C113.12 80.7628 113.067 80.8614 112.953 80.9828C112.923 81.0131 112.893 81.0435 112.84 81.0814C112.817 81.1042 112.786 81.1194 112.733 81.1497C112.711 81.1649 112.68 81.18 112.627 81.2028C112.604 81.218 112.574 81.2256 112.528 81.2407C112.498 81.2559 112.43 81.2787 112.354 81.3014C112.324 81.309 112.248 81.3318 112.187 81.3469C112.142 81.3621 112.035 81.3849 111.922 81.4076C111.861 81.4228 111.823 81.4304 111.747 81.4456C111.671 81.4607 111.588 81.4759 111.512 81.4835C111.421 81.4987 111.375 81.5062 111.231 81.5214C111.11 81.5366 110.973 81.5518 110.852 81.5594C110.791 81.5669 110.731 81.5669 110.67 81.5745H110.647H110.64L110.442 81.5821C110.374 81.5821 110.298 81.5821 110.237 81.5821C110.169 81.5821 110.108 81.5745 110.055 81.5745C109.987 81.5669 109.972 81.5669 109.957 81.5669C109.782 81.5442 109.767 81.529 109.729 81.5138C109.646 81.4759 109.638 81.4607 109.615 81.4456C109.585 81.4152 109.562 81.3925 109.547 81.3697C109.486 81.2787 109.456 81.1876 109.426 81.1042C109.365 80.9297 109.327 80.7552 109.282 80.5807C109.206 80.2318 109.153 79.8828 109.1 79.5414L108.971 78.5173C108.933 78.1607 108.971 77.8118 108.993 77.4856C109.024 77.1518 109.024 76.8635 108.993 76.56L108.887 75.6573C108.857 75.369 108.842 75.0731 108.872 74.7697ZM104.464 92.3394C104.495 92.0435 104.555 91.7704 104.608 91.5125L104.662 91.1483L104.684 90.7994L104.722 90.1394C104.753 89.7221 104.76 89.3656 104.813 89.0697L104.935 88.3869C104.995 88.0607 105.071 87.7421 105.155 87.4538C105.238 87.1883 105.268 86.9228 105.322 86.6497C105.375 86.3842 105.443 86.1111 105.572 85.8531C105.701 85.5876 105.875 85.36 106.057 85.1476C106.126 85.0718 106.194 84.9959 106.262 84.9276C106.353 84.3435 106.467 83.9945 106.604 83.9945C106.626 83.9945 106.649 83.9945 106.68 84.0021C106.695 84.0021 106.71 84.0021 106.733 84.0021C106.71 84.0021 106.695 84.0021 106.68 84.0021C106.801 84.0249 106.922 84.1083 107.036 84.2449C107.036 84.2373 107.028 84.2221 107.028 84.2069L106.998 83.9945V83.9869C106.998 83.9642 106.991 83.949 106.968 83.9262C106.953 83.9187 106.922 83.9111 106.892 83.9035C106.846 83.8959 106.831 83.8959 106.846 83.8883C106.862 83.8807 106.922 83.8731 107.006 83.8731C107.082 83.8731 107.165 83.8731 107.226 83.8731C107.355 83.8807 107.453 83.8883 107.544 83.9035C107.597 83.9111 107.643 83.9263 107.688 83.9338C107.726 83.9338 107.757 83.9262 107.795 83.9262L107.901 83.9187C107.916 83.9187 107.908 83.9187 107.916 83.9187H107.924H107.931C107.939 83.9187 107.939 83.9187 107.946 83.9262C107.954 83.9338 107.962 83.9414 107.969 83.9566C107.977 83.9794 107.984 84.0097 107.984 84.04C108 84.0476 108.022 84.0552 108.037 84.0628C108.326 84.2145 108.568 84.4497 108.781 84.7683C108.887 84.9276 108.986 85.1021 109.069 85.2994C109.153 85.5118 109.191 85.7394 109.206 85.9745L109.236 86.7104C109.259 86.9531 109.327 87.2187 109.395 87.4994C109.464 87.78 109.532 88.0835 109.562 88.4097C109.577 88.7207 109.631 89.0318 109.684 89.3656C109.729 89.6994 109.775 90.0559 109.714 90.4276C109.668 90.7994 109.562 91.1711 109.524 91.5352C109.464 91.8918 109.577 92.2256 109.684 92.5973C109.737 92.7869 109.775 92.9766 109.775 93.189C109.775 93.4014 109.729 93.6063 109.684 93.8111C109.577 94.2207 109.426 94.6304 109.395 95.0097L109.327 96.2235C109.274 96.6028 109.206 96.9745 109.107 97.3614C109.054 97.5511 108.993 97.7407 108.917 97.938C108.88 98.0366 108.834 98.1352 108.781 98.2338C108.72 98.3325 108.667 98.4311 108.553 98.5525C108.523 98.5828 108.493 98.6131 108.44 98.6511C108.417 98.6738 108.386 98.689 108.333 98.7194C108.311 98.7345 108.28 98.7497 108.227 98.7725C108.204 98.7876 108.174 98.7952 108.128 98.8104C108.098 98.8256 108.03 98.8483 107.954 98.8711C107.924 98.8787 107.848 98.9014 107.787 98.9166C107.742 98.9318 107.635 98.9545 107.522 98.9773C107.461 98.9925 107.423 99 107.347 99.0152C107.271 99.0304 107.188 99.0456 107.112 99.0531C107.021 99.0683 106.975 99.0759 106.831 99.0911C106.702 99.1063 106.573 99.1214 106.452 99.129C106.391 99.1366 106.331 99.1366 106.27 99.1442H106.247H106.24L106.042 99.1518C105.974 99.1518 105.898 99.1518 105.837 99.1518C105.769 99.1518 105.708 99.1442 105.648 99.1442C105.58 99.1366 105.564 99.1366 105.549 99.1366C105.375 99.1138 105.36 99.0987 105.322 99.0835C105.238 99.0456 105.231 99.038 105.208 99.0152C105.177 98.9849 105.155 98.9621 105.14 98.9394C105.079 98.8483 105.048 98.7573 105.018 98.6738C104.957 98.4994 104.912 98.3249 104.874 98.1504C104.798 97.8014 104.745 97.4525 104.692 97.1111L104.563 96.0869C104.525 95.7304 104.563 95.3814 104.586 95.0552C104.616 94.7214 104.616 94.4332 104.586 94.1297L104.48 93.2269C104.449 92.9463 104.426 92.6428 104.464 92.3394ZM96.9843 74.4207C97.0147 74.1249 97.083 73.8518 97.1285 73.5938L97.1816 73.2297L97.2043 72.8807L97.2423 72.2207C97.2726 71.8035 97.2802 71.4469 97.3333 71.1511L97.4547 70.4683C97.5154 70.1421 97.5912 69.8235 97.6747 69.5352C97.7581 69.2697 97.7885 69.0042 97.8416 68.7311C97.8947 68.4656 97.963 68.1925 98.0919 67.9345C98.2209 67.669 98.3954 67.4414 98.5774 67.229C98.6457 67.1531 98.714 67.0773 98.7823 67.009C98.8733 66.4249 98.9871 66.0759 99.1237 66.0759C99.1464 66.0759 99.1692 66.0759 99.1995 66.0835C99.2147 66.0835 99.2299 66.0835 99.2526 66.0835C99.2299 66.0835 99.2147 66.0835 99.1995 66.0835C99.3209 66.1062 99.4423 66.1897 99.5561 66.3262C99.5561 66.3187 99.5485 66.3035 99.5485 66.2883L99.5181 66.0759V66.0683C99.5181 66.0456 99.5105 66.0304 99.4878 66.0076C99.4726 66 99.4423 65.9925 99.4119 65.9849C99.374 65.9773 99.3437 65.9773 99.3664 65.9697C99.3816 65.9621 99.4423 65.9545 99.5257 65.9545C99.6016 65.9545 99.685 65.9545 99.7457 65.9545C99.8747 65.9621 99.9733 65.9697 100.064 65.9849C100.117 65.9925 100.163 66.0076 100.208 66.0152C100.246 66.0152 100.277 66.0076 100.315 66.0076L100.413 66C100.428 66 100.421 66 100.428 66H100.436H100.444C100.451 66 100.451 66 100.459 66.0076C100.466 66.0152 100.474 66.0228 100.474 66.038C100.482 66.0607 100.489 66.0911 100.489 66.1214C100.504 66.129 100.527 66.1366 100.542 66.1442C100.831 66.2959 101.073 66.5311 101.286 66.8497C101.392 67.009 101.491 67.1835 101.574 67.3807C101.657 67.5931 101.695 67.8207 101.711 68.0559L101.741 68.7918C101.764 69.0345 101.832 69.3076 101.9 69.5883C101.968 69.869 102.037 70.1725 102.067 70.4987C102.082 70.8097 102.143 71.1207 102.188 71.4545C102.234 71.7883 102.28 72.1449 102.219 72.5242C102.173 72.8959 102.067 73.2676 102.029 73.6318C101.968 73.9883 102.082 74.3221 102.188 74.6938C102.242 74.8835 102.28 75.0731 102.28 75.2856C102.28 75.498 102.234 75.7028 102.188 75.9076C102.082 76.3173 101.931 76.7269 101.9 77.1062L101.832 78.32C101.779 78.6994 101.711 79.0711 101.612 79.4504C101.559 79.64 101.498 79.8297 101.422 80.0269C101.384 80.1256 101.339 80.2242 101.286 80.3228C101.225 80.4214 101.172 80.52 101.058 80.6414C101.028 80.6718 100.997 80.7021 100.944 80.74C100.922 80.7628 100.891 80.778 100.838 80.8083C100.815 80.8235 100.785 80.8387 100.732 80.8614C100.709 80.8766 100.679 80.8842 100.633 80.8994C100.603 80.9145 100.535 80.9373 100.459 80.96C100.428 80.9676 100.353 80.9904 100.292 81.0056C100.246 81.0207 100.14 81.0435 100.026 81.0662C99.9657 81.0814 99.9278 81.089 99.8519 81.1042C99.7761 81.1194 99.6926 81.1345 99.6168 81.1421C99.5257 81.1573 99.4802 81.1649 99.3361 81.18C99.2071 81.1952 99.0781 81.2104 98.9568 81.218C98.8961 81.2256 98.8354 81.2256 98.7747 81.2331H98.7519H98.7443L98.5471 81.2407C98.4788 81.2407 98.403 81.2407 98.3347 81.2407C98.2664 81.2407 98.2057 81.2331 98.1526 81.2331C98.0843 81.2256 98.0692 81.2256 98.054 81.2256C97.8795 81.2028 97.8643 81.1876 97.8264 81.1725C97.743 81.1345 97.7354 81.1269 97.7126 81.1042C97.6823 81.0738 97.6595 81.0511 97.6443 81.0283C97.5836 80.9373 97.5533 80.8462 97.523 80.7628C97.4623 80.5883 97.4243 80.4138 97.3788 80.2393C97.303 79.8904 97.2499 79.5414 97.2043 79.2L97.0754 78.1759C97.0374 77.8194 97.0754 77.4704 97.0981 77.1442C97.1285 76.8104 97.1285 76.5221 97.0906 76.2187L96.9843 75.3159C96.9692 75.02 96.9464 74.7166 96.9843 74.4207ZM74.3774 114.514C74.3774 114.521 74.3699 114.521 74.3699 114.529C74.294 114.385 74.2257 114.241 74.1574 114.097C74.1119 114.006 74.074 113.915 74.0361 113.823C74.0361 113.808 74.0361 113.786 74.0361 113.77C74.1423 114.013 74.2561 114.263 74.3774 114.514ZM74.294 88.3642C74.3395 88.1745 74.385 87.9849 74.4457 87.7952C74.4533 87.7649 74.4685 87.7345 74.4761 87.7042C74.6202 87.598 74.7719 87.4994 74.9312 87.4159C74.9616 87.4614 74.9919 87.5145 75.0223 87.56C74.9161 87.8104 74.8174 88.0607 74.7188 88.3187L74.294 88.3642ZM74.0285 89.7676C74.0512 89.5628 74.0892 89.358 74.1195 89.1531C74.1499 89.2138 74.1878 89.2821 74.2105 89.3428C74.1574 89.4869 74.0892 89.6235 74.0285 89.7676ZM74.2409 88.569C74.2485 88.5538 74.2485 88.5387 74.2561 88.5159C74.2712 88.5311 74.2788 88.5538 74.294 88.569H74.2409ZM73.7478 84.1538C73.4747 84.5331 73.2547 84.92 73.0574 85.3069C72.663 85.9138 72.3671 86.5511 72.1471 87.1883C71.6919 87.6814 71.3354 88.2049 71.0395 88.7359C71.0092 88.7966 70.9788 88.8497 70.9485 88.9104C71.0471 88.3718 71.1685 87.8331 71.305 87.3021C71.4947 86.589 71.7299 85.8911 72.0485 85.2387C72.3595 84.5938 72.7767 83.9566 73.3154 83.6152C73.7023 83.3952 73.983 83.3421 74.2712 83.4863C74.0816 83.7138 73.9071 83.9338 73.7478 84.1538ZM71.4188 99.7207C71.4112 100.07 71.4036 100.411 71.3809 100.73L71.305 101.632C71.1761 99.5235 71.1761 97.3994 71.4112 95.3207C71.4112 95.3511 71.4112 95.3814 71.4112 95.4042C71.3961 96.8683 71.434 98.3249 71.4188 99.7207ZM70.865 83.4256C70.2733 84.2145 69.9471 84.9959 69.6664 85.7773C69.4616 86.3614 69.3023 86.938 69.1581 87.5145C69.1126 87.4842 69.0595 87.4614 68.9836 87.4387C68.9533 87.4311 68.9154 87.4235 68.8699 87.4387C68.8243 87.4538 68.7864 87.4918 68.7712 87.5221C68.7409 87.5904 68.7409 87.6511 68.7485 87.7118C68.7712 87.9469 68.8623 88.1973 68.9533 88.4931C68.6878 89.889 68.5209 91.2773 68.4223 92.6504C68.2023 95.6697 68.2402 98.6587 68.4374 101.61C68.6423 104.561 68.9988 107.481 69.5981 110.349C69.6133 110.417 69.6285 110.486 69.6436 110.554C69.6892 110.933 69.7347 111.312 69.803 111.692C70.0381 113.027 70.3947 114.385 71.1154 115.728C71.2595 115.993 71.4264 116.251 71.6009 116.517C71.6388 116.585 71.6692 116.646 71.7071 116.714C71.9043 117.063 72.1167 117.412 72.3974 117.753C72.443 117.806 72.4885 117.859 72.534 117.92C71.343 117.859 70.2126 117.647 69.1657 117.336C68.3616 117.093 67.603 116.79 66.905 116.441C66.2071 116.099 65.5547 115.72 64.8719 115.242C63.5519 114.309 62.4519 113.179 61.5643 111.995C59.7968 109.606 58.894 107.049 58.4995 104.94C58.1126 102.816 58.1505 101.132 58.2188 100.024C58.3781 97.7028 58.9623 95.4952 59.7512 93.6518C59.9333 93.2345 60.1154 92.8325 60.3278 92.4152C60.525 92.0207 60.7374 91.6111 60.965 91.2166C61.4126 90.4276 61.9209 89.6614 62.4671 88.9559C63.5671 87.5373 64.8795 86.3463 66.245 85.5194C67.1554 84.9731 68.0126 84.609 68.8167 84.3587C69.5678 83.858 70.3568 83.418 71.1685 83.0538C71.0623 83.1752 70.9636 83.2966 70.865 83.4256ZM68.923 87.78C68.923 87.7876 68.923 87.78 68.923 87.78V87.78ZM76.7974 103.506C76.714 105.297 76.5016 107.087 76.1374 108.847C75.7733 106.488 75.5457 104.121 75.4623 101.754C75.3864 99.4097 75.4623 97.0732 75.7657 94.7745C75.8036 94.509 75.8416 94.2511 75.8795 93.9856C75.9781 94.3573 76.0692 94.7366 76.145 95.1083C76.4636 96.6028 76.6533 98.1125 76.7519 99.6297C76.7443 100.123 76.7368 100.616 76.7368 101.117C76.7519 101.913 76.7747 102.717 76.7974 103.506ZM77.2678 84.2525C77.1768 84.0704 77.0857 83.8807 76.9719 83.6911C77.0099 83.6683 77.0554 83.638 77.0933 83.6152C77.4119 84.0249 77.685 84.4497 77.905 84.9049C77.723 84.7228 77.5333 84.5559 77.3209 84.3966C77.3057 84.3511 77.283 84.3056 77.2678 84.2525ZM57.885 52.2235C57.9988 51.2752 58.3402 49.978 58.8712 48.4456C59.4099 46.9056 60.1305 45.1228 61.0333 43.1807C61.4809 42.2097 61.974 41.2007 62.5202 40.1538C62.8009 39.6304 63.074 39.1069 63.4609 38.5076C63.8478 37.9311 64.2574 37.3621 64.9023 36.778C65.2285 36.4897 65.6154 36.2014 66.154 35.9738C66.4195 35.86 66.7305 35.7766 67.0719 35.7387C67.4133 35.7007 67.7774 35.7235 68.1112 35.8069C68.445 35.8904 68.7485 36.0269 69.0064 36.1787C69.2567 36.338 69.4692 36.5049 69.6512 36.6794C70.0078 37.0207 70.2505 37.3697 70.4554 37.6959C70.8574 38.3559 71.1002 38.9628 71.305 39.5621C71.5099 40.1538 71.654 40.7228 71.783 41.2766C72.2685 43.4842 72.3974 45.4414 72.4202 47.0876C72.4505 50.38 71.9726 52.398 71.4947 52.3904C71.0092 52.3904 70.6071 50.4331 69.9623 47.3607C69.6285 45.8283 69.2492 44 68.665 42.1111C68.5209 41.6407 68.354 41.178 68.1719 40.7304C67.9899 40.2904 67.7774 39.858 67.565 39.5394C67.4967 39.4407 67.4285 39.3573 67.3678 39.289C67.3299 39.3194 67.2843 39.3573 67.2388 39.3952C66.9733 39.6304 66.6547 40.0249 66.374 40.4345C66.1009 40.829 65.8126 41.3373 65.5319 41.8152L63.9085 44.6525C62.8768 46.4731 61.9361 48.1118 61.1243 49.4773C60.3202 50.8428 59.6526 51.9352 59.1747 52.6787C58.9319 53.0504 58.7347 53.3235 58.583 53.5131C58.4236 53.6952 58.3174 53.7938 58.1885 53.7938C58.0671 53.8014 57.9457 53.6497 57.885 53.369C57.8319 53.0807 57.8319 52.6938 57.885 52.2235ZM49.4947 146.012C49.5099 145.966 49.5402 145.921 49.5705 145.883C49.6312 145.807 49.6843 145.754 49.7526 145.701C49.7905 145.67 49.8361 145.648 49.8816 145.617C49.8892 145.595 49.8892 145.579 49.8967 145.557L49.9119 145.488C49.9119 145.481 49.9119 145.488 49.9119 145.481C49.9119 145.481 49.9119 145.481 49.9195 145.473C49.9271 145.473 49.9347 145.466 49.9423 145.466C49.9574 145.466 49.9878 145.458 50.0105 145.458C50.0636 145.458 50.1319 145.458 50.2078 145.466C50.2305 145.458 50.2533 145.45 50.2836 145.443C50.7312 145.306 51.3685 145.215 52.1726 145.155C52.5747 145.124 53.0147 145.109 53.5078 145.101C54.0236 145.101 54.5699 145.124 55.1312 145.17L56.8533 145.314C57.4223 145.352 58.0747 145.375 58.7574 145.397C59.4402 145.42 60.1609 145.443 60.9271 145.503C61.6554 145.564 62.3988 145.602 63.1954 145.648C63.9843 145.693 64.834 145.746 65.6912 145.868C66.5409 145.981 67.3754 146.126 68.2023 146.232C69.014 146.346 69.8257 146.353 70.7436 146.376C71.1988 146.391 71.6692 146.406 72.1547 146.452C72.6478 146.497 73.1105 146.573 73.5733 146.649C74.4988 146.808 75.3864 146.983 76.2816 147.089L79.0809 147.4C79.9381 147.514 80.7954 147.643 81.6526 147.787C82.0774 147.863 82.5023 147.939 82.9271 148.03C83.1395 148.075 83.3519 148.121 83.5719 148.181C83.7919 148.242 84.0043 148.295 84.2395 148.386C84.3002 148.409 84.3609 148.439 84.4368 148.477C84.4747 148.5 84.5126 148.523 84.5657 148.561C84.5885 148.576 84.6188 148.599 84.6567 148.637C84.6719 148.652 84.6947 148.675 84.7174 148.705C84.7402 148.728 84.7705 148.773 84.8009 148.819C84.8161 148.841 84.8388 148.887 84.854 148.932C84.8692 148.963 84.8919 149.031 84.9147 149.099C84.9223 149.137 84.9299 149.168 84.9374 149.213C84.945 149.259 84.9526 149.312 84.9526 149.365C84.9526 149.426 84.9526 149.448 84.9526 149.539C84.945 149.615 84.9299 149.699 84.9147 149.775C84.9071 149.812 84.8919 149.85 84.8843 149.881V149.896V149.904L84.8388 150.025C84.8161 150.07 84.7933 150.108 84.7705 150.146C84.7478 150.184 84.7174 150.222 84.6871 150.252C84.6492 150.29 84.6416 150.298 84.634 150.313C84.5202 150.412 84.4823 150.412 84.4443 150.435C84.3305 150.48 84.3002 150.48 84.2547 150.488C84.1788 150.503 84.1181 150.503 84.0574 150.51C83.8223 150.526 83.6099 150.526 83.3899 150.526C82.9574 150.518 82.5402 150.51 82.1154 150.488C81.2733 150.457 80.4464 150.412 79.6271 150.359L77.2071 150.207C76.365 150.146 75.5609 150.048 74.8099 149.964C74.0436 149.873 73.3685 149.805 72.6402 149.759L70.5085 149.615C69.8105 149.57 69.105 149.509 68.4147 149.426C67.7395 149.342 67.1174 149.243 66.5409 149.16L65.7064 149.046L64.9099 148.955L63.3774 148.781C62.4216 148.667 61.5871 148.583 60.9119 148.485L59.3643 148.265C58.6285 148.151 57.9154 148.037 57.2554 147.924C56.6636 147.817 56.0492 147.734 55.4347 147.643C54.8278 147.552 54.2209 147.453 53.6519 147.317C53.083 147.18 52.5974 147.021 52.1726 146.869C52.0133 146.808 51.8692 146.755 51.725 146.695C50.3974 146.505 49.6236 146.361 49.6692 146.277C49.6767 146.262 49.6919 146.247 49.7071 146.239C49.7147 146.232 49.7147 146.217 49.7223 146.201C49.7223 146.194 49.7299 146.186 49.7299 146.179C49.7374 146.163 49.7374 146.148 49.745 146.133C49.7526 146.103 49.7678 146.072 49.7754 146.042C49.7905 146.004 49.8057 145.959 49.8209 145.906C49.8057 145.959 49.7905 146.004 49.7754 146.042C49.7223 146.042 49.6767 146.035 49.6312 146.05C49.6009 146.057 49.5705 146.072 49.5478 146.088C49.5174 146.11 49.5023 146.126 49.4947 146.11C49.4643 146.103 49.4719 146.065 49.4947 146.012ZM85.7112 157.877C85.7037 157.892 85.6885 157.915 85.6809 157.93L85.6657 157.952C85.6581 157.968 85.643 157.983 85.6278 158.006C85.5974 158.043 85.5595 158.074 85.5368 158.097C85.4837 158.142 85.4305 158.18 85.3623 158.218C85.3243 158.241 85.2712 158.256 85.2257 158.279C85.1726 158.438 85.1954 158.385 85.1802 158.4C85.1726 158.4 85.1499 158.4 85.1271 158.4C85.0816 158.392 85.0133 158.385 84.9299 158.37C84.8919 158.377 84.8464 158.392 84.8009 158.4C84.323 158.506 83.625 158.575 82.745 158.612C82.305 158.635 81.8195 158.65 81.2809 158.658C80.7119 158.658 80.1126 158.635 79.4981 158.597C78.8837 158.559 78.2464 158.506 77.6016 158.476C76.9719 158.446 76.2512 158.438 75.5078 158.43C74.7567 158.423 73.9602 158.415 73.1105 158.385C72.3064 158.347 71.4871 158.332 70.6071 158.317C69.7347 158.294 68.8016 158.271 67.8457 158.195C66.905 158.119 65.9795 158.006 65.0692 157.945C64.174 157.869 63.2788 157.899 62.2623 157.93C61.7616 157.945 61.2381 157.952 60.6995 157.93C60.1609 157.907 59.645 157.861 59.1292 157.816C58.0974 157.717 57.1112 157.596 56.125 157.55C55.1161 157.497 54.0843 157.482 53.0299 157.437C52.074 157.391 51.1257 157.338 50.1774 157.277L48.7588 157.171C48.2885 157.133 47.8257 157.095 47.3326 157.012C47.2719 157.004 47.2036 156.989 47.1278 156.974C47.0899 156.966 47.0519 156.951 46.9836 156.928C46.9685 156.921 46.9381 156.906 46.9154 156.898C46.8926 156.883 46.8699 156.868 46.8547 156.86C46.8395 156.845 46.8092 156.822 46.7864 156.807L46.7561 156.769C46.7636 156.777 46.7105 156.723 46.6574 156.632C46.6119 156.549 46.574 156.443 46.5512 156.344C46.5361 156.268 46.5285 156.147 46.5285 156.132C46.5285 156.139 46.5285 156.139 46.5285 156.132C46.5361 156.056 46.5892 155.495 46.574 155.745C46.5967 155.646 46.6499 155.517 46.6802 155.472C46.7561 155.335 46.8016 155.29 46.8547 155.229C47.0064 155.085 47.0595 155.077 47.1202 155.039C47.1733 155.017 47.2188 155.001 47.2567 154.986C47.3402 154.956 47.4085 154.941 47.4767 154.926C47.7423 154.865 47.985 154.835 48.2278 154.804C48.7133 154.751 49.1761 154.713 49.6464 154.683C50.5795 154.63 51.4974 154.599 52.4078 154.584C53.3181 154.561 54.2133 154.554 55.0933 154.554C56.0264 154.554 56.914 154.599 57.7485 154.637C58.5981 154.683 59.3492 154.706 60.1533 154.713L62.5126 154.736C63.2864 154.751 64.0678 154.766 64.8264 154.827C65.5774 154.88 66.2678 154.948 66.905 155.009L67.8305 155.085L68.7181 155.146L70.4174 155.259C71.4795 155.335 72.3974 155.388 73.1485 155.464L74.863 155.639C75.6747 155.73 76.4712 155.828 77.1995 155.927C77.8519 156.026 78.5347 156.094 79.2099 156.177C79.885 156.261 80.5526 156.359 81.1823 156.488C81.8195 156.625 82.3505 156.784 82.8209 156.943C82.9954 157.004 83.1547 157.065 83.314 157.118C84.7705 157.33 85.5899 157.528 85.5519 157.702C85.5519 157.717 85.5216 157.725 85.4837 157.74C85.4761 157.748 85.4761 157.755 85.4685 157.763C85.4761 157.755 85.4761 157.748 85.4837 157.74C85.3774 157.77 85.1423 157.786 84.8009 157.801C84.8085 157.801 84.8085 157.808 84.8161 157.808C84.8237 157.808 84.8388 157.808 84.8464 157.808C85.0816 157.839 85.2637 157.869 85.385 157.899H85.4002C85.4002 157.892 85.4078 157.892 85.4078 157.884C85.4078 157.892 85.4002 157.892 85.4002 157.899L85.5443 157.945C85.5671 157.952 85.5899 157.96 85.6354 157.937C85.6505 157.93 85.6581 157.922 85.6733 157.915C85.6885 157.907 85.7112 157.861 85.7264 157.846C85.7568 157.793 85.7643 157.77 85.7643 157.778C85.7492 157.755 85.7492 157.808 85.7112 157.877ZM86.5381 142.021C86.5305 142.037 86.5154 142.052 86.5078 142.067C86.5002 142.075 86.4926 142.082 86.485 142.097C86.4471 142.135 86.4243 142.158 86.394 142.181C86.3409 142.219 86.2878 142.257 86.2271 142.287C86.1816 142.31 86.1209 142.332 86.0602 142.348V142.355L86.0374 142.408C86.0299 142.423 86.0374 142.416 86.0374 142.416H86.0299C86.0223 142.416 86.0147 142.416 86.0071 142.416C85.9768 142.408 85.9312 142.401 85.8857 142.386C85.825 142.401 85.7643 142.408 85.7037 142.416C85.2485 142.484 84.5961 142.492 83.7692 142.461C83.3519 142.446 82.9043 142.424 82.4037 142.386C81.8726 142.34 81.3112 142.264 80.7347 142.173C80.1581 142.082 79.5664 141.983 78.9671 141.892C78.3754 141.809 77.7078 141.741 77.0099 141.672C76.3119 141.604 75.5609 141.528 74.7719 141.422C74.0209 141.316 73.2623 141.232 72.4354 141.141C71.6236 141.05 70.7512 140.952 69.8636 140.785C68.9912 140.626 68.134 140.443 67.2767 140.299C66.4423 140.148 65.6002 140.11 64.6595 140.049C64.1892 140.019 63.7036 139.981 63.203 139.92C62.6947 139.852 62.2168 139.768 61.7388 139.67C60.783 139.48 59.865 139.275 58.9471 139.146C58.0064 139.01 57.043 138.903 56.0567 138.775C55.1692 138.646 54.2816 138.517 53.4016 138.372L52.0816 138.152C51.6416 138.069 51.2092 137.993 50.7464 137.872C50.6857 137.857 50.625 137.834 50.5492 137.811C50.5036 137.788 50.4733 137.788 50.3747 137.72C50.3595 137.705 50.3367 137.69 50.3216 137.675C50.2988 137.652 50.2533 137.606 50.223 137.561C50.1774 137.5 50.1395 137.432 50.1092 137.356C50.1016 137.341 50.0712 137.28 50.0409 137.09C50.0181 136.931 50.0333 136.741 50.0712 136.59C50.1016 136.468 50.1167 136.446 50.1167 136.438C50.1243 136.423 50.3443 136.006 50.2533 136.188L50.2685 136.165C50.3823 136.028 50.4278 136.006 50.4885 135.96C50.5795 135.899 50.6326 135.884 50.6781 135.869C50.7236 135.854 50.7692 135.839 50.8071 135.831C50.883 135.808 50.9512 135.801 51.0119 135.793C51.2623 135.755 51.4899 135.74 51.7174 135.732C52.1726 135.717 52.6126 135.717 53.0526 135.732C53.925 135.755 54.7899 135.801 55.6395 135.854C56.4892 135.907 57.3312 135.975 58.1505 136.043C59.023 136.119 59.8499 136.233 60.6312 136.339C61.4202 136.453 62.1257 136.537 62.8768 136.612L65.0843 136.825C65.805 136.901 66.5409 136.984 67.2464 137.106C67.9443 137.219 68.5892 137.348 69.1885 137.455L70.0457 137.614L70.8726 137.743L72.4505 137.993C73.4367 138.16 74.294 138.289 74.9919 138.426L76.585 138.744C77.3436 138.903 78.0795 139.07 78.7547 139.23C79.3616 139.381 79.9988 139.51 80.6209 139.647C81.2505 139.783 81.8726 139.943 82.4492 140.125C83.0333 140.315 83.5264 140.519 83.9512 140.717C84.1105 140.792 84.2623 140.861 84.3988 140.937C85.8023 141.286 86.5457 141.566 86.4243 141.741C86.4168 141.756 86.3864 141.763 86.3409 141.771C86.3409 141.771 86.3409 141.779 86.3333 141.779C86.3257 141.794 86.3105 141.809 86.303 141.832C86.303 141.832 86.303 141.839 86.2954 141.839C86.2802 141.862 86.265 141.892 86.2499 141.923L86.4016 141.983C86.4243 141.991 86.4471 141.999 86.485 141.991C86.4926 141.991 86.5305 141.968 86.5457 141.961C86.5609 141.953 86.5685 141.946 86.5761 141.953C86.5533 141.976 86.5533 141.999 86.5381 142.021ZM89.0871 122.047C88.063 122.586 87.054 123.026 86.0678 123.382C85.0892 123.731 84.1333 124.019 83.0712 124.255C81.0154 124.71 79.0354 124.869 77.1919 124.823C73.4974 124.732 70.3568 123.875 67.9216 122.843C66.8519 122.388 65.9188 121.91 65.1071 121.448C64.9857 121.41 64.8568 121.372 64.7354 121.326L63.4836 120.879C63.0512 120.719 62.6264 120.537 62.2092 120.348C61.3747 119.961 60.5705 119.513 59.7967 119.005C58.2567 117.988 56.8685 116.744 55.6547 115.326C53.1664 112.435 51.3533 108.597 50.7919 104.341C50.5492 102.429 50.5567 100.479 50.8223 98.5676C50.883 98.1125 50.9664 97.6573 51.0574 97.2097C51.2243 95.7987 51.5657 94.5545 51.9981 93.4849C52.5216 92.1876 53.1588 91.1483 53.7961 90.3138C53.8567 90.2152 53.9174 90.1166 53.9857 90.018L54.1678 89.7373L54.3574 89.4566C54.623 89.0697 54.8961 88.7056 55.1919 88.349C56.3602 86.9304 57.7181 85.7621 59.1671 84.829C59.4857 84.6242 59.8119 84.4345 60.1305 84.2449C58.7119 84.8366 57.9836 85.2918 57.885 85.1021C57.8395 85.0187 57.9761 84.7987 58.3099 84.48C58.6436 84.169 59.1671 83.7442 59.903 83.3269C60.6388 82.8945 61.5947 82.4621 62.7402 82.1056C63.8857 81.749 65.2361 81.4607 66.7457 81.309C68.263 81.1497 69.9243 81.1194 71.7526 81.2407C71.8057 81.2407 71.8664 81.2483 71.9195 81.2559C73.5961 81.2331 75.265 81.3545 76.9112 81.6125L76.0767 82.0525C75.9402 82.1207 75.8112 82.1966 75.6899 82.2725C75.4016 82.0828 75.0374 81.8931 74.5899 81.8021C74.3471 81.749 74.0892 81.7262 73.8388 81.7338C73.7781 81.7338 73.7174 81.7338 73.6567 81.7414L73.5657 81.749L73.4443 81.7642H73.4216C73.3533 81.7794 73.3381 81.7718 73.1864 81.8097C73.0574 81.84 72.9361 81.8704 72.8526 81.9007C72.754 81.9311 72.663 81.9614 72.5795 81.9994C72.405 82.0752 72.2381 82.1587 72.094 82.2421C71.7678 82.4394 71.5174 82.6442 71.2974 82.8642C70.5919 82.8869 69.8788 82.9325 69.1733 83.0007C66.1388 83.3269 63.0967 84.169 60.3354 85.7773C58.9623 86.5814 57.665 87.5828 56.5423 88.8118C55.9809 89.4263 55.465 90.0863 55.0023 90.7994C54.5319 91.5049 54.1071 92.2559 53.7354 93.0297C53.5533 93.3938 53.3864 93.7731 53.2347 94.1525C53.1209 94.5014 53.0147 94.858 52.9236 95.2297C52.5443 96.7697 52.4154 98.56 52.6202 100.366C52.8174 102.194 53.3561 104.219 54.3043 106.351C55.245 108.483 56.5954 110.728 58.3857 112.966C59.9864 114.954 61.9133 116.812 64.1436 118.299L65.054 118.899C65.3878 119.111 65.7519 119.331 66.1616 119.559C66.9733 120.014 67.9292 120.499 69.0443 120.947C69.5299 121.144 70.0533 121.334 70.5995 121.508C71.7678 121.66 72.9664 121.743 74.1802 121.751C77.3588 121.759 80.8409 121.266 84.1712 120.09C85.7795 119.521 87.2892 118.785 88.6547 117.875C90.0202 116.964 91.2416 115.887 92.2657 114.666C94.3671 112.299 95.4974 109.181 95.8843 105.926C96.2712 102.702 95.9299 99.3566 94.9512 96.3676C94.8374 96.0263 94.7161 95.6849 94.5795 95.3511L94.4809 95.0931C94.4505 95.0021 94.4126 94.9338 94.3823 94.8504C94.314 94.6987 94.2305 94.5394 94.1471 94.3876C93.8133 93.7883 93.3961 93.2345 92.9485 92.7187C92.0533 91.6945 91.0368 90.8069 89.9974 89.9876C89.2692 89.4187 88.5257 88.8952 87.7747 88.3945C88.3512 89.32 88.8368 90.3366 89.2161 91.3987C89.2464 91.4594 89.2692 91.52 89.2995 91.5883C90.2857 94.0007 90.7788 96.6862 90.703 99.3035C90.6271 102.088 89.8761 104.644 88.8519 106.791C87.7974 108.968 86.5836 110.675 85.1195 112.276C83.6326 113.884 81.9485 115.174 80.1809 116.115C79.3843 116.539 78.5499 116.896 77.6926 117.177C78.1554 116.281 78.5195 115.371 78.8381 114.453C79.3312 113.004 79.6802 111.532 79.9533 110.053C80.4843 107.095 80.6968 104.098 80.7043 101.079C80.7043 100.32 80.6968 99.569 80.6664 98.8104C80.6361 98.1504 80.6892 97.4297 80.7347 96.7014C80.8409 95.2373 80.9926 93.7276 81.0609 92.18C81.1216 90.6325 81.114 89.0394 80.8333 87.4007C80.545 85.7697 79.9912 84.0476 78.7092 82.4849L78.1781 81.8325C78.345 81.8704 78.5119 81.9083 78.6712 81.9387C79.5209 82.0752 80.3554 82.3028 81.1671 82.629C81.6071 82.7731 82.0471 82.9325 82.4795 83.0994C83.223 83.3952 83.9512 83.729 84.6643 84.1083C85.0209 84.298 85.3699 84.5028 85.7188 84.7152L86.6899 85.3297C89.4512 87.0594 92.0533 89.0014 94.1319 91.429C95.1864 92.658 96.0664 93.9704 96.7719 95.3814C97.1285 96.0869 97.4319 96.8152 97.6974 97.5663C97.7657 97.7559 97.8264 97.9456 97.8871 98.1352C97.9478 98.3325 98.0085 98.5373 98.054 98.7042L98.3423 99.8269C98.7064 101.291 99.1009 102.763 99.3512 104.333C99.6092 105.888 99.6926 107.572 99.4271 109.211C99.1616 110.865 98.5395 112.42 97.7657 113.763C96.9843 115.113 96.0816 116.274 95.1181 117.343C93.2292 119.468 91.1278 120.97 89.0871 122.047ZM127.807 169.423C127.382 170.341 126.813 171.266 125.941 172.116C125.508 172.541 124.993 172.935 124.371 173.261C123.756 173.58 123.035 173.815 122.284 173.883H122.277C122.208 173.891 122.14 173.891 122.08 173.891C121.131 173.891 120.168 173.663 119.341 173.269C118.506 172.882 117.801 172.359 117.209 171.79C116.026 170.644 115.237 169.355 114.6 168.08C113.97 166.806 113.5 165.523 113.09 164.287C112.688 163.043 112.346 161.837 112.028 160.691C111.838 160.001 111.656 159.303 111.489 158.605L111.368 158.081L111.353 158.013L111.337 157.952V157.937L111.33 157.907L111.307 157.778L111.262 157.512L111.148 156.815L111.034 157.512L110.988 157.778L110.966 157.907L110.958 157.937V157.952L110.943 158.013L110.928 158.081L110.806 158.605C110.64 159.303 110.457 160.001 110.268 160.691C109.949 161.837 109.608 163.043 109.206 164.287C108.796 165.531 108.326 166.806 107.696 168.08C107.059 169.355 106.27 170.644 105.086 171.79C104.495 172.359 103.789 172.882 102.955 173.269C102.128 173.656 101.164 173.891 100.216 173.891C100.155 173.891 100.08 173.891 100.019 173.883H100.011C99.2602 173.815 98.5395 173.58 97.925 173.261C97.3105 172.943 96.7947 172.541 96.3547 172.116C95.4823 171.266 94.9133 170.341 94.4885 169.423C93.654 167.579 93.4112 165.759 93.4871 164.029C93.5099 163.566 94.1926 163.437 94.3519 163.946C94.8602 165.63 95.4823 167.246 96.4002 168.679C96.863 169.392 97.4016 170.052 98.0464 170.576C98.6836 171.092 99.4423 171.456 100.231 171.517C100.899 171.501 101.551 171.319 102.143 171.008C102.735 170.705 103.266 170.28 103.736 169.795C104.677 168.816 105.39 167.625 105.982 166.388C106.573 165.137 107.044 163.824 107.453 162.481C107.855 161.139 108.197 159.766 108.493 158.377L108.599 157.877L108.652 157.626L108.675 157.497L108.682 157.467V157.452C108.652 157.588 108.675 157.49 108.667 157.512V157.505V157.497L108.675 157.429L108.819 156.405C108.91 155.722 108.993 155.032 109.077 154.341C109.236 152.968 109.373 151.588 109.479 150.199C109.646 148.166 109.76 146.118 109.805 144.085C109.797 143.963 109.79 143.842 109.782 143.728C109.684 141.498 109.668 139.26 109.744 137.037C109.722 136.127 109.691 135.209 109.676 134.306C109.623 131.78 109.631 129.277 109.866 126.743C109.866 126.743 103.668 125.537 103.349 120.932C102.977 115.492 114.804 108.293 118.78 118.216C120.949 123.481 115.715 126.007 112.301 126.272C112.377 126.386 112.437 126.538 112.453 126.735C112.688 129.269 112.695 131.772 112.642 134.299C112.627 135.209 112.597 136.119 112.574 137.03C112.65 139.26 112.635 141.498 112.536 143.721C112.528 143.842 112.521 143.963 112.513 144.077C112.566 146.118 112.673 148.159 112.84 150.192C112.953 151.572 113.09 152.953 113.242 154.334C113.317 155.024 113.408 155.707 113.5 156.397L113.644 157.421L113.651 157.49V157.497V157.505C113.644 157.475 113.666 157.573 113.636 157.444V157.459L113.644 157.49L113.666 157.619L113.72 157.869L113.826 158.37C114.122 159.758 114.463 161.131 114.865 162.474C115.275 163.817 115.745 165.129 116.337 166.381C116.928 167.625 117.642 168.816 118.582 169.787C119.053 170.272 119.584 170.697 120.175 171.001C120.767 171.304 121.412 171.486 122.087 171.509C122.876 171.448 123.635 171.092 124.272 170.568C124.917 170.045 125.455 169.385 125.918 168.672C126.844 167.238 127.458 165.622 127.966 163.938C128.118 163.43 128.808 163.559 128.831 164.021C128.884 165.759 128.642 167.579 127.807 169.423ZM132.457 122.047C130.417 120.97 128.315 119.46 126.396 117.366C125.425 116.297 124.522 115.136 123.748 113.786C122.975 112.443 122.353 110.888 122.087 109.234C121.814 107.603 121.905 105.911 122.163 104.356C122.413 102.786 122.808 101.314 123.172 99.8497L123.46 98.7269C123.506 98.56 123.566 98.3476 123.627 98.158C123.688 97.9683 123.748 97.7787 123.817 97.589C124.082 96.838 124.386 96.1097 124.742 95.4042C125.448 93.9931 126.335 92.6807 127.382 91.4518C129.461 89.0242 132.071 87.0745 134.832 85.3525L135.803 84.738C136.152 84.5256 136.501 84.3207 136.857 84.1311C137.571 83.7518 138.299 83.418 139.042 83.1221C139.475 82.9476 139.915 82.7959 140.355 82.6518C141.166 82.3256 142.001 82.098 142.851 81.9614C143.101 81.9083 143.351 81.8476 143.602 81.7945C144.3 81.658 144.997 81.5518 145.695 81.4683C145.134 81.8173 144.77 82.2118 144.474 82.5987C143.882 83.3876 143.556 84.169 143.275 84.9504C143.071 85.5345 142.911 86.1111 142.767 86.6876C142.722 86.6573 142.668 86.6269 142.593 86.6118C142.562 86.6042 142.524 86.5966 142.479 86.6118C142.433 86.6269 142.395 86.6649 142.38 86.6952C142.35 86.7635 142.35 86.8242 142.357 86.8849C142.38 87.12 142.471 87.3704 142.562 87.6662C142.297 89.0621 142.13 90.4504 142.024 91.8235C141.804 94.8428 141.842 97.8318 142.039 100.783C142.244 103.734 142.6 106.655 143.2 109.522C143.215 109.59 143.23 109.659 143.245 109.727C143.291 110.106 143.336 110.486 143.404 110.865C143.64 112.2 143.996 113.558 144.717 114.901C144.861 115.166 145.028 115.424 145.202 115.69C145.233 115.758 145.271 115.819 145.301 115.887C145.498 116.236 145.711 116.585 145.991 116.926C146.257 117.252 146.56 117.586 147.053 117.875C147.046 117.875 147.046 117.875 147.038 117.875C145.073 117.7 143.116 117.086 141.326 116.137C139.558 115.197 137.874 113.915 136.387 112.299C134.923 110.698 133.702 108.983 132.655 106.814C131.631 104.675 130.88 102.118 130.804 99.3262C130.728 96.709 131.221 94.0311 132.207 91.6111C132.23 91.5504 132.26 91.4897 132.291 91.4214C132.67 90.3518 133.155 89.3352 133.732 88.4173C132.981 88.9104 132.237 89.4414 131.509 90.0104C130.47 90.8221 129.453 91.7173 128.558 92.7414C128.111 93.2573 127.701 93.8035 127.36 94.4104C127.276 94.5621 127.2 94.7138 127.124 94.8731C127.094 94.949 127.056 95.0249 127.026 95.1159L126.927 95.3738C126.798 95.7076 126.669 96.049 126.555 96.3904C125.577 99.3793 125.235 102.725 125.622 105.949C126.009 109.196 127.147 112.321 129.241 114.688C130.273 115.91 131.486 116.987 132.852 117.897C134.217 118.808 135.727 119.543 137.335 120.112C140.673 121.288 144.155 121.789 147.326 121.774C148.548 121.766 149.746 121.69 150.907 121.531C151.453 121.357 151.977 121.167 152.462 120.97C153.577 120.522 154.533 120.037 155.345 119.581C155.747 119.354 156.119 119.134 156.453 118.921L157.363 118.322C159.593 116.843 161.52 114.984 163.121 112.989C164.911 110.751 166.262 108.513 167.202 106.374C168.143 104.242 168.682 102.209 168.886 100.388C169.091 98.5904 168.962 96.7925 168.583 95.2525C168.492 94.8807 168.386 94.5166 168.272 94.1752C168.113 93.7959 167.946 93.4166 167.771 93.0525C167.392 92.2787 166.967 91.5276 166.504 90.8221C166.042 90.109 165.526 89.4414 164.964 88.8345C163.842 87.6131 162.544 86.6042 161.171 85.8C158.713 84.3662 156.02 83.5469 153.32 83.1525C153.054 82.6518 152.728 82.1662 152.341 81.6883L151.924 81.18C152.925 81.18 153.873 81.2256 154.768 81.3166C156.278 81.4683 157.628 81.7566 158.774 82.1131C159.92 82.4697 160.875 82.9021 161.611 83.3345C162.355 83.7594 162.878 84.1766 163.204 84.4876C163.538 84.8063 163.675 85.0263 163.629 85.1097C163.538 85.2918 162.81 84.8366 161.391 84.2525C161.717 84.4345 162.036 84.6318 162.355 84.8366C163.804 85.7697 165.162 86.938 166.33 88.3566C166.618 88.7131 166.899 89.0773 167.164 89.4642L167.354 89.7449L167.536 90.0256C167.597 90.1242 167.665 90.2228 167.726 90.3214C168.363 91.1559 169 92.1952 169.524 93.4925C169.956 94.5621 170.29 95.8063 170.464 97.2173C170.555 97.6649 170.639 98.12 170.7 98.5752C170.965 100.479 170.973 102.437 170.73 104.348C170.168 108.604 168.355 112.443 165.867 115.333C164.653 116.752 163.265 117.996 161.725 119.012C160.959 119.521 160.155 119.968 159.313 120.355C158.895 120.545 158.471 120.727 158.038 120.886L156.786 121.334C156.665 121.372 156.544 121.41 156.415 121.455C155.603 121.918 154.67 122.396 153.6 122.851C151.165 123.875 148.024 124.732 144.33 124.831C142.486 124.877 140.506 124.717 138.451 124.262C137.388 124.027 136.433 123.739 135.454 123.39C134.498 123.026 133.482 122.586 132.457 122.047ZM137.533 139.086C137.525 139.086 137.517 139.086 137.51 139.086H137.502C137.502 139.078 137.502 139.093 137.502 139.078L137.48 139.025V139.017C137.419 139.002 137.358 138.979 137.313 138.957C137.244 138.926 137.191 138.896 137.146 138.85C137.115 138.828 137.1 138.805 137.055 138.767C137.047 138.759 137.04 138.752 137.032 138.737C137.017 138.721 137.009 138.706 137.002 138.691C136.986 138.661 136.979 138.646 136.979 138.638C136.979 138.63 136.994 138.63 137.009 138.646C137.024 138.653 137.062 138.676 137.07 138.676C137.108 138.683 137.131 138.676 137.153 138.668L137.305 138.608C137.29 138.577 137.275 138.555 137.26 138.524C137.26 138.524 137.26 138.517 137.252 138.517C137.237 138.494 137.229 138.479 137.222 138.464C137.222 138.464 137.222 138.456 137.214 138.456C137.168 138.448 137.138 138.441 137.131 138.426C137.009 138.251 137.753 137.97 139.156 137.621C139.3 137.546 139.444 137.477 139.604 137.401C140.036 137.204 140.522 136.999 141.106 136.81C141.682 136.62 142.304 136.468 142.934 136.332C143.564 136.195 144.193 136.066 144.8 135.915C145.475 135.755 146.219 135.588 146.97 135.429L148.563 135.11C149.261 134.974 150.118 134.837 151.104 134.678L152.682 134.428L153.509 134.299L154.366 134.139C154.966 134.026 155.603 133.904 156.301 133.79C157.014 133.669 157.742 133.586 158.463 133.51L160.671 133.297C161.422 133.229 162.12 133.138 162.916 133.024C163.697 132.918 164.524 132.797 165.397 132.721C166.224 132.652 167.058 132.592 167.908 132.531C168.757 132.478 169.622 132.432 170.502 132.41C170.942 132.402 171.382 132.395 171.837 132.417C172.065 132.425 172.293 132.44 172.551 132.478C172.611 132.486 172.68 132.501 172.755 132.516C172.793 132.523 172.831 132.539 172.884 132.554C172.93 132.569 172.983 132.592 173.074 132.645C173.127 132.683 173.173 132.706 173.294 132.85L173.317 132.872C173.218 132.675 173.476 133.168 173.453 133.123C173.453 133.123 173.461 133.138 173.499 133.275C173.537 133.426 173.552 133.616 173.529 133.775C173.499 133.965 173.468 134.026 173.461 134.041C173.431 134.117 173.393 134.192 173.347 134.246C173.317 134.291 173.271 134.337 173.241 134.359C173.226 134.375 173.203 134.39 173.188 134.405C173.089 134.473 173.059 134.473 173.013 134.496C172.937 134.526 172.877 134.541 172.816 134.557C172.353 134.678 171.921 134.754 171.481 134.837L170.161 135.057C169.281 135.201 168.393 135.33 167.506 135.459C166.52 135.588 165.548 135.695 164.615 135.831C163.697 135.96 162.78 136.165 161.824 136.355C161.346 136.446 160.868 136.537 160.36 136.605C159.859 136.673 159.366 136.703 158.895 136.734C157.947 136.795 157.113 136.832 156.278 136.984C155.428 137.128 154.571 137.31 153.691 137.47C152.804 137.629 151.931 137.728 151.12 137.826C150.3 137.917 149.534 138.001 148.783 138.107C147.994 138.213 147.243 138.281 146.545 138.357C145.847 138.426 145.18 138.494 144.588 138.577C143.988 138.661 143.397 138.767 142.82 138.858C142.244 138.949 141.682 139.025 141.151 139.07C140.651 139.108 140.195 139.131 139.786 139.146C138.959 139.177 138.306 139.161 137.851 139.101C137.783 139.093 137.722 139.078 137.669 139.07C137.601 139.07 137.555 139.078 137.533 139.086ZM176.996 152.779C176.996 152.794 176.988 152.915 176.973 152.991C176.951 153.097 176.913 153.196 176.867 153.279C176.814 153.37 176.768 153.423 176.768 153.416L176.738 153.454C176.715 153.477 176.693 153.499 176.67 153.507C176.647 153.522 176.624 153.537 176.602 153.545C176.579 153.56 176.548 153.575 176.533 153.575C176.465 153.606 176.427 153.613 176.389 153.621C176.313 153.636 176.253 153.651 176.184 153.659C175.691 153.735 175.228 153.772 174.751 153.818L173.332 153.924C172.384 153.985 171.435 154.038 170.48 154.083C169.417 154.129 168.386 154.144 167.384 154.197C166.398 154.243 165.412 154.364 164.38 154.463C163.864 154.516 163.348 154.554 162.81 154.577C162.271 154.599 161.748 154.592 161.247 154.577C160.238 154.554 159.343 154.516 158.44 154.592C157.522 154.66 156.604 154.766 155.664 154.842C154.708 154.926 153.775 154.948 152.902 154.964C152.022 154.979 151.203 154.994 150.399 155.032C149.549 155.062 148.753 155.07 148.002 155.077C147.258 155.085 146.537 155.092 145.908 155.123C145.263 155.153 144.626 155.206 144.011 155.244C143.397 155.282 142.797 155.312 142.228 155.305C141.69 155.297 141.212 155.282 140.764 155.259C139.884 155.221 139.186 155.146 138.708 155.047C138.663 155.039 138.625 155.024 138.58 155.017C138.496 155.032 138.428 155.039 138.382 155.047C138.352 155.047 138.337 155.047 138.329 155.047C138.322 155.032 138.337 155.085 138.284 154.926C138.231 154.903 138.185 154.888 138.147 154.865C138.079 154.827 138.026 154.789 137.973 154.743C137.95 154.721 137.912 154.69 137.882 154.652C137.866 154.637 137.851 154.615 137.836 154.599L137.821 154.577C137.813 154.561 137.798 154.539 137.791 154.523C137.76 154.448 137.76 154.402 137.76 154.395C137.768 154.387 137.775 154.41 137.798 154.463C137.813 154.486 137.836 154.523 137.851 154.531C137.859 154.539 137.874 154.546 137.889 154.554C137.935 154.577 137.957 154.561 137.98 154.561L138.124 154.516C138.124 154.508 138.117 154.508 138.117 154.501C138.117 154.508 138.124 154.508 138.124 154.516H138.14C138.268 154.486 138.443 154.455 138.678 154.425C138.686 154.425 138.693 154.425 138.708 154.425C138.716 154.425 138.716 154.417 138.724 154.417C138.382 154.402 138.147 154.387 138.041 154.357C138.041 154.364 138.048 154.372 138.056 154.379C138.048 154.372 138.048 154.364 138.041 154.357C137.995 154.349 137.973 154.334 137.973 154.319C137.935 154.144 138.746 153.939 140.211 153.735C140.37 153.674 140.529 153.613 140.704 153.56C141.174 153.401 141.705 153.241 142.335 153.105C142.964 152.968 143.632 152.877 144.307 152.794C144.982 152.71 145.665 152.642 146.317 152.543C147.046 152.445 147.842 152.346 148.654 152.255L150.368 152.081C151.12 152.005 152.037 151.952 153.1 151.876L154.799 151.762L155.686 151.701L156.612 151.626C157.249 151.565 157.939 151.497 158.691 151.443C159.449 151.39 160.238 151.368 161.004 151.36L163.364 151.337C164.168 151.33 164.919 151.307 165.768 151.261C166.603 151.223 167.491 151.178 168.424 151.178C169.304 151.178 170.199 151.193 171.109 151.208C172.02 151.231 172.937 151.254 173.871 151.307C174.341 151.337 174.804 151.368 175.289 151.428C175.532 151.459 175.775 151.489 176.04 151.55C176.108 151.565 176.177 151.58 176.26 151.61C176.306 151.626 176.344 151.641 176.404 151.663C176.465 151.694 176.518 151.709 176.67 151.853C176.723 151.906 176.768 151.952 176.844 152.096C176.867 152.141 176.928 152.263 176.951 152.369C176.935 152.141 176.988 152.703 176.996 152.779C176.996 152.786 176.996 152.786 176.996 152.779Z" fill="black"/>
<path d="M79.1729 148.288C78.7936 148.227 78.4142 148.182 78.0273 148.128C78.6646 148.219 79.2639 148.31 79.8253 148.394C79.6053 148.364 79.3929 148.326 79.1729 148.288Z" fill="black"/>
<path d="M59.1126 157.012C59.6057 157.057 60.0913 157.103 60.5616 157.126C61.0092 157.148 61.4795 157.141 61.9651 157.126C62.2078 157.118 62.4582 157.11 62.7161 157.095C60.7285 157.004 58.794 156.906 56.9961 156.807C57.7244 156.86 58.4375 156.943 59.1126 157.012Z" fill="black"/>
<path d="M56.5109 113.854C55.0543 111.897 53.7116 109.681 52.7102 107.292C52.5585 106.943 52.4219 106.586 52.293 106.222C52.9454 109.037 54.2199 111.715 55.9799 113.945C57.1785 115.462 58.5743 116.767 60.0764 117.799C58.7337 116.57 57.535 115.219 56.5109 113.854Z" fill="black"/>
<path d="M85.7656 141.786C85.7656 141.786 85.7732 141.794 85.7808 141.794C85.7884 141.801 85.796 141.801 85.8036 141.809C85.9932 141.847 86.1373 141.892 86.2436 141.93C86.2587 141.9 86.2739 141.87 86.2891 141.847C86.2891 141.847 86.2891 141.847 86.2891 141.839C86.2967 141.832 86.2967 141.816 86.3042 141.809C86.3118 141.801 86.3118 141.794 86.3194 141.786C86.3194 141.786 86.3194 141.779 86.327 141.779C86.2284 141.794 86.0387 141.794 85.7656 141.786Z" fill="black"/>
<path d="M86.1758 142.059C86.191 142.014 86.2137 141.976 86.2365 141.938C86.2365 141.938 86.2365 141.938 86.2365 141.93C86.2213 141.968 86.1985 142.006 86.1758 142.059Z" fill="black"/>
<path d="M61.7463 138.888C62.2091 138.979 62.6566 139.055 63.0966 139.116C63.5215 139.177 63.9539 139.207 64.4091 139.23C64.6366 139.245 64.8718 139.253 65.1146 139.268C63.2635 139.01 61.458 138.744 59.7891 138.494C60.4491 138.623 61.1166 138.767 61.7463 138.888Z" fill="black"/>
<path d="M55.9277 137.917C56.3525 137.986 56.7849 138.046 57.2173 138.107C56.5497 138.001 55.9201 137.902 55.3359 137.811L55.9277 137.917Z" fill="black"/>
<path d="M50.3664 146.072C50.336 146.072 50.3057 146.072 50.2829 146.065L49.7822 146.034C49.7746 146.034 49.767 146.034 49.7595 146.034C49.7519 146.072 49.7367 146.103 49.7291 146.133C49.7291 146.141 49.7291 146.141 49.7215 146.148C49.7139 146.163 49.7139 146.171 49.7064 146.179C49.7064 146.179 49.7064 146.186 49.6988 146.194V146.201C49.6912 146.216 49.6912 146.224 49.6836 146.232C49.7746 146.163 50.0098 146.11 50.3664 146.072Z" fill="black"/>
<path d="M146.411 83.6002V83.5926L146.373 83.5774C146.35 83.5926 146.327 83.6002 146.297 83.6153C146.312 83.6153 146.327 83.6229 146.342 83.6229C146.373 83.6153 146.396 83.6077 146.411 83.6002Z" fill="black"/>
<path d="M151.271 143.941C150.847 143.986 150.414 144.055 149.967 144.13C149.36 144.237 148.715 144.35 148.062 144.457C149.64 144.259 151.378 144.062 153.221 143.865C152.994 143.865 152.758 143.872 152.538 143.872C152.106 143.88 151.681 143.895 151.271 143.941Z" fill="black"/>
<path d="M170.646 153.234L171.291 153.181C170.654 153.219 169.979 153.264 169.258 153.31C169.728 153.287 170.191 153.264 170.646 153.234Z" fill="black"/>
<path d="M143.699 145.063C144.253 144.972 144.86 144.889 145.497 144.798C145.11 144.851 144.723 144.896 144.352 144.957C144.132 144.988 143.912 145.025 143.699 145.063Z" fill="black"/>
<path d="M137.722 138.479C137.73 138.471 137.738 138.471 137.738 138.463C137.738 138.463 137.745 138.456 137.753 138.456C137.487 138.463 137.298 138.463 137.191 138.456C137.191 138.456 137.191 138.463 137.199 138.463C137.207 138.471 137.207 138.479 137.214 138.486C137.222 138.494 137.222 138.501 137.229 138.517V138.524C137.245 138.547 137.26 138.577 137.275 138.608C137.389 138.555 137.54 138.517 137.722 138.479Z" fill="black"/>
<path d="M173.764 142.704C173.749 142.659 173.734 142.613 173.719 142.568C173.734 142.621 173.749 142.666 173.764 142.704Z" fill="black"/>
<path d="M173.74 142.712L173.24 142.742C173.209 142.742 173.187 142.742 173.156 142.742C173.513 142.78 173.748 142.833 173.839 142.901C173.831 142.894 173.831 142.879 173.824 142.871V142.863C173.816 142.856 173.816 142.841 173.809 142.825V142.818C173.793 142.788 173.786 142.757 173.771 142.712C173.756 142.712 173.748 142.712 173.74 142.712Z" fill="black"/>
<path d="M137.35 138.721C137.327 138.676 137.304 138.63 137.289 138.593V138.6C137.304 138.638 137.327 138.684 137.35 138.721Z" fill="black"/>
<path d="M151.59 39.1753C151.628 39.1601 151.62 39.1525 151.59 39.1753V39.1753Z" fill="black"/>
<path d="M168.19 134.481C167.606 134.579 166.969 134.678 166.309 134.777C166.741 134.716 167.173 134.655 167.598 134.587L168.19 134.481Z" fill="black"/>
<path d="M160.436 135.786C160.869 135.725 161.324 135.641 161.787 135.558C162.416 135.437 163.076 135.293 163.759 135.171C162.09 135.421 160.285 135.679 158.434 135.945C158.669 135.93 158.904 135.922 159.139 135.907C159.572 135.877 160.012 135.846 160.436 135.786Z" fill="black"/>
<path d="M105.526 59.1724C105.473 59.4531 105.42 59.7186 105.359 59.9613C105.39 59.8627 105.42 59.7717 105.443 59.6731C105.481 59.5062 105.504 59.3393 105.526 59.1724Z" fill="black"/>
<path d="M118.005 57.0105C118.013 56.836 117.975 56.6615 117.922 56.4794C117.892 56.3884 117.861 56.2974 117.831 56.1987C117.801 56.9877 117.748 57.7463 117.664 58.4291C117.732 58.1408 117.831 57.8525 117.899 57.5794C117.96 57.3898 117.998 57.1925 118.005 57.0105Z" fill="black"/>
<path d="M117.507 59.5518C117.461 59.8324 117.408 60.098 117.348 60.3407C117.378 60.2421 117.401 60.1511 117.431 60.0524C117.469 59.8931 117.484 59.7187 117.507 59.5518Z" fill="black"/>
<path d="M130.476 59.1572C130.43 59.4379 130.377 59.7034 130.324 59.9462C130.347 59.8476 130.377 59.7565 130.4 59.6579C130.438 59.491 130.461 59.3241 130.476 59.1572Z" fill="black"/>
<path d="M130.955 56.6159C130.963 56.4414 130.925 56.267 130.872 56.0849C130.842 55.9939 130.811 55.9028 130.781 55.8042C130.758 56.6008 130.713 57.3518 130.637 58.0345C130.705 57.7463 130.796 57.458 130.864 57.1849C130.91 56.9876 130.948 56.7904 130.955 56.6159Z" fill="black"/>
<path d="M106.045 56.6311C106.052 56.4566 106.014 56.2821 105.969 56.1C105.946 56.009 105.916 55.918 105.885 55.8193C105.847 56.6083 105.787 57.3593 105.703 58.0497C105.771 57.7614 105.87 57.4731 105.946 57.2C105.999 57.0104 106.037 56.8131 106.045 56.6311Z" fill="black"/>
<path d="M165.565 113.945C167.325 111.715 168.6 109.037 169.252 106.222C169.123 106.579 168.979 106.935 168.835 107.292C167.834 109.681 166.498 111.897 165.034 113.854C164.01 115.219 162.812 116.57 161.469 117.806C162.971 116.775 164.367 115.47 165.565 113.945Z" fill="black"/>
<path d="M161.56 153.788C162.038 153.803 162.508 153.81 162.963 153.788C163.433 153.765 163.919 153.727 164.412 153.674C165.087 153.606 165.8 153.53 166.529 153.461C164.738 153.56 162.804 153.659 160.809 153.75C161.067 153.765 161.317 153.78 161.56 153.788Z" fill="black"/>
<path d="M138.164 154.592C138.172 154.599 138.172 154.607 138.172 154.615V154.607C138.172 154.599 138.172 154.592 138.164 154.592Z" fill="black"/>
<path d="M94.1552 58.2545C94.1021 58.5352 94.049 58.8007 93.9883 59.0435C94.0186 58.9449 94.049 58.8538 94.0717 58.7552C94.1097 58.5883 94.1324 58.4214 94.1552 58.2545Z" fill="black"/>
<path d="M94.6693 55.7131C94.6769 55.5386 94.6389 55.3641 94.5934 55.1821C94.5631 55.091 94.5327 55 94.51 54.9014C94.472 55.6903 94.4113 56.4414 94.3203 57.1317C94.3886 56.8434 94.4872 56.5552 94.5631 56.2821C94.6238 56.0924 94.6617 55.8952 94.6693 55.7131Z" fill="black"/>
</g>
<defs>
<filter id="filter0_b_1854_367" x="-20" y="-20" width="260" height="260" filterUnits="userSpaceOnUse" color-interpolation-filters="sRGB">
<feFlood flood-opacity="0" result="BackgroundImageFix"/>
<feGaussianBlur in="BackgroundImage" stdDeviation="10"/>
<feComposite in2="SourceAlpha" operator="in" result="effect1_backgroundBlur_1854_367"/>
<feBlend mode="normal" in="SourceGraphic" in2="effect1_backgroundBlur_1854_367" result="shape"/>
</filter>
<clipPath id="clip0_1854_367">
<rect width="163.217" height="164.727" fill="white" transform="translate(28.0703 27.3103)"/>
</clipPath>
</defs>
</svg>
