<svg width="22" height="20" viewBox="0 0 22 20" fill="none" xmlns="http://www.w3.org/2000/svg">
<g clip-path="url(#clip0_1218_36)">
<path d="M13.4683 9.31199C13.179 8.93244 12.8585 8.57014 12.5114 8.23802C12.3378 8.06981 12.1553 7.90591 11.9728 7.75927C11.777 7.59968 11.5811 7.45303 11.3808 7.3107C10.5663 6.75431 9.66727 6.2928 8.63022 6.03833C8.11392 5.91325 7.54866 5.84424 6.95224 5.90462C6.4582 5.95638 5.9508 6.0297 5.44785 6.14615C4.94045 6.26261 4.42861 6.41788 3.92566 6.64648C3.42271 6.87076 2.93312 7.16837 2.49248 7.55224C2.0563 7.93611 1.68688 8.40624 1.41537 8.91519C1.2863 9.15241 1.18393 9.39826 1.09491 9.63979C1.08601 9.65273 1.07266 9.66567 1.0593 9.67861C0.721039 10.1142 0.422832 10.6189 0.226994 11.1925C0.129075 11.4772 0.0578612 11.7834 0.0222543 12.094C0.00890172 12.2536 0 12.4131 0 12.5727V12.6806L0.00445086 12.8013C0.00890172 12.879 0.0133526 12.9566 0.0178034 13.0342C0.0712138 13.6553 0.226994 14.2894 0.480693 14.8932C0.992542 16.1052 1.87826 17.205 3.01323 18.0763C4.15265 18.9475 5.54577 19.6161 7.12583 19.8835C7.91363 20.0129 8.74594 20.0388 9.58715 19.9051C10.4239 19.7713 11.2696 19.4737 12.0218 18.9993C12.1152 18.9389 12.2087 18.8785 12.2977 18.8138L12.3645 18.7664L12.4402 18.7103L12.5648 18.6111C12.7384 18.4731 12.903 18.3308 13.0633 18.1755C13.3837 17.8693 13.6775 17.5285 13.9401 17.1576C14.4608 16.4157 14.8214 15.5358 14.9593 14.6128C15.1018 13.6898 15.0217 12.7323 14.7546 11.8309C14.492 10.9294 14.0469 10.0754 13.4683 9.31199ZM12.1197 13.5389C12.4624 13.0644 12.7873 12.5813 13.09 12.0853C13.1256 12.025 13.1656 11.9603 13.2013 11.8956C13.2458 12.012 13.2903 12.1328 13.3259 12.2536C13.3303 12.2665 13.3303 12.2751 13.3348 12.2881C12.7651 13.1291 12.1152 14.0262 11.3541 14.9406C10.9269 15.4496 10.464 15.9672 9.94767 16.4502C9.75628 16.6271 9.556 16.7996 9.35126 16.9592C9.53374 16.7608 9.71178 16.5581 9.88536 16.3597C10.691 15.4194 11.4343 14.4878 12.1197 13.5389ZM9.69397 8.10432C9.67617 8.11294 9.65837 8.12157 9.64501 8.1302C9.63611 8.10863 9.62721 8.08707 9.61831 8.0655C9.64501 8.07844 9.67172 8.09138 9.69397 8.10432ZM8.05161 8.67365L8.05606 8.66071C8.05606 8.66934 8.05606 8.67796 8.05606 8.68659C8.05161 8.68659 8.05161 8.68659 8.04715 8.68659L8.05161 8.67365ZM2.26994 12.0163C2.3367 11.5936 2.39456 11.1968 2.48358 10.8259C2.67497 9.96328 3.02213 9.25592 3.60075 8.74266C4.11259 8.27684 4.80248 7.9663 5.55022 7.75927C5.30542 7.97492 5.07843 8.19489 4.86034 8.42349C4.27728 9.02733 3.75207 9.6743 3.27138 10.3601C2.90641 10.8863 2.56815 11.4341 2.26994 12.0163ZM4.9093 16.0836L4.82028 16.0491C4.86034 16.0534 4.89595 16.0577 4.936 16.0664C4.92265 16.0707 4.9182 16.0793 4.9093 16.0836ZM5.14519 15.9025C5.15855 15.8723 5.1719 15.8421 5.18525 15.8119C5.24756 15.6782 5.32323 15.5358 5.39889 15.3978C5.55467 15.1132 5.72826 14.8285 5.90629 14.5438C6.26681 13.9745 6.66294 13.4095 7.07687 12.8574C7.17033 12.7323 7.26825 12.6072 7.36617 12.4821L7.70889 12.1069C7.7623 12.0595 7.79791 12.0206 7.83796 11.9818L7.97594 11.8395C8.06051 11.7446 8.14507 11.654 8.22074 11.5591C8.38097 11.3737 8.5323 11.1839 8.67918 10.9898C8.71033 10.9467 8.74149 10.9035 8.77264 10.8647C9.13316 10.4981 9.50704 10.1531 9.89426 9.8727C10.1524 9.68724 10.4239 9.52765 10.642 9.45433C10.7488 9.41982 10.8378 9.4112 10.8735 9.41551C10.8779 9.41551 10.8779 9.41551 10.8824 9.41551C10.8735 9.45433 10.8645 9.50609 10.8423 9.56216C10.7622 9.79507 10.593 10.0884 10.4061 10.3687C10.0233 10.9337 9.54264 11.4988 9.0397 12.0508C8.786 12.3269 8.52785 12.6029 8.2608 12.879L7.85577 13.293L7.64658 13.5087C7.58427 13.5777 7.52195 13.6424 7.44629 13.7243L6.57837 14.5999C6.28906 14.8889 5.99531 15.1735 5.6971 15.441C5.51907 15.5962 5.33213 15.7558 5.14519 15.9025ZM5.93745 17.4466C6.27571 17.1964 6.58282 16.9376 6.87213 16.6745C7.20149 16.3769 7.51305 16.0707 7.81571 15.7688L8.69253 14.8716L8.70143 14.8587C8.71033 14.8501 8.72369 14.8371 8.73259 14.8242C8.77264 14.7767 8.83941 14.7034 8.90172 14.6387L9.09756 14.4317L9.50259 14.009C9.58715 13.9184 9.67172 13.8278 9.75628 13.7373C9.75183 13.7459 9.74293 13.7545 9.73848 13.7631C9.36461 14.3497 9.01744 14.9363 8.71033 15.5315C8.5412 15.717 8.37207 15.9025 8.19848 16.0836C8.09611 16.1914 7.99374 16.2993 7.89137 16.3985L7.85577 16.433L7.83796 16.4502L7.7623 16.5192C7.70889 16.5624 7.65548 16.6055 7.60207 16.6486C7.17479 16.9851 6.69854 17.2568 6.2223 17.3862C6.12883 17.4164 6.03091 17.4336 5.93745 17.4466ZM10.1658 18.43C9.90761 18.5205 9.64501 18.5895 9.37351 18.637C8.70143 18.7578 8.0071 18.7534 7.33947 18.6586C7.2638 18.6456 7.18369 18.6327 7.10802 18.6197C7.38843 18.5033 7.65103 18.3653 7.89582 18.21C7.98929 18.4343 8.23409 18.5723 8.48779 18.5205C8.75484 18.4688 8.98183 18.3696 9.18212 18.2661C9.38686 18.1582 9.56935 18.0418 9.73848 17.9167C10.0767 17.6665 10.3705 17.3991 10.6465 17.1317C10.7355 17.0411 10.8245 16.9506 10.9091 16.86C10.6153 17.3689 10.4061 17.7787 10.2859 18.0677C10.2192 18.2229 10.1836 18.348 10.1658 18.43ZM13.5217 14.4274C13.4282 15.139 13.1656 15.8119 12.7695 16.4028C12.5737 16.6961 12.3422 16.9721 12.0885 17.2223C11.9639 17.3474 11.8304 17.4681 11.6924 17.5803L11.5856 17.6665L11.4921 17.7399C11.4209 17.7916 11.3497 17.8391 11.2785 17.8865C10.9758 18.0849 10.6509 18.2488 10.3171 18.3739C10.3572 18.3135 10.4061 18.2402 10.464 18.1539C10.642 17.8865 10.9135 17.494 11.2829 16.9894C11.6524 16.4804 12.1197 15.8593 12.6538 15.1045C12.9208 14.725 13.2013 14.3152 13.4817 13.8537C13.5084 13.8106 13.5351 13.7631 13.5618 13.7157C13.5662 13.9572 13.5529 14.1945 13.5217 14.4274Z" fill="#FFE600"/>
<path d="M16.9623 7.58241L16.9935 7.56085L17.0291 7.53497L17.087 7.48752C17.1671 7.42283 17.2472 7.35381 17.3228 7.2848C17.4742 7.14247 17.6122 6.98289 17.7323 6.80605C17.9771 6.45668 18.1463 6.04262 18.213 5.61131C18.2798 5.17568 18.2397 4.72712 18.1151 4.30443C17.9905 3.87743 17.7813 3.47631 17.5098 3.12263C17.3718 2.94579 17.2249 2.77327 17.0603 2.61799C16.9801 2.54036 16.8911 2.46272 16.8065 2.39371C16.7131 2.32039 16.6241 2.25138 16.5306 2.18237C16.1478 1.91927 15.725 1.70361 15.2398 1.58284C14.9951 1.52677 14.7325 1.49227 14.452 1.51815C14.2206 1.54402 13.9803 1.57853 13.7444 1.63029C13.504 1.68636 13.2681 1.75968 13.0278 1.8632C12.7919 1.96671 12.5604 2.10904 12.3557 2.2902C12.151 2.47135 11.9774 2.69132 11.8483 2.92854C11.7904 3.04068 11.737 3.15282 11.697 3.26928C11.6925 3.2779 11.6881 3.28222 11.6792 3.28653C11.5189 3.49356 11.381 3.73078 11.2875 3.9982C11.243 4.1319 11.2074 4.27424 11.194 4.42088C11.1851 4.49421 11.1807 4.56753 11.1807 4.64517V4.69692V4.753C11.1807 4.79181 11.1851 4.82632 11.1896 4.86514C11.2118 5.15843 11.2875 5.45604 11.4077 5.73639C11.648 6.30572 12.0619 6.8233 12.596 7.23305C13.1301 7.6428 13.7844 7.95765 14.5277 8.08273C14.8971 8.14312 15.2888 8.15606 15.6849 8.09136C16.0811 8.03098 16.4772 7.88864 16.8288 7.66436C16.8733 7.63848 16.9178 7.6126 16.9623 7.58241ZM15.7339 2.54898C15.725 2.5533 15.7161 2.55761 15.7116 2.56192C15.7072 2.5533 15.7027 2.54036 15.6983 2.53173C15.7116 2.53604 15.725 2.54036 15.7339 2.54898ZM14.9639 2.8164V2.81209C14.9639 2.8164 14.9639 2.82071 14.9639 2.82502H14.9594L14.9639 2.8164ZM13.4862 6.2971L13.4417 6.27984C13.4595 6.27984 13.4773 6.28416 13.4951 6.28847C13.4951 6.29278 13.4907 6.29278 13.4862 6.2971ZM13.464 2.69994C13.188 2.98461 12.9432 3.28653 12.7162 3.61002C12.5471 3.85586 12.3868 4.11465 12.2489 4.38638C12.28 4.18798 12.3067 4.00251 12.3468 3.82999C12.4358 3.42455 12.6005 3.09244 12.872 2.8509C13.1123 2.63525 13.4372 2.48429 13.7889 2.3894C13.6731 2.4886 13.5663 2.59212 13.464 2.69994ZM13.9669 6.93975C14.1271 6.8233 14.2696 6.69822 14.4075 6.57745C14.5633 6.43512 14.7102 6.29278 14.8526 6.15045L15.2666 5.73208L15.271 5.72776C15.2755 5.72345 15.2799 5.71914 15.2844 5.71051C15.3022 5.68895 15.3333 5.65444 15.3645 5.62425L15.4579 5.52505L15.6493 5.32664C15.6894 5.28351 15.7294 5.24038 15.7695 5.20156C15.765 5.20587 15.765 5.21019 15.7606 5.2145C15.5826 5.49054 15.4223 5.76658 15.2755 6.04694C15.1953 6.1332 15.1152 6.22377 15.0351 6.30572C14.9861 6.35748 14.9372 6.40493 14.8927 6.45237L14.8749 6.46962L14.866 6.47825L14.8304 6.50844C14.8081 6.53001 14.7814 6.54726 14.7547 6.56882C14.5544 6.72841 14.3319 6.85349 14.1093 6.91388C14.0604 6.9225 14.0114 6.93113 13.9669 6.93975ZM16.0143 7.22873C15.9831 7.30637 15.9653 7.36244 15.9564 7.40126C15.8363 7.44439 15.7116 7.47458 15.5826 7.50046C15.2666 7.55653 14.9416 7.55653 14.6256 7.50909C14.59 7.50477 14.5544 7.49615 14.5144 7.49184C14.6479 7.43576 14.7681 7.37107 14.8838 7.30206C14.9283 7.40989 15.044 7.47027 15.1642 7.4487C15.2888 7.42283 15.3956 7.37969 15.4935 7.32794C15.587 7.27618 15.676 7.22011 15.7561 7.16404C15.9164 7.04758 16.0544 6.9225 16.1834 6.79311C16.2279 6.74998 16.268 6.70684 16.3081 6.66371C16.1656 6.90094 16.0677 7.09071 16.0143 7.22873ZM15.8541 6.46531C15.765 6.54726 15.6716 6.62921 15.5737 6.70253C15.6582 6.60764 15.7428 6.51275 15.8274 6.42218C16.2057 5.98655 16.5529 5.54661 16.8733 5.10236C17.0335 4.87808 17.1893 4.65379 17.3273 4.42088C17.3451 4.39069 17.3629 4.3605 17.3807 4.33031C17.403 4.38638 17.4208 4.44245 17.4386 4.49852C17.4386 4.50283 17.443 4.50715 17.443 4.51577C17.176 4.91258 16.8689 5.33096 16.5128 5.76227C16.3125 5.99949 16.0989 6.24103 15.8541 6.46531Z" fill="#FFE600"/>
<path d="M21.6577 10.6275C21.5509 10.2652 21.3728 9.92447 21.1414 9.61824C21.0257 9.46728 20.8966 9.32063 20.7586 9.18693C20.6919 9.12223 20.6162 9.05322 20.545 8.99715C20.4649 8.93245 20.3892 8.87207 20.3091 8.82031C19.9842 8.59603 19.6237 8.41488 19.2097 8.31136C19.005 8.2596 18.778 8.23372 18.5376 8.2596C18.3418 8.28117 18.1371 8.31136 17.9368 8.35449C17.7365 8.40194 17.5318 8.46232 17.327 8.5529C17.1267 8.64347 16.9309 8.75993 16.7529 8.9152C16.5793 9.06616 16.4324 9.25594 16.3211 9.45865C16.2722 9.55354 16.2277 9.65275 16.192 9.74763C16.1876 9.75195 16.1831 9.76057 16.1787 9.76489C16.0452 9.94173 15.925 10.1401 15.8449 10.373C15.8048 10.4852 15.7781 10.6059 15.7648 10.7353C15.7559 10.7957 15.7559 10.8604 15.7559 10.9251V10.9683V11.0157C15.7559 11.0459 15.7603 11.0761 15.7603 11.1106C15.7826 11.3607 15.8449 11.6109 15.9472 11.8524C16.152 12.3355 16.5036 12.7755 16.9576 13.1248C17.4116 13.4742 17.9724 13.7416 18.6 13.8494C18.916 13.9012 19.2498 13.9098 19.5836 13.8581C19.9174 13.8063 20.2557 13.6855 20.5539 13.4957C20.5895 13.4742 20.6296 13.4483 20.6652 13.4224L20.6919 13.4009L20.723 13.3793L20.772 13.3405C20.8387 13.2844 20.9055 13.2283 20.9723 13.1679C21.1013 13.0472 21.2171 12.9092 21.3239 12.7625C21.5331 12.4649 21.6755 12.1155 21.7334 11.7446C21.7957 11.3694 21.7645 10.9855 21.6577 10.6275ZM17.7187 12.3269L17.6831 12.3139C17.7009 12.3139 17.7142 12.3183 17.7276 12.3183C17.7231 12.3183 17.7231 12.3226 17.7187 12.3269ZM18.9738 9.36808V9.36377V9.35945C18.9738 9.36377 18.9783 9.36377 18.9738 9.36808ZM19.6326 9.13517C19.6281 9.13948 19.6192 9.1438 19.6148 9.1438C19.6103 9.13517 19.6059 9.12654 19.6014 9.11792C19.6103 9.12654 19.6237 9.13086 19.6326 9.13517ZM20.2957 11.8654C20.1266 12.0681 19.9397 12.2751 19.7349 12.4692C19.6593 12.5425 19.5791 12.6116 19.4946 12.6719C19.5658 12.59 19.637 12.5124 19.7082 12.4304C20.0287 12.0595 20.3269 11.6885 20.5984 11.3047C20.7364 11.1149 20.8654 10.9208 20.9856 10.7224C20.999 10.6965 21.0168 10.6706 21.0301 10.6491C21.0479 10.6965 21.0657 10.744 21.0791 10.7914C21.0791 10.7957 21.0835 10.8 21.0835 10.8044C20.861 11.1408 20.5984 11.5031 20.2957 11.8654Z" fill="#FFE600"/>
<path d="M19.6908 16.4416C19.6107 16.3338 19.5172 16.2303 19.4193 16.1354C19.3703 16.0879 19.3169 16.0448 19.268 16.0017C19.2146 15.9542 19.1567 15.9154 19.0988 15.8766C18.8674 15.7213 18.6137 15.5876 18.3199 15.5186C18.1731 15.4841 18.0128 15.4625 17.8481 15.4798C17.7102 15.4927 17.5633 15.5143 17.4209 15.5488C17.2784 15.5833 17.1316 15.6264 16.9936 15.6911C16.8511 15.7558 16.7132 15.8378 16.5885 15.9456C16.4639 16.0534 16.3616 16.1871 16.2859 16.3295C16.2503 16.3985 16.2191 16.4675 16.1924 16.5365C16.188 16.5408 16.188 16.5451 16.1835 16.5494C16.09 16.6745 16.0055 16.8168 15.9476 16.9764C15.9209 17.0584 15.8987 17.1446 15.8898 17.2309C15.8853 17.274 15.8809 17.3215 15.8809 17.3646V17.3948V17.4293C15.8809 17.4509 15.8809 17.4724 15.8853 17.494C15.8987 17.6708 15.9432 17.8477 16.0144 18.0202C16.1568 18.3609 16.4105 18.6715 16.731 18.9216C17.0514 19.1675 17.4476 19.3573 17.8926 19.4306C18.1152 19.4694 18.3511 19.4737 18.587 19.4349C18.8229 19.3961 19.0632 19.3141 19.2724 19.1804C19.2991 19.1632 19.3258 19.1459 19.3525 19.1287L19.3703 19.1157L19.3926 19.0985L19.4282 19.0683C19.4772 19.0295 19.5217 18.9907 19.5706 18.9475C19.6596 18.8613 19.7442 18.7664 19.8199 18.6585C19.9667 18.4472 20.0691 18.2014 20.1092 17.9383C20.1492 17.6795 20.127 17.4077 20.0513 17.1533C19.9801 16.8945 19.851 16.6573 19.6908 16.4416ZM18.6226 16.0965C18.6181 16.1009 18.6137 16.1009 18.6092 16.1052C18.6048 16.1009 18.6048 16.0922 18.6003 16.0879C18.6092 16.0922 18.6137 16.0965 18.6226 16.0965ZM17.2695 18.3523L17.2428 18.3437C17.2562 18.3437 17.2651 18.348 17.274 18.348C17.274 18.348 17.274 18.3523 17.2695 18.3523ZM17.2562 16.1871C17.0915 16.3596 16.9446 16.5408 16.8066 16.7349C16.7043 16.8815 16.6063 17.0368 16.5262 17.2007C16.544 17.0799 16.5618 16.9678 16.5841 16.8643C16.6375 16.6227 16.7354 16.42 16.9001 16.2734C17.047 16.144 17.2384 16.0534 17.452 15.9973C17.3852 16.062 17.3185 16.1224 17.2562 16.1871ZM17.5588 18.7362C17.6523 18.6672 17.7413 18.5938 17.8214 18.5162C17.9149 18.4299 18.0039 18.348 18.0885 18.2617L18.3377 18.0073L18.3422 18.003C18.3466 17.9986 18.3466 17.9986 18.3511 17.9943C18.3644 17.9814 18.3822 17.9598 18.4 17.9426L18.4579 17.8822L18.5736 17.7614C18.5959 17.7355 18.6226 17.7097 18.6448 17.6838C18.6448 17.6881 18.6404 17.6881 18.6404 17.6924C18.5336 17.8563 18.4357 18.0245 18.3511 18.1927C18.3021 18.2445 18.2576 18.2962 18.2042 18.348C18.1775 18.3782 18.1463 18.4084 18.1196 18.4343L18.1107 18.4429L18.1063 18.4472L18.084 18.4645C18.0707 18.4774 18.0529 18.4903 18.0395 18.499C17.9194 18.5938 17.7858 18.6715 17.6479 18.706C17.6167 18.7276 17.5855 18.7362 17.5588 18.7362ZM18.7561 19.0165C18.6804 19.0424 18.6092 19.0597 18.5336 19.0769C18.3422 19.1114 18.1463 19.1114 17.9594 19.0812C17.9372 19.0769 17.9149 19.0726 17.8926 19.0726C17.9728 19.0381 18.0484 18.9993 18.1152 18.9562C18.1419 19.0208 18.2131 19.0597 18.2843 19.0424C18.36 19.0252 18.4223 18.9993 18.4802 18.9691C18.538 18.9389 18.5914 18.9044 18.6359 18.8699C18.7294 18.8009 18.814 18.7232 18.8941 18.6456C18.9208 18.6197 18.9431 18.5938 18.9698 18.568C18.8852 18.7103 18.8273 18.8268 18.7962 18.9087C18.7695 18.9562 18.7606 18.9907 18.7561 19.0165ZM19.7041 17.8865C19.6774 18.0892 19.6018 18.279 19.4905 18.4429C19.4326 18.5248 19.3703 18.6025 19.2991 18.6758C19.2635 18.7103 19.2235 18.7448 19.1878 18.7793L19.1567 18.8052L19.13 18.8268C19.1122 18.8397 19.0899 18.8569 19.0677 18.8699C18.9831 18.926 18.8896 18.9734 18.7962 19.0079C18.8095 18.9907 18.8229 18.9691 18.8362 18.9475C18.8852 18.8742 18.9653 18.7621 19.0677 18.6197C19.17 18.4774 19.3036 18.3006 19.4549 18.0892C19.5306 17.9814 19.6107 17.8649 19.6908 17.7355C19.6997 17.7226 19.7041 17.7097 19.713 17.6967C19.7175 17.7528 19.713 17.8175 19.7041 17.8865Z" fill="#FFE600"/>
<path d="M5.13672 2.44117C5.13672 2.46705 5.14117 2.49724 5.14117 2.52312C5.15897 2.74309 5.21683 2.96306 5.30585 3.17872C5.48389 3.60572 5.7999 3.9939 6.20047 4.30445C6.60105 4.61068 7.0951 4.8479 7.65145 4.94279C7.92741 4.99023 8.22562 4.99886 8.51937 4.95142C8.81313 4.90397 9.11134 4.80046 9.37839 4.63224C9.41399 4.61068 9.44515 4.58911 9.47631 4.56755L9.49856 4.5503L9.52527 4.52873L9.56978 4.49422C9.63209 4.44678 9.68995 4.39502 9.74781 4.34326C9.85908 4.23544 9.9659 4.11467 10.0549 3.98527C10.2374 3.72217 10.3665 3.41163 10.4154 3.08814C10.4644 2.76034 10.4377 2.42392 10.3442 2.10475C10.2508 1.78558 10.095 1.48366 9.89024 1.21624C9.78787 1.08254 9.6766 0.953142 9.55197 0.836687C9.48966 0.780616 9.42735 0.720232 9.36058 0.668475C9.28937 0.612404 9.22261 0.560646 9.15139 0.508889C8.86654 0.310485 8.54608 0.150899 8.18111 0.060323C7.99862 0.0171916 7.79833 -0.00868719 7.58914 0.0128785C7.41556 0.030131 7.23752 0.0560098 7.05949 0.0991412C6.88146 0.142272 6.69897 0.19403 6.52094 0.27598C6.3429 0.353616 6.16932 0.461444 6.01799 0.595152C5.86221 0.728859 5.73313 0.897071 5.63967 1.07391C5.59516 1.15586 5.55955 1.24212 5.52839 1.32838C5.52394 1.3327 5.51949 1.33701 5.51504 1.34132C5.39487 1.4966 5.2925 1.67343 5.22128 1.87615C5.18568 1.97535 5.16342 2.08318 5.15007 2.19532C5.14562 2.25139 5.14117 2.30747 5.14117 2.36354V2.40235L5.13672 2.44117ZM6.8681 3.60141L6.83695 3.58847C6.8503 3.58847 6.86365 3.59278 6.877 3.59278C6.87255 3.59709 6.87255 3.59709 6.8681 3.60141ZM9.60093 3.25204C9.6944 3.11833 9.79232 2.97169 9.89469 2.8121C9.90359 2.79485 9.91249 2.7776 9.92139 2.76466C9.92139 2.85092 9.92139 2.93287 9.90804 3.01482C9.87243 3.26498 9.78342 3.5022 9.64099 3.71355C9.56978 3.81706 9.48966 3.91195 9.40064 4.00253C9.35613 4.04566 9.30717 4.08879 9.26267 4.12761L9.22706 4.1578L9.19145 4.18368C9.16475 4.20093 9.14249 4.21818 9.11579 4.23544C9.00897 4.30445 8.89324 4.36483 8.77752 4.40796C8.79087 4.3864 8.80868 4.36052 8.83093 4.33033C8.89324 4.23544 8.99116 4.09742 9.12024 3.92058C9.24931 3.73943 9.41399 3.51946 9.60093 3.25204ZM8.98671 3.87313C8.88434 4.05428 8.80868 4.19662 8.76862 4.30013C8.74637 4.3562 8.73301 4.39934 8.72411 4.42953C8.63509 4.45972 8.54163 4.4856 8.44371 4.50285C8.20781 4.54598 7.96301 4.54598 7.72712 4.51148C7.70041 4.50716 7.67371 4.50285 7.647 4.49854C7.74492 4.45972 7.83839 4.40796 7.92296 4.3562C7.95411 4.43384 8.04313 4.4856 8.13215 4.46403C8.22562 4.44678 8.30573 4.41228 8.37694 4.37346C8.44816 4.33464 8.51047 4.29582 8.57278 4.24838C8.69296 4.16211 8.79533 4.06722 8.89324 3.97234C8.9244 3.93783 8.95556 3.90333 8.98671 3.87313ZM8.55943 0.784929C8.55498 0.789243 8.54608 0.789243 8.54163 0.793556C8.53718 0.784929 8.53718 0.776303 8.53272 0.77199C8.54163 0.776303 8.55053 0.780616 8.55943 0.784929ZM7.56244 3.80844C7.67816 3.70061 7.78943 3.59709 7.89625 3.48926L8.20781 3.17441L8.21226 3.17009C8.21671 3.16578 8.22116 3.16147 8.22116 3.15715C8.23452 3.1399 8.26122 3.11402 8.28348 3.09246L8.35024 3.01913L8.49267 2.86817C8.52382 2.83798 8.55053 2.80348 8.58168 2.77328C8.58168 2.7776 8.57723 2.78191 8.57723 2.78191C8.44371 2.98894 8.32353 3.19597 8.21226 3.40731C8.1544 3.47201 8.09209 3.53671 8.02978 3.60141C7.99417 3.64022 7.95856 3.67473 7.92296 3.70923L7.9096 3.72217L7.90515 3.72649L7.87845 3.75668C7.86065 3.77393 7.84284 3.78687 7.82059 3.80412C7.66926 3.92489 7.50013 4.01978 7.33544 4.06291C7.29984 4.07154 7.26423 4.08016 7.23307 4.08448C7.3488 3.9939 7.46007 3.89901 7.56244 3.80844ZM6.01354 1.74676C6.0803 1.44484 6.20492 1.19036 6.40966 1.00921C6.59215 0.845313 6.8325 0.733172 7.0951 0.664162C7.01053 0.737485 6.93042 0.819434 6.8503 0.897071C6.64556 1.10841 6.45862 1.33701 6.28949 1.57855C6.16042 1.76401 6.04024 1.9581 5.93787 2.16082C5.96013 2.01849 5.98238 1.87615 6.01354 1.74676Z" fill="#FFE600"/>
</g>
<defs>
<clipPath id="clip0_1218_36">
<rect width="21.7647" height="20" fill="white"/>
</clipPath>
</defs>
</svg>
