<svg width="58" height="60" viewBox="0 0 58 60" fill="none" xmlns="http://www.w3.org/2000/svg">
<path fill-rule="evenodd" clip-rule="evenodd" d="M29.0762 0.291325C28.8431 -0.09719 28.28 -0.0971897 28.047 0.291325L22.3884 9.72588C22.2343 9.98271 21.9145 10.0866 21.6389 9.96939L11.5155 5.66274C11.0986 5.48538 10.6431 5.81634 10.683 6.2676L11.6505 17.2264C11.6769 17.5247 11.4792 17.7967 11.1873 17.8639L0.465954 20.3301C0.0244477 20.4317 -0.149543 20.9672 0.147948 21.3089L7.37213 29.606C7.56878 29.8318 7.56878 30.1681 7.37213 30.394L0.147948 38.6911C-0.149543 39.0328 0.0244477 39.5683 0.465957 39.6697L11.1873 42.136C11.4792 42.2032 11.6769 42.4753 11.6505 42.7735L10.683 53.7322C10.6431 54.1837 11.0986 54.5146 11.5155 54.3373L21.6389 50.0305C21.9145 49.9132 22.2343 50.0173 22.3884 50.2741L28.047 59.7085C28.28 60.0973 28.8431 60.097 29.0762 59.7085L34.7348 50.2741C34.8887 50.0173 35.2085 49.9132 35.4842 50.0305L45.6077 54.3373C46.0244 54.5146 46.48 54.1837 46.4401 53.7322L45.4727 42.7735C45.4463 42.4753 45.644 42.2032 45.9358 42.136L56.6572 39.6697C57.0985 39.5683 57.2725 39.0328 56.9752 38.6911L49.7509 30.394C49.5544 30.1681 49.5544 29.8318 49.7509 29.606L56.9752 21.3089C57.2725 20.9672 57.0985 20.4317 56.6572 20.3301L45.9358 17.8639C45.644 17.7967 45.4463 17.5247 45.4727 17.2264L46.4401 6.2676C46.48 5.81634 46.0244 5.48538 45.6077 5.66274L35.4842 9.96939C35.2085 10.0866 34.8887 9.98271 34.7348 9.72588L29.0762 0.291325ZM28.595 45.0334C36.8792 45.0334 43.595 38.3176 43.595 30.0334C43.595 21.7491 36.8792 15.0334 28.595 15.0334C20.3107 15.0334 13.595 21.7491 13.595 30.0334C13.595 38.3176 20.3107 45.0334 28.595 45.0334Z" fill="#FFE600"/>
</svg>
