<svg width="18" height="18" viewBox="0 0 18 18" fill="none" xmlns="http://www.w3.org/2000/svg">
<path d="M16.9509 5.78498V9.77271C16.9509 12.9629 15.3558 14.558 12.1656 14.558H11.7669C11.5196 14.558 11.2804 14.6776 11.1288 14.877L9.93251 16.4721C9.40613 17.1739 8.54478 17.1739 8.0184 16.4721L6.82208 14.877C6.69448 14.7015 6.39939 14.558 6.18405 14.558H5.78527C2.59509 14.558 1 13.7604 1 9.77271V5.78498C1 2.5948 2.59509 0.99971 5.78527 0.99971H8.97546" stroke="#292D32" stroke-width="1.5" stroke-miterlimit="10" stroke-linecap="round" stroke-linejoin="round"/>
<path d="M11.5283 3.08934C11.2651 2.29977 11.5761 1.32676 12.4375 1.0556C12.8841 0.920013 13.4424 1.03167 13.7614 1.45437C14.0645 1.01572 14.6387 0.920013 15.0853 1.0556C15.9467 1.31879 16.2577 2.29977 15.9945 3.08934C15.5878 4.34148 14.1602 4.9875 13.7614 4.9875C13.3626 4.9875 11.951 4.34946 11.5283 3.08934Z" stroke="#292D32" stroke-width="1.5" stroke-linecap="round" stroke-linejoin="round"/>
<path d="M12.162 8.17761H12.1691" stroke="#292D32" stroke-width="2" stroke-linecap="round" stroke-linejoin="round"/>
<path d="M8.97252 8.17761H8.97968" stroke="#292D32" stroke-width="2" stroke-linecap="round" stroke-linejoin="round"/>
<path d="M5.78111 8.17761H5.78827" stroke="#292D32" stroke-width="2" stroke-linecap="round" stroke-linejoin="round"/>
</svg>
