<svg width="18" height="18" viewBox="0 0 18 18" fill="none" xmlns="http://www.w3.org/2000/svg">
<path d="M4.38952 7.5722L4.39168 7.57069C5.72176 6.64469 6.83945 5.52836 7.73779 4.22324L7.73962 4.22056C8.27162 3.44226 8.69954 2.65672 9.01578 1.86417C9.14651 2.19822 9.2976 2.53284 9.4683 2.86795L9.46827 2.86796L9.47188 2.87491C9.93377 3.76439 10.5196 4.61131 11.224 5.41633L11.2313 5.42466L11.2388 5.43282C11.9585 6.21957 12.7608 6.92953 13.6439 7.56269L13.6439 7.5627L13.6483 7.56583C14.481 8.15611 15.3346 8.62838 16.2089 8.97594C15.75 9.16353 15.29 9.3913 14.8289 9.65699L14.8289 9.65697L14.8225 9.66073C13.8518 10.2297 12.9494 10.9066 12.1158 11.6896C11.2791 12.46 10.58 13.284 10.0279 14.1638L10.0276 14.1643C9.61499 14.8228 9.27684 15.4741 9.02003 16.1175C8.76427 15.4844 8.42892 14.8418 8.02083 14.1903C7.20846 12.8775 6.06891 11.6886 4.6321 10.6147C3.70069 9.91097 2.7518 9.35917 1.78545 8.97174C2.68394 8.61975 3.55211 8.15193 4.38952 7.5722ZM9.40015 17.2754C9.40027 17.2759 9.4004 17.2764 9.40052 17.2768L9.40015 17.2754ZM0.749304 8.62174C0.749801 8.62187 0.7503 8.62201 0.750798 8.62215C0.750345 8.62202 0.749893 8.6219 0.74944 8.62177L0.749304 8.62174Z" stroke="#111111" stroke-width="2"/>
</svg>
