<svg width="102" height="102" viewBox="0 0 102 102" fill="none" xmlns="http://www.w3.org/2000/svg">
<path d="M57.27 0L0 57.27V101.93L101.93 0H57.27Z" fill="#48CBFF"/>
<path d="M15.5133 70.1476L8.31364 62.948L10.9502 60.3114C11.4611 59.8005 11.9685 59.4618 12.4724 59.2954C12.9739 59.1267 13.4509 59.1021 13.9032 59.2216C14.3532 59.3388 14.7563 59.5755 15.1125 59.9317C15.4125 60.2317 15.6105 60.5399 15.7066 60.8563C15.8004 61.1703 15.8168 61.482 15.7558 61.7914C15.6949 62.096 15.5824 62.3867 15.4184 62.6632L15.4887 62.7335C15.7394 62.5062 16.05 62.3503 16.4203 62.266C16.7906 62.1769 17.1808 62.1874 17.5909 62.2976C18.001 62.4077 18.3924 62.6491 18.7651 63.0218C19.133 63.3897 19.3767 63.8069 19.4963 64.2733C19.6158 64.735 19.5818 65.2306 19.3943 65.7603C19.2045 66.2876 18.8307 66.8302 18.2729 67.388L15.5133 70.1476ZM15.668 68.1297L17.2358 66.5618C17.7561 66.0415 18.028 65.5681 18.0514 65.1416C18.0749 64.715 17.9354 64.3506 17.6331 64.0483C17.4058 63.821 17.1398 63.6698 16.8351 63.5948C16.5304 63.5198 16.2152 63.5327 15.8894 63.6335C15.566 63.7319 15.259 63.9264 14.9684 64.217L13.3618 65.8236L15.668 68.1297ZM12.5146 64.9764L13.97 63.521C14.2137 63.2772 14.386 63.0112 14.4868 62.723C14.5899 62.4324 14.6145 62.1453 14.5606 61.8617C14.5067 61.5734 14.3637 61.3133 14.1317 61.0812C13.8341 60.7836 13.4802 60.6383 13.07 60.6453C12.6599 60.6524 12.2392 60.8715 11.808 61.3027L10.3245 62.7862L12.5146 64.9764ZM21.9905 63.6704L14.7908 56.4707L19.3047 51.9569L20.2398 52.892L16.8122 56.3196L19.0059 58.5132L22.1979 55.3212L23.1295 56.2528L19.9375 59.4448L22.1416 61.649L25.6114 58.1792L26.5465 59.1144L21.9905 63.6704ZM26.5737 48.4705C26.2035 48.1752 25.791 48.0721 25.3363 48.1611C24.8793 48.2478 24.4446 48.4974 24.0321 48.9099C23.7368 49.2052 23.5282 49.5075 23.4063 49.8169C23.2821 50.1239 23.2411 50.418 23.2833 50.6993C23.3255 50.9758 23.4485 51.216 23.6524 51.4199C23.8235 51.591 24.011 51.6988 24.2149 51.7433C24.4211 51.7855 24.632 51.7832 24.8477 51.7363C25.0633 51.6848 25.2754 51.6109 25.484 51.5148C25.6902 51.4164 25.8812 51.3145 26.057 51.209L26.9429 50.6887C27.2288 50.5153 27.5405 50.3559 27.878 50.2106C28.2155 50.0653 28.5658 49.968 28.9291 49.9188C29.2924 49.8696 29.6533 49.8977 30.0119 50.0032C30.3728 50.1063 30.7149 50.3196 31.0384 50.643C31.4462 51.0508 31.7028 51.5184 31.8082 52.0457C31.916 52.5706 31.8621 53.1237 31.6465 53.705C31.4333 54.2838 31.0454 54.8545 30.4829 55.417C29.9439 55.956 29.392 56.3369 28.8271 56.5595C28.2623 56.7822 27.7116 56.8478 27.1749 56.7564C26.6359 56.6626 26.1378 56.4107 25.6808 56.0006L26.7706 54.9108C27.0518 55.1498 27.353 55.2822 27.6741 55.308C27.9952 55.3291 28.3139 55.2658 28.6303 55.1182C28.9467 54.9658 29.2443 54.7502 29.5232 54.4713C29.8302 54.1643 30.0552 53.8432 30.1982 53.5081C30.3411 53.1683 30.395 52.8425 30.3599 52.5308C30.3224 52.2168 30.1865 51.9426 29.9521 51.7082C29.7388 51.4949 29.5033 51.3813 29.2455 51.3672C28.99 51.3508 28.7147 51.4012 28.4194 51.5184C28.1264 51.6332 27.817 51.7855 27.4913 51.9754L26.4085 52.5941C25.675 53.0136 24.9871 53.2398 24.345 53.2726C23.7051 53.303 23.1345 53.0675 22.6329 52.566C22.2181 52.1511 21.9685 51.6766 21.8841 51.1422C21.7998 50.6079 21.8642 50.063 22.0775 49.5075C22.2884 48.9497 22.6353 48.4295 23.1181 47.9467C23.6055 47.4592 24.1211 47.1147 24.6649 46.9131C25.2109 46.7092 25.7418 46.6495 26.2574 46.7338C26.7706 46.8159 27.2253 47.0455 27.6213 47.4229L26.5737 48.4705ZM27.7066 45.4252L26.7715 44.4901L32.3435 38.9181L33.2786 39.8532L31.0322 42.0996L37.2967 48.3641L36.214 49.4469L29.9495 43.1824L27.7066 45.4252ZM45.725 39.9358L43.3943 42.2666L36.1946 35.067L38.5992 32.6624C39.3046 31.957 40.0546 31.4953 40.8491 31.2773C41.6412 31.057 42.4404 31.0804 43.2466 31.3476C44.0528 31.6101 44.8297 32.1151 45.5774 32.8628C46.3273 33.6127 46.8347 34.3943 47.0996 35.2076C47.3667 36.0185 47.3878 36.827 47.1628 37.6332C46.9355 38.4371 46.4562 39.2046 45.725 39.9358ZM43.5314 40.2311L44.7161 39.0464C45.2645 38.498 45.6172 37.9391 45.7742 37.3696C45.9289 36.7977 45.8996 36.2247 45.6863 35.6505C45.4707 35.074 45.0782 34.501 44.5087 33.9315C43.9439 33.3666 43.3744 32.9776 42.8002 32.7643C42.2283 32.5487 41.6635 32.5159 41.1057 32.6659C40.5479 32.8159 40.0066 33.1534 39.4816 33.6784L38.2301 34.9299L43.5314 40.2311ZM50.5385 35.1223L43.3389 27.9227L47.8527 23.4089L48.7878 24.344L45.3603 27.7715L47.5539 29.9652L50.7459 26.7731L51.6775 27.7047L48.4855 30.8968L50.6897 33.1009L54.1594 29.6312L55.0946 30.5663L50.5385 35.1223ZM57.1115 28.5493L55.9585 29.7024L51.3497 19.9119L52.6047 18.6569L62.3953 23.2656L61.2422 24.4187L53.3149 20.5622L53.2586 20.6185L57.1115 28.5493ZM54.4855 25.5366L58.2259 21.7961L59.14 22.7102L55.3995 26.4506L54.4855 25.5366ZM63.4349 22.2259L56.2353 15.0263L57.3216 13.94L63.5861 20.2045L66.8484 16.9422L67.7836 17.8773L63.4349 22.2259Z" fill="black"/>
</svg>
