<svg width="102" height="102" viewBox="0 0 102 102" fill="none" xmlns="http://www.w3.org/2000/svg">
<path d="M57.27 0L0 57.27V101.93L101.93 0H57.27Z" fill="#48CBFF"/>
<path d="M19.2017 66.4588L12.0021 59.2591L14.5684 56.6929C15.1285 56.1327 15.6945 55.7706 16.2663 55.6066C16.8382 55.4425 17.3924 55.446 17.9291 55.6171C18.4635 55.7859 18.951 56.0905 19.3916 56.5311C19.8345 56.9741 20.1404 57.4651 20.3091 58.0041C20.4778 58.5385 20.4802 59.0939 20.3161 59.6704C20.1521 60.2423 19.7912 60.8071 19.2334 61.3649L17.4686 63.1296L16.5476 62.2086L18.2139 60.5423C18.5678 60.1884 18.7939 59.8404 18.8924 59.4982C18.9885 59.1537 18.9814 58.8232 18.8713 58.5068C18.7611 58.1904 18.5701 57.8963 18.2983 57.6244C18.0264 57.3526 17.7334 57.1628 17.4194 57.0549C17.1054 56.9471 16.7772 56.9448 16.4351 57.0479C16.0952 57.1487 15.7449 57.3795 15.384 57.7405L14.02 59.1045L20.288 65.3725L19.2017 66.4588ZM28.1881 50.2728C28.9568 51.0415 29.4771 51.843 29.7489 52.6773C30.0185 53.5093 30.0571 54.3191 29.865 55.1065C29.6728 55.8893 29.2662 56.5912 28.6451 57.2123C28.0217 57.8357 27.3174 58.2446 26.5323 58.4392C25.7472 58.629 24.9375 58.588 24.1031 58.3161C23.2688 58.0443 22.4685 57.5251 21.7021 56.7588C20.9334 55.9901 20.4143 55.1897 20.1447 54.3577C19.8729 53.5234 19.833 52.7148 20.0252 51.9321C20.2174 51.1446 20.6252 50.4392 21.2486 49.8158C21.8697 49.1947 22.5727 48.7893 23.3579 48.5994C24.143 48.4049 24.9527 48.4436 25.787 48.7154C26.619 48.9849 27.4194 49.5041 28.1881 50.2728ZM27.1124 51.3485C26.5265 50.7626 25.9382 50.3642 25.3476 50.1532C24.757 49.9376 24.1945 49.8908 23.6602 50.0126C23.1258 50.1298 22.6524 50.3946 22.24 50.8071C21.8251 51.2219 21.5591 51.6965 21.4419 52.2309C21.3224 52.7629 21.3693 53.3254 21.5826 53.9183C21.7958 54.5065 22.1954 55.0936 22.7813 55.6795C23.3672 56.2654 23.9555 56.6662 24.5461 56.8818C25.1367 57.0927 25.6992 57.1396 26.2335 57.0224C26.7655 56.9029 27.2389 56.6357 27.6537 56.2209C28.0662 55.8084 28.3322 55.3362 28.4517 54.8042C28.5713 54.2675 28.5244 53.705 28.3111 53.1168C28.0979 52.5238 27.6983 51.9344 27.1124 51.3485ZM33.1422 52.5183L25.9426 45.3186L28.5089 42.7524C29.069 42.1922 29.635 41.8301 30.2068 41.6661C30.7787 41.502 31.3329 41.5055 31.8696 41.6766C32.404 41.8454 32.8915 42.15 33.3321 42.5906C33.775 43.0336 34.0809 43.5246 34.2496 44.0636C34.4183 44.598 34.4207 45.1534 34.2566 45.7299C34.0926 46.3018 33.7317 46.8666 33.1739 47.4244L31.4091 49.1891L30.4881 48.2681L32.1544 46.6018C32.5083 46.2479 32.7344 45.8999 32.8329 45.5577C32.929 45.2132 32.9219 44.8827 32.8118 44.5663C32.7016 44.2499 32.5106 43.9558 32.2388 43.6839C31.9669 43.4121 31.6739 43.2223 31.3599 43.1144C31.0459 43.0066 30.7177 43.0043 30.3756 43.1074C30.0357 43.2082 29.6854 43.439 29.3245 43.8L27.9605 45.164L34.2285 51.432L33.1422 52.5183ZM36.9046 34.3566L37.9944 33.2668L42.7297 38.0021C43.2336 38.506 43.5617 39.0708 43.7141 39.6966C43.864 40.32 43.8359 40.9574 43.6297 41.609C43.4211 42.2581 43.0285 42.871 42.452 43.4475C41.8778 44.0217 41.2661 44.4131 40.6169 44.6217C39.9654 44.8279 39.3279 44.8561 38.7045 44.7061C38.0788 44.5537 37.514 44.2256 37.0101 43.7217L32.2748 38.9864L33.3611 37.9002L38.0085 42.5476C38.3342 42.8733 38.6952 43.0913 39.0912 43.2015C39.4897 43.3093 39.8939 43.3034 40.3041 43.1839C40.7119 43.062 41.0974 42.8194 41.4607 42.4562C41.8263 42.0906 42.07 41.7039 42.1919 41.2961C42.3137 40.8836 42.3184 40.4805 42.2059 40.0868C42.0958 39.6907 41.8778 39.3298 41.5521 39.004L36.9046 34.3566ZM46.7734 38.8871L39.5737 31.6875L40.66 30.6012L46.9245 36.8657L50.1869 33.6034L51.122 34.5385L46.7734 38.8871ZM53.3367 32.3238L52.1836 33.4769L47.5749 23.6863L48.8299 22.4313L58.6204 27.0401L57.4674 28.1931L49.54 24.3367L49.4838 24.3929L53.3367 32.3238ZM50.7107 29.311L54.4511 25.5706L55.3651 26.4846L51.6247 30.2251L50.7107 29.311ZM59.6601 26.0004L52.4605 18.8007L55.0268 16.2345C55.5845 15.6767 56.1435 15.3099 56.7036 15.1341C57.2661 14.956 57.8086 14.9455 58.3313 15.1025C58.8516 15.2572 59.3332 15.556 59.7761 15.9989C60.2167 16.4395 60.512 16.92 60.662 17.4403C60.812 17.9559 60.7944 18.4914 60.6093 19.0468C60.4265 19.5999 60.0562 20.1554 59.4984 20.7131L57.5544 22.6572L56.6193 21.7221L58.4649 19.8765C58.8164 19.5249 59.0519 19.1886 59.1715 18.8675C59.2933 18.5441 59.3097 18.2348 59.2207 17.9395C59.1316 17.6442 58.9523 17.3618 58.6828 17.0922C58.411 16.8204 58.1227 16.6376 57.818 16.5438C57.5157 16.4477 57.2005 16.4583 56.8724 16.5755C56.5443 16.688 56.2009 16.9235 55.8423 17.2821L54.4783 18.6461L60.7464 24.9141L59.6601 26.0004ZM59.966 19.198L64.993 20.6674L63.7556 21.9049L58.7637 20.4003L59.966 19.198Z" fill="black"/>
</svg>
