<svg width="40" height="40" viewBox="0 0 40 40" fill="none" xmlns="http://www.w3.org/2000/svg">
<path d="M20.0508 39.9999C19.42 39.9999 18.8867 39.5431 18.734 38.9311C18.247 36.9805 17.3149 34.9061 15.9375 32.7083C14.3056 30.0693 11.9792 27.6215 8.95834 25.3645C6.33098 23.3787 3.70362 22.0245 1.07628 21.3021C0.45401 21.1311 0 20.5793 0 19.934C0 19.3013 0.436546 18.7558 1.04495 18.5821C3.6209 17.8466 6.10244 16.6526 8.48958 14.9999C11.2326 13.0902 13.5243 10.7985 15.3646 8.12494C16.9926 5.74324 18.1101 3.3877 18.7173 1.05835C18.8763 0.448129 19.4135 -6.10352e-05 20.0442 -6.10352e-05C20.6818 -6.10352e-05 21.2228 0.458055 21.378 1.0766C21.7284 2.47302 22.276 3.90234 23.0208 5.36452C23.9584 7.17008 25.1562 8.90618 26.6146 10.5729C28.1076 12.2048 29.7744 13.6805 31.6146 14.9999C34.0194 16.7046 36.464 17.9022 38.9488 18.5927C39.5584 18.7621 40 19.3048 40 19.9374C40 20.5795 39.545 21.1267 38.9258 21.2965C37.3508 21.7283 35.7296 22.4247 34.0626 23.3853C32.0486 24.5659 30.1736 25.9721 28.4374 27.6041C26.7014 29.2013 25.2778 30.8853 24.1666 32.6561C22.7866 34.8585 21.8534 36.9489 21.3674 38.9277C21.2166 39.5415 20.6826 39.9999 20.0508 39.9999Z" fill="#FFD900"/>
</svg>
