<svg width="30" height="30" viewBox="0 0 30 30" fill="none" xmlns="http://www.w3.org/2000/svg">
<path d="M15.0381 29.9999C14.565 29.9999 14.1651 29.6573 14.0505 29.1983C13.6853 27.7354 12.9862 26.1796 11.9531 24.5312C10.7292 22.552 8.98437 20.7161 6.71876 19.0234C4.74824 17.534 2.77772 16.5184 0.807207 15.9766C0.340508 15.8483 0 15.4345 0 14.9505C0 14.4759 0.32741 14.0669 0.78371 13.9366C2.71568 13.385 4.57683 12.4894 6.36719 11.2499C8.42448 9.81765 10.1432 8.09889 11.5234 6.09369C12.7444 4.30741 13.5826 2.54076 14.0379 0.79375C14.1572 0.336081 14.5601 -6.10352e-05 15.0332 -6.10352e-05C15.5114 -6.10352e-05 15.9171 0.343526 16.0335 0.807434C16.2963 1.85475 16.707 2.92674 17.2656 4.02337C17.9688 5.37754 18.8672 6.67962 19.961 7.92963C21.0807 9.15358 22.3308 10.2604 23.711 11.2499C25.5146 12.5284 27.348 13.4266 29.2116 13.9445C29.6688 14.0716 30 14.4786 30 14.953C30 15.4346 29.6588 15.845 29.1944 15.9724C28.0131 16.2962 26.7972 16.8185 25.547 17.539C24.0365 18.4244 22.6302 19.4791 21.3281 20.7031C20.0261 21.901 18.9584 23.164 18.125 24.4921C17.09 26.1439 16.3901 27.7117 16.0256 29.1958C15.9125 29.6561 15.512 29.9999 15.0381 29.9999Z" fill="#00FFA3"/>
</svg>
