<svg width="50" height="50" viewBox="0 0 50 50" fill="none" xmlns="http://www.w3.org/2000/svg">
<path d="M25.0635 49.9999C24.275 49.9999 23.6084 49.4289 23.4175 48.6639C22.8088 46.2257 21.6436 43.6327 19.9219 40.8854C17.882 37.5867 14.9739 34.5269 11.1979 31.7057C7.91372 29.2234 4.62953 27.5307 1.34535 26.6277C0.567513 26.4139 0 25.7242 0 24.9175C0 24.1266 0.545682 23.4448 1.30618 23.2277C4.52612 22.3083 7.62805 20.8157 10.612 18.7499C14.0408 16.3628 16.9054 13.4982 19.2057 10.1562C21.2407 7.17906 22.6377 4.23464 23.3966 1.32296C23.5954 0.560176 24.2669 -6.10352e-05 25.0553 -6.10352e-05C25.8523 -6.10352e-05 26.5285 0.572584 26.7225 1.34576C27.1605 3.09129 27.845 4.87794 28.776 6.70566C29.948 8.96261 31.4452 11.1327 33.2682 13.2161C35.1345 15.256 37.218 17.1006 39.5182 18.7499C42.5243 20.8807 45.58 22.3777 48.686 23.2409C49.448 23.4527 50 24.131 50 24.9218C50 25.7244 49.4312 26.4084 48.6572 26.6207C46.6885 27.1604 44.662 28.0309 42.5783 29.2317C40.0608 30.7074 37.717 32.4652 35.5467 34.5052C33.3767 36.5017 31.5972 38.6067 30.2083 40.8202C28.4832 43.5732 27.3167 46.1862 26.7092 48.6597C26.5208 49.4269 25.8532 49.9999 25.0635 49.9999Z" fill="#A966FF"/>
</svg>
