<svg width="76" height="72" viewBox="0 0 76 72" fill="none" xmlns="http://www.w3.org/2000/svg">
<g clip-path="url(#clip0_1567_223)">
<path d="M23.7414 47.3813H28.4414L28.4414 9.4813H23.7414L23.7414 47.3813Z" fill="#FFD91D"/>
<path d="M28.5227 52.1813H33.2227L33.2227 4.78131H28.5227L28.5227 52.1813Z" fill="#FFD91D"/>
<path d="M37.9012 4.7H33.2012V52.1H37.9012V4.7Z" fill="#FFD91D"/>
<path d="M42.6004 4.7H37.9004V52.1H42.6004V4.7Z" fill="#FFD91D"/>
<path d="M42.6633 52.1813H47.3633L47.3633 4.78131H42.6633L42.6633 52.1813Z" fill="#FFD91D"/>
<path d="M47.4426 47.3813H52.1426L52.1426 9.4813H47.4426L47.4426 47.3813Z" fill="#FFD91D"/>
<path d="M18.9621 47.3813H23.6621L23.6621 9.4813H18.9621L18.9621 47.3813Z" fill="#FFD91D"/>
<path d="M52.2219 47.3813H56.9219L56.9219 9.4813H52.2219L52.2219 47.3813Z" fill="#FFD91D"/>
<path d="M14.2805 42.6813H18.9805L18.9805 14.2813H14.2805L14.2805 42.6813Z" fill="#FFD91D"/>
<path d="M61.6004 14.2H56.9004V42.6H61.6004V14.2Z" fill="#FFD91D"/>
<path d="M61.6828 37.8813H66.3828V18.8813H61.6828V37.8813Z" fill="#FFD91D"/>
<path d="M42.6633 66.4027H47.3633V52.2027H42.6633V66.4027Z" fill="#FFD91D"/>
<path d="M47.4426 61.6027H52.1426V56.9027H47.4426V61.6027Z" fill="#FFD91D"/>
<path d="M52.2219 61.6626H56.9219V52.1626H52.2219V61.6626Z" fill="#FFD91D"/>
<path d="M18.9621 61.6225H23.6621V47.4225H18.9621V61.6225Z" fill="#FFD91D"/>
<path d="M23.7414 61.6225H28.4414V47.4225H23.7414V61.6225Z" fill="#FFD91D"/>
<path d="M56.9035 56.8824H61.6035V47.3824H56.9035V56.8824Z" fill="#FFD91D"/>
<path d="M14.2805 56.8423H18.9805V42.6423H14.2805L14.2805 56.8423Z" fill="#FFD91D"/>
<path d="M61.6828 52.1621H66.3828V37.9621H61.6828V52.1621Z" fill="#FFD91D"/>
<path d="M9.50117 52.1621H14.2012L14.2012 37.9621H9.50117L9.50117 52.1621Z" fill="#FFD91D"/>
<path d="M66.3625 42.6417H71.0625V33.1417H66.3625V42.6417Z" fill="#FFD91D"/>
<path d="M4.82148 42.6417H9.52148L9.52148 33.1417H4.82148L4.82148 42.6417Z" fill="#FFD91D"/>
<path d="M37.9816 66.4027H42.6816V52.2027H37.9816V66.4027Z" fill="#FFD91D"/>
<path d="M33.1004 52.1H28.4004V66.3H33.1004V52.1Z" fill="#FFD91D"/>
<path d="M33.2023 66.4027H37.9023V52.2027H33.2023V66.4027Z" fill="#FFD91D"/>
<path d="M9.50117 37.8813H14.2012L14.2012 18.8813H9.50117L9.50117 37.8813Z" fill="#FFD91D"/>
<path d="M18.9902 4.8107V9.5107H28.4902V4.8107L18.9902 4.8107Z" fill="#07042D"/>
<path d="M14.2402 9.54071V14.2407H18.9402V9.54071H14.2402Z" fill="#07042D"/>
<path d="M23.7402 19.0011V23.7011H28.4402V19.0011H23.7402Z" fill="#F47D25"/>
<path d="M47.4414 19.0016V23.7016H52.1414V19.0016H47.4414Z" fill="#F47D25"/>
<path d="M47.4004 47.4423V52.1423H52.1004V47.4423H47.4004Z" fill="#FFA72E"/>
<path d="M37.9199 47.4621V52.1621H42.6199V47.4621H37.9199Z" fill="#FFFF53"/>
<path d="M42.6309 42.6322V52.1322H47.3309V42.6322H42.6309Z" fill="#FFFF53"/>
<path d="M47.4102 37.9321V47.4321H52.1102V37.9321H47.4102Z" fill="#FFFF53"/>
<path d="M52.1914 33.1321V42.6321H56.8914V33.1321H52.1914Z" fill="#FFFF53"/>
<path d="M23.6992 47.4418V52.1418H28.3992V47.4418H23.6992Z" fill="#FFA72E"/>
<path d="M18.9609 23.7011V28.4011H23.6609V23.7011H18.9609Z" fill="#F47D25"/>
<path d="M52.1406 23.7818V28.4818H56.8406V23.7818H52.1406Z" fill="#F47D25"/>
<path d="M66.3203 28.4422V33.1422H71.0203V28.4422H66.3203Z" fill="#FFD91D"/>
<path d="M4.69922 28.5208V33.2208H9.39922V28.5208H4.69922Z" fill="#FFD91D"/>
<path d="M52.1797 42.7423V47.4423H56.8797V42.7423H52.1797Z" fill="#FFA72E"/>
<path d="M42.7012 18.9615V23.6615H47.4012V18.9615H42.7012Z" fill="#FFA72E"/>
<path d="M19 42.6616V47.3616H23.7V42.6616H19Z" fill="#F47D25"/>
<path d="M9.46094 14.2407V18.9407H14.1609V14.2407H9.46094Z" fill="#07042D"/>
<path d="M4.71094 18.9107L4.71094 28.4107H9.41094V18.9107H4.71094Z" fill="#07042D"/>
<path d="M28.3926 66.2909V61.5909H18.8926V66.2909H28.3926Z" fill="#07042D"/>
<path d="M47.3535 71.1107V66.4107H28.3535V71.1107H47.3535Z" fill="#07042D"/>
<path d="M47.3906 4.7492V0.049202L28.3906 0.049202V4.7492L47.3906 4.7492Z" fill="#07042D"/>
<path d="M47.4121 18.9695V14.2695L28.4121 14.2695V18.9695L47.4121 18.9695Z" fill="#F47D25"/>
<path d="M47.4316 56.8904V52.1904H28.4316V56.8904H47.4316Z" fill="#FFA72E"/>
<path d="M18.9414 61.5609V56.8609H14.2414V61.5609H18.9414Z" fill="#07042D"/>
<path d="M14.2617 56.8609V52.1609H9.56172V56.8609H14.2617Z" fill="#07042D"/>
<path d="M9.51172 52.1909L9.51172 42.6909H4.81172L4.81172 52.1909H9.51172Z" fill="#07042D"/>
<path d="M0.0195313 28.4208L0.0195312 42.6208H4.71953L4.71953 28.4208H0.0195313Z" fill="#07042D"/>
<path d="M23.6895 23.6514V42.6514H28.3895V23.6514H23.6895Z" fill="#FFA72E"/>
<path d="M28.4707 18.9514V37.9514H33.1707V18.9514H28.4707Z" fill="#FFA72E"/>
<path d="M33.1797 19.0214V33.2214H37.8797V19.0214H33.1797Z" fill="#FFA72E"/>
<path d="M37.8906 18.8914V28.3914H42.5906V18.8914H37.8906Z" fill="#FFA72E"/>
<path d="M18.9805 28.4814V42.6814H23.6805V28.4814H18.9805Z" fill="#FFA72E"/>
<path d="M14.2402 28.4413V42.6413H18.9402V28.4413H14.2402Z" fill="#F47D25"/>
<path d="M56.9004 28.5021V42.7021H61.6004V28.5021H56.9004Z" fill="#FFA72E"/>
<path d="M47.4316 4.7513V9.4513H56.9316V4.7513L47.4316 4.7513Z" fill="#07042D"/>
<path d="M56.9023 9.5016V14.2016H61.6023V9.5016H56.9023Z" fill="#07042D"/>
<path d="M61.6016 14.2818V18.9818H66.3016V14.2818H61.6016Z" fill="#07042D"/>
<path d="M66.332 18.932V28.432H71.032V18.932H66.332Z" fill="#07042D"/>
<path d="M56.832 66.3503V61.6503H47.332V66.3503H56.832Z" fill="#07042D"/>
<path d="M61.6035 61.6V56.9H56.9035V61.6H61.6035Z" fill="#07042D"/>
<path d="M66.4023 56.8198V52.1198H61.7023V56.8198H66.4023Z" fill="#07042D"/>
<path d="M71.1328 52.1696V42.6696H66.4328V52.1696H71.1328Z" fill="#07042D"/>
<path d="M71.1211 28.4224V42.6224H75.8211V28.4224H71.1211Z" fill="#07042D"/>
<path d="M18.9621 23.6609H23.6621V18.9609H18.9621V23.6609Z" fill="#FFFFC9"/>
<path d="M23.7414 18.9807H28.4414V14.2807H23.7414V18.9807Z" fill="#FFFFC9"/>
<path d="M14.2805 28.4411H18.9805V23.7411H14.2805V28.4411Z" fill="#FFFFC9"/>
<path d="M28.4023 47.3604V42.6604H23.7023V47.3604H28.4023Z" fill="#FFFF53"/>
<path d="M23.7031 52.1406V47.4406H19.0031V52.1406H23.7031Z" fill="#FFFF53"/>
<path d="M19.002 56.8208V52.1208H14.302V56.8208H19.002Z" fill="#FFFF53"/>
<path d="M33.2031 42.5802V37.8802H28.5031V42.5802H33.2031Z" fill="#FFFF53"/>
<path d="M37.9023 37.9V33.2H33.2023V37.9H37.9023Z" fill="#FFFF53"/>
<path d="M42.7031 33.1197V28.4197H38.0031V33.1197H42.7031Z" fill="#FFFF53"/>
<path d="M47.4023 28.4395V23.7395H42.7023V28.4395H47.4023Z" fill="#FFFF53"/>
<path d="M56.9023 18.8791V14.1791H52.2023V18.8791H56.9023Z" fill="#FFFF53"/>
<path d="M37.9219 52.1203V47.4203H33.2219V52.1203H37.9219Z" fill="#FFFF53"/>
<path d="M28.4219 61.5807V56.8807H23.7219V61.5807H28.4219Z" fill="#FFFF53"/>
<path d="M52.1836 56.8401V52.1401H47.4836V56.8401H52.1836Z" fill="#FFFF53"/>
<path d="M56.8828 52.0599V47.3599H52.1828V52.0599H56.8828Z" fill="#FFFF53"/>
<path d="M61.584 47.3797V42.6797H56.884V47.3797H61.584Z" fill="#FFFF53"/>
<path d="M42.623 47.3401V42.6401H37.923V47.3401H42.623Z" fill="#FFFF53"/>
<path d="M47.4219 42.6599V37.9599H42.7219V42.6599H47.4219Z" fill="#FFFF53"/>
<path d="M52.123 37.8797V33.1797H47.423V37.8797H52.123Z" fill="#FFFF53"/>
<path d="M56.9219 33.0994V28.3994H52.2219V33.0994H56.9219Z" fill="#FFFF53"/>
<path d="M66.3223 23.639V18.939H61.6223V23.639H66.3223Z" fill="#FFFF53"/>
<path d="M61.623 28.4192V23.7192H56.923V28.4192H61.623Z" fill="#FFFF53"/>
</g>
<defs>
<clipPath id="clip0_1567_223">
<rect width="75.8" height="71.1" fill="white"/>
</clipPath>
</defs>
</svg>
