<svg width="57" height="50" viewBox="0 0 57 50" fill="none" xmlns="http://www.w3.org/2000/svg">
<g clip-path="url(#clip0_1567_157)">
<path d="M9.98489 6.68073H6.67969V20.0422H9.98489V6.68073Z" fill="#FF2968"/>
<path d="M13.3619 3.30518H9.98633V6.6807V23.3474H13.3619V3.30518Z" fill="#FF2968"/>
<path d="M9.98489 16.6666H6.67969V26.6526H9.98489V16.6666Z" fill="#C40851"/>
<path d="M49.9986 16.6666H46.6934V26.6526H49.9986V16.6666Z" fill="#C40851"/>
<path d="M43.3189 23.3474H40.0137V33.3333H43.3189V23.3474Z" fill="#C40851"/>
<path d="M39.9439 26.6526H36.6387V36.6385H39.9439V26.6526Z" fill="#C40851"/>
<path d="M46.6236 19.9719H43.3184V29.9578H46.6236V19.9719Z" fill="#C40851"/>
<path d="M36.6372 30.0281H33.332V40.014H36.6372V30.0281Z" fill="#C40851"/>
<path d="M33.3325 33.3333H30.0273V43.3192H33.3325V33.3333Z" fill="#C40851"/>
<path d="M13.2915 19.9719H9.98633V29.9578H13.2915V19.9719Z" fill="#C40851"/>
<path d="M16.6665 23.3474H13.3613V33.3333H16.6665V23.3474Z" fill="#C40851"/>
<path d="M19.9712 26.6526H16.666V36.6385H19.9712V26.6526Z" fill="#C40851"/>
<path d="M23.2759 30.0281H19.9707V40.014H23.2759V30.0281Z" fill="#C40851"/>
<path d="M26.6529 33.3333H23.3477V43.3192H26.6529V33.3333Z" fill="#C40851"/>
<path d="M29.9575 36.6385H26.6523V46.6244H29.9575V36.6385Z" fill="#C40851"/>
<path d="M16.6665 3.30518H13.3613V23.277H16.6665V3.30518Z" fill="#FF2968"/>
<path d="M49.9986 6.68073H46.6934V16.6667H49.9986V6.68073Z" fill="#FF2968"/>
<path d="M53.3052 13.3615H50V16.6667H53.3052V13.3615Z" fill="#C40851"/>
<path d="M19.9712 3.30518H16.666V26.6526H19.9712V3.30518Z" fill="#FF2968"/>
<path d="M46.6236 3.30518H43.3184V19.9718H46.6236V3.30518Z" fill="#FF2968"/>
<path d="M23.2759 6.68073H19.9707V30.0281H23.2759V6.68073Z" fill="#FF2968"/>
<path d="M43.3189 3.30518H40.0137V23.277H43.3189V3.30518Z" fill="#FF2968"/>
<path d="M33.3325 9.9859H30.0273V33.3333H33.3325V9.9859Z" fill="#FF2968"/>
<path d="M26.6529 33.3333V9.98593V6.68073H23.3477V33.3333H26.6529Z" fill="#FF2968"/>
<path d="M40.0142 26.6526V3.30518H36.6387V6.6807V26.6526H40.0142Z" fill="#FF2968"/>
<path d="M29.9575 13.3615H26.6523V36.7088H29.9575V13.3615Z" fill="#FF2968"/>
<path d="M36.6372 6.68073H33.332V30.0281H36.6372V6.68073Z" fill="#FF2968"/>
<path d="M19.9723 0H9.98633V3.3052H19.9723V0Z" fill="#07042D"/>
<path d="M46.6246 0H36.6387V3.3052H46.6246V0Z" fill="#07042D"/>
<path d="M23.2779 3.30518H19.9727V6.61038H23.2779V3.30518Z" fill="#07042D"/>
<path d="M36.6392 3.30518H33.334V6.61038H36.6392V3.30518Z" fill="#07042D"/>
<path d="M3.3052 13.3615H0V20.0422H3.3052V13.3615Z" fill="#07042D"/>
<path d="M6.60989 13.3615H3.30469V16.6667H6.60989V13.3615Z" fill="#C40851"/>
<path d="M6.60989 16.6667H3.30469V19.9719H6.60989V16.6667Z" fill="#C40851"/>
<path d="M53.3052 16.6667H50V19.9719H53.3052V16.6667Z" fill="#C40851"/>
<path d="M19.9712 36.6385H16.666V39.9438H19.9712V36.6385Z" fill="#07042D"/>
<path d="M16.6665 33.3333H13.3613V36.6385H16.6665V33.3333Z" fill="#07042D"/>
<path d="M9.98684 26.6526H6.68164V29.9578H9.98684V26.6526Z" fill="#07042D"/>
<path d="M13.2915 30.0281H9.98633V33.3333H13.2915V30.0281Z" fill="#07042D"/>
<path d="M6.60989 19.9719H3.30469V26.6526H6.60989V19.9719Z" fill="#07042D"/>
<path d="M6.60989 6.68073H3.30469V13.3615H6.60989V6.68073Z" fill="#07042D"/>
<path d="M9.98684 3.30518H6.68164V6.61038H9.98684V3.30518Z" fill="#07042D"/>
<path d="M26.6529 6.68073H23.3477V9.98593H26.6529V6.68073Z" fill="#07042D"/>
<path d="M29.9575 9.98596H26.6523V13.2912H29.9575V9.98596Z" fill="#07042D"/>
<path d="M33.3325 6.68073H30.0273V9.98593H33.3325V6.68073Z" fill="#07042D"/>
<path d="M56.6099 13.3615H53.3047V20.0422H56.6099V13.3615Z" fill="#07042D"/>
<path d="M50.0307 26.6959H53.3359V20.0151H50.0307V26.6959Z" fill="#07042D"/>
<path d="M50.0307 13.3197H53.3359V6.63897H50.0307V13.3197Z" fill="#07042D"/>
<path d="M46.6694 6.69501H49.9746V3.3898L46.6694 3.3898V6.69501Z" fill="#07042D"/>
<path d="M29.9575 46.6948H26.6523V50H29.9575V46.6948Z" fill="#07042D"/>
<path d="M23.2779 40.014H19.9727V43.3192H23.2779V40.014Z" fill="#07042D"/>
<path d="M39.9439 36.6385H36.6387V39.9438H39.9439V36.6385Z" fill="#07042D"/>
<path d="M43.3189 33.3333H40.0137V36.6385H43.3189V33.3333Z" fill="#07042D"/>
<path d="M46.6236 30.0281H43.3184V33.3333H46.6236V30.0281Z" fill="#07042D"/>
<path d="M50.0005 26.6526H46.6953V29.9578H50.0005V26.6526Z" fill="#07042D"/>
<path d="M36.6392 40.014H33.334V43.3192H36.6392V40.014Z" fill="#07042D"/>
<path d="M26.6529 43.3193H23.3477V46.6245H26.6529V43.3193Z" fill="#07042D"/>
<path d="M33.3325 43.3193H30.0273V46.6245H33.3325V43.3193Z" fill="#07042D"/>
<path d="M13.2915 9.9859H9.98633V16.6666H13.2915V9.9859Z" fill="#FFEEFF"/>
<path d="M16.6665 6.68073H13.3613V9.98593H16.6665V6.68073Z" fill="#FFEEFF"/>
</g>
<defs>
<clipPath id="clip0_1567_157">
<rect width="56.6807" height="50" fill="white"/>
</clipPath>
</defs>
</svg>
