<svg width="91" height="81" viewBox="0 0 91 81" fill="none" xmlns="http://www.w3.org/2000/svg">
<g clip-path="url(#clip0_1567_323)">
<path d="M52.2219 18.9406H56.9219V9.44061H52.2219V18.9406Z" fill="#07042D"/>
<path d="M56.9035 28.401H61.6035V18.901H56.9035V28.401Z" fill="#07042D"/>
<path d="M37.9816 9.52032H42.6816V4.82032L37.9816 4.82032V9.52032Z" fill="#07042D"/>
<path d="M42.6613 4.74011L47.3613 4.74011V0.0401125L42.6613 0.0401125V4.74011Z" fill="#07042D"/>
<path d="M47.4426 9.52032H52.1426V4.82032L47.4426 4.82032V9.52032Z" fill="#07042D"/>
<path d="M37.8992 9.5H33.1992V19H37.8992V9.5Z" fill="#07042D"/>
<path d="M33.1004 19H28.4004V28.5H33.1004V19Z" fill="#07042D"/>
<path d="M9.39922 37.9H4.69922V42.6H9.39922V37.9Z" fill="#07042D"/>
<path d="M14.2 33.2H9.5V42.7H14.2V33.2Z" fill="#FFD91D"/>
<path d="M9.39922 33.2H4.69922V37.9H9.39922V33.2Z" fill="#FFD91D"/>
<path d="M85.2996 33.2H80.5996V37.9H85.2996V33.2Z" fill="#FFD91D"/>
<path d="M18.8992 71.1H14.1992V75.8H18.8992V71.1Z" fill="#E8B714"/>
<path d="M75.7996 71.1H71.0996V75.8H75.7996V71.1Z" fill="#E8B714"/>
<path d="M33.1004 66.4H28.4004V71.1H33.1004V66.4Z" fill="#E8B714"/>
<path d="M37.8992 52.1H33.1992V71.1H37.8992V52.1Z" fill="#E8B714"/>
<path d="M61.6004 47.4H56.9004V71.1H61.6004V47.4Z" fill="#E8B714"/>
<path d="M42.6004 56.9H37.9004V66.4H42.6004V56.9Z" fill="#E8B714"/>
<path d="M52.1004 56.9H47.4004V66.4H52.1004V56.9Z" fill="#E8B714"/>
<path d="M56.7996 52.1H52.0996V71.1H56.7996V52.1Z" fill="#E8B714"/>
<path d="M80.5008 33.2H75.8008V42.7H80.5008V33.2Z" fill="#FFD91D"/>
<path d="M18.8992 33.2H14.1992V47.4H18.8992V33.2Z" fill="#FFD91D"/>
<path d="M23.7 61.6H19V75.8H23.7V61.6Z" fill="#E8B714"/>
<path d="M71.1004 61.6H66.4004V75.8H71.1004V61.6Z" fill="#E8B714"/>
<path d="M28.3992 52.1H23.6992V61.6H28.3992V52.1Z" fill="#FFD91D"/>
<path d="M28.3992 33.2H23.6992V47.4H28.3992V33.2Z" fill="#FFD91D"/>
<path d="M28.3992 52.1H23.6992V75.8H28.3992V52.1Z" fill="#E8B714"/>
<path d="M33.1004 28.4H28.4004V52.1H33.1004V28.4Z" fill="#FFD91D"/>
<path d="M37.8992 19H33.1992V52.2H37.8992V19Z" fill="#FFD91D"/>
<path d="M56.7996 19H52.0996V52.2H56.7996V19Z" fill="#FFD91D"/>
<path d="M61.6004 28.4H56.9004V47.4H61.6004V28.4Z" fill="#FFD91D"/>
<path d="M42.6004 9.5H37.9004V56.9H42.6004V9.5Z" fill="#FFD91D"/>
<path d="M52.1004 9.5H47.4004V56.9H52.1004V9.5Z" fill="#FFD91D"/>
<path d="M47.3992 4.70001H42.6992V56.8H47.3992V4.70001Z" fill="#FFD91D"/>
<path d="M23.7 33.2H19V52.2H23.7V33.2Z" fill="#FFD91D"/>
<path d="M71.1004 33.2H66.4004V52.2H71.1004V33.2Z" fill="#FFD91D"/>
<path d="M66.2996 33.2H61.5996V47.4H66.2996V33.2Z" fill="#FFD91D"/>
<path d="M75.7996 33.2H71.0996V47.4H75.7996V33.2Z" fill="#FFD91D"/>
<path d="M14.2 71.1H9.5V75.8H14.2V71.1Z" fill="#07042D"/>
<path d="M18.8992 75.8H14.1992V80.5H18.8992V75.8Z" fill="#07042D"/>
<path d="M23.7 52.1H19V61.6H23.7V52.1Z" fill="#07042D"/>
<path d="M18.8992 61.6H14.1992V71.1H18.8992V61.6Z" fill="#07042D"/>
<path d="M14.2 42.7H9.5V47.4H14.2V42.7Z" fill="#07042D"/>
<path d="M4.7 33.2H0V37.9H4.7V33.2Z" fill="#07042D"/>
<path d="M18.8992 47.4H14.1992V52.1H18.8992V47.4Z" fill="#07042D"/>
<path d="M37.9004 71.1H28.4004V75.8H37.9004V71.1Z" fill="#07042D"/>
<path d="M28.5 75.8H19V80.5H28.5V75.8Z" fill="#07042D"/>
<path d="M47.3992 61.6H42.6992V66.3H47.3992V61.6Z" fill="#07042D"/>
<path d="M42.6004 66.4H37.9004V71.1H42.6004V66.4Z" fill="#07042D"/>
<path d="M80.6027 42.6817H85.3027V37.9817H80.6027V42.6817Z" fill="#07042D"/>
<path d="M85.384 37.9015H90.084V33.2015H85.384V37.9015Z" fill="#07042D"/>
<path d="M80.5008 71.1H75.8008V75.8H80.5008V71.1Z" fill="#07042D"/>
<path d="M66.2996 47.4H61.5996V52.1H66.2996V47.4Z" fill="#07042D"/>
<path d="M28.3992 47.4H23.6992V52.1H28.3992V47.4Z" fill="#07042D"/>
<path d="M71.1004 52.1H66.4004V61.6H71.1004V52.1Z" fill="#07042D"/>
<path d="M75.7996 61.6H71.0996V71.1H75.7996V61.6Z" fill="#07042D"/>
<path d="M75.923 47.3619H80.623V42.6619H75.923V47.3619Z" fill="#07042D"/>
<path d="M71.1437 52.1422H75.8438V47.4422H71.1437V52.1422Z" fill="#07042D"/>
<path d="M61.5996 71.1H52.0996V75.8H61.5996V71.1Z" fill="#07042D"/>
<path d="M52.1004 66.4H47.4004V71.1H52.1004V66.4Z" fill="#07042D"/>
<path d="M85.2996 28.4H61.5996V33.1H85.2996V28.4Z" fill="#07042D"/>
<path d="M28.3992 28.4H4.69922V33.1H28.3992V28.4Z" fill="#07042D"/>
<path d="M75.7996 75.8H61.5996V80.5H75.7996V75.8Z" fill="#07042D"/>
<path d="M18.8992 42.7H14.1992V47.4H18.8992V42.7Z" fill="#E8B714"/>
<path d="M14.2 37.9H9.5V42.6H14.2V37.9Z" fill="#E8B714"/>
<path d="M23.7 47.4H19V52.1H23.7V47.4Z" fill="#E8B714"/>
<path d="M71.1004 47.4H66.4004V52.1H71.1004V47.4Z" fill="#E8B714"/>
<path d="M75.7996 42.7H71.0996V47.4H75.7996V42.7Z" fill="#E8B714"/>
<path d="M80.5008 37.9H75.8008V42.6H80.5008V37.9Z" fill="#E8B714"/>
<path d="M47.3992 56.9H42.6992V61.6H47.3992V56.9Z" fill="#E8B714"/>
<path d="M66.2996 52.1H61.5996V75.8H66.2996V52.1Z" fill="#E8B714"/>
<path d="M33.1004 47.4H28.4004V66.4H33.1004V47.4Z" fill="#E8B714"/>
</g>
<defs>
<clipPath id="clip0_1567_323">
<rect width="90.1" height="80.6" fill="white"/>
</clipPath>
</defs>
</svg>
