<svg width="76" height="100" viewBox="0 0 76 100" fill="none" xmlns="http://www.w3.org/2000/svg">
<g clip-path="url(#clip0_1567_89)">
<path d="M14.1992 18.9L14.1992 4.70001L9.49922 4.70001L9.49922 18.9H14.1992Z" fill="#07042D"/>
<path d="M9.48047 33.1604L9.48047 18.9604H4.78047L4.78047 33.1604H9.48047Z" fill="#07042D"/>
<path d="M52.1309 23.6893V14.1893H47.4309V23.6893H52.1309Z" fill="#07042D"/>
<path d="M56.8906 14.269V4.76898L52.1906 4.76898V14.269H56.8906Z" fill="#07042D"/>
<path d="M47.3711 33.2096V23.7096H42.6711V33.2096H47.3711Z" fill="#07042D"/>
<path d="M71.1426 56.8796V52.1796H66.4426V56.8796H71.1426Z" fill="#07042D"/>
<path d="M23.7227 94.7615L23.7227 80.5615H19.0227L19.0227 94.7615H23.7227Z" fill="#07042D"/>
<path d="M75.873 52.1294V42.6294H71.173V52.1294H75.873Z" fill="#07042D"/>
<path d="M42.6406 37.8598V33.1598H37.9406V37.8598H42.6406Z" fill="#07042D"/>
<path d="M66.3418 61.5598V56.8598H61.6418V61.5598H66.3418Z" fill="#07042D"/>
<path d="M61.6426 66.3401V61.6401H56.9426V66.3401H61.6426Z" fill="#07042D"/>
<path d="M56.8418 71.0203V66.3203H52.1418V71.0203H56.8418Z" fill="#07042D"/>
<path d="M52.1426 75.8005V71.1005H47.4426V75.8005H52.1426Z" fill="#07042D"/>
<path d="M47.4434 80.5807V75.8807H42.7434V80.5807H47.4434Z" fill="#07042D"/>
<path d="M33.1426 94.7213V90.0213H28.4426V94.7213H33.1426Z" fill="#07042D"/>
<path d="M28.4434 99.5015V94.8015H23.7434V99.5015H28.4434Z" fill="#07042D"/>
<path d="M42.6426 85.2609V80.5609H37.9426V85.2609H42.6426Z" fill="#07042D"/>
<path d="M37.9434 90.0411V85.3411H33.2434V90.0411H37.9434Z" fill="#07042D"/>
<path d="M33.1621 66.3405V52.1405H28.4621L28.4621 66.3405H33.1621Z" fill="#07042D"/>
<path d="M28.4414 80.6011L28.4414 66.4011H23.7414L23.7414 80.6011H28.4414Z" fill="#07042D"/>
<path d="M4.75977 47.4208L4.75977 33.2208H0.0597687L0.0597687 47.4208H4.75977Z" fill="#07042D"/>
<path d="M33.0992 47.4H4.69922V52.1H33.0992V47.4Z" fill="#07042D"/>
<path d="M52.0992 0H14.1992V4.7H52.0992V0Z" fill="#07042D"/>
<path d="M42.6625 42.6817H71.0625V37.9817H42.6625V42.6817Z" fill="#07042D"/>
<path d="M14.2188 4.6609L14.2188 47.3609H18.9187L18.9187 4.6609H14.2188Z" fill="#FFD91D"/>
<path d="M9.46875 19.0309L9.46875 47.4309H14.1688L14.1688 19.0309H9.46875Z" fill="#FFD91D"/>
<path d="M28.3984 66.3225V90.0225H33.0984V66.3225H28.3984Z" fill="#FFD91D"/>
<path d="M4.71875 33.201L4.71875 47.401H9.41875V33.201H4.71875Z" fill="#FFD91D"/>
<path d="M47.3887 42.6524V71.0524H52.0887V42.6524H47.3887Z" fill="#FFD91D"/>
<path d="M56.7996 42.7H52.0996V66.4H56.7996V42.7Z" fill="#FFD91D"/>
<path d="M61.6004 42.7H56.9004V61.7H61.6004V42.7Z" fill="#FFD91D"/>
<path d="M66.2996 42.7H61.5996V56.9H66.2996V42.7Z" fill="#FFD91D"/>
<path d="M28.3992 80.6H23.6992V94.8H28.3992V80.6Z" fill="#FFD91D"/>
<path d="M71.1004 42.7H66.4004V52.2H71.1004V42.7Z" fill="#FFD91D"/>
<path d="M52.1004 4.70001H47.4004V14.2H52.1004V4.70001Z" fill="#FFD91D"/>
<path d="M18.959 4.701L18.959 47.401H23.659L23.659 4.701H18.959Z" fill="#FFD91D"/>
<path d="M23.6992 4.7411L23.6992 47.4411H28.3992L28.3992 4.7411H23.6992Z" fill="#FFD91D"/>
<path d="M28.4395 4.68129L28.4395 47.3813H33.1395V4.68129H28.4395Z" fill="#FFD91D"/>
<path d="M33.2188 4.6818L33.2188 85.2818H37.9188L37.9188 4.6818H33.2188Z" fill="#FFD91D"/>
<path d="M37.9688 42.7123V80.6123H42.6688V42.7123H37.9688Z" fill="#FFD91D"/>
<path d="M42.6797 42.6823V75.8823H47.3797V42.6823H42.6797Z" fill="#FFD91D"/>
<path d="M37.9297 4.75143V33.1514H42.6297V4.75143H37.9297Z" fill="#FFD91D"/>
<path d="M42.7109 4.65143V23.6514H47.4109V4.65143H42.7109Z" fill="#FFD91D"/>
<path d="M23.7414 94.824H28.4414V85.324H23.7414V94.824Z" fill="#FFA72E"/>
<path d="M28.5207 90.0438H33.2207V80.5438H28.5207V90.0438Z" fill="#FFA72E"/>
<path d="M33.2023 85.3636H37.9023V75.8636H33.2023V85.3636Z" fill="#FFA72E"/>
<path d="M37.9816 80.5834H42.6816V71.0834H37.9816V80.5834Z" fill="#FFA72E"/>
<path d="M42.6613 75.8032H47.3613V66.3032H42.6613V75.8032Z" fill="#FFA72E"/>
<path d="M47.4426 71.123H52.1426V61.623H47.4426V71.123Z" fill="#FFA72E"/>
<path d="M52.2219 66.3427H56.9219V56.8427H52.2219V66.3427Z" fill="#FFA72E"/>
<path d="M56.9035 61.6625H61.6035V52.1625H56.9035V61.6625Z" fill="#FFA72E"/>
<path d="M61.6828 56.9223H66.3828V52.2223H61.6828V56.9223Z" fill="#FFA72E"/>
<path d="M66.3625 52.102H71.0625V42.602H66.3625V52.102Z" fill="#FFA72E"/>
<path d="M4.81953 47.3817H9.51953L9.51953 33.1817H4.81953L4.81953 47.3817Z" fill="#FFA72E"/>
<path d="M33.2023 66.1869H37.9023V47.3869H33.2023V66.1869Z" fill="#FFA72E"/>
<path d="M9.46016 47.3619H33.1602V42.6619H9.46016V47.3619Z" fill="#FFA72E"/>
<path d="M42.6223 47.3619H66.3223V42.6619H42.6223V47.3619Z" fill="#FFA72E"/>
<path d="M37.9816 42.6817H42.6816V37.9817H37.9816V42.6817Z" fill="#FFA72E"/>
<path d="M33.2023 37.9015H37.9023V33.2015H33.2023V37.9015Z" fill="#FFA72E"/>
<path d="M42.6613 23.6609H47.3613V18.9609H42.6613V23.6609Z" fill="#FFA72E"/>
<path d="M37.9816 33.1812H42.6816V23.6812H37.9816V33.1812Z" fill="#FFA72E"/>
<path d="M28.5207 71.0631H33.2207V66.3631H28.5207V71.0631Z" fill="#FFA72E"/>
<path d="M9.50117 33.1411H14.2012L14.2012 18.9411H9.50117L9.50117 33.1411Z" fill="#FFA72E"/>
<path d="M9.50117 42.6817H14.2012V37.9817H9.50117V42.6817Z" fill="#FFA72E"/>
</g>
<defs>
<clipPath id="clip0_1567_89">
<rect width="75.8" height="99.5" fill="white"/>
</clipPath>
</defs>
</svg>
